{
.appVersion = "3108";
.formatVersion = 3;
axes = (
{
name = Weight;
tag = wght;
}
);
classes = (
{
automatic = 1;
code = "k-deva kh-deva g-deva gh-deva ng-deva c-deva ch-deva j-deva jh-deva ny-deva tt-deva tth-deva dd-deva ddh-deva nn-deva t-deva th-deva d-deva dh-deva n-deva p-deva ph-deva b-deva bh-deva m-deva y-deva l-deva ll-deva v-deva sh-deva ss-deva s-deva h-deva";
name = xxxx;
},
{
automatic = 1;
code = "iMatra-deva iMatra-deva.01 iMatra-deva.02 iMatra-deva.03 iMatra-deva.04 iMatra-deva.05 iMatra-deva.06 iMatra-deva.07 iMatra-deva.08 iMatra-deva.09 iMatra-deva.10 iMatra-deva.11 iMatra-deva.12 iMatra-deva.13 iMatra-deva.14 iMatra-deva.15 iMatra-deva.16 iMatra-deva.17 iMatra-deva.18 iMatra-deva.19 iMatra-deva.20 iMatra-deva.21 iMatra-deva.22 iMatra-deva.23 iMatra-deva.24 iMatra-deva.25 iMatra-deva.26 iMatra-deva.27 iMatra-deva.28 iMatra-deva.29 iMatra-deva.30 iMatra-deva.31 iMatra-deva.32 iMatra-deva.33 iMatra-deva.34 iMatra-deva.35 iMatra-deva.36 iMatra-deva.37 iMatra-deva.38 iMatra-deva.39 iMatra-deva.40 iMatra-deva.41 iMatra-deva.42 iMatra-deva.43 iMatra-deva.44 iMatra-deva.45 iMatra-deva.46 iMatra-deva.47 iMatra-deva.48 iMatra-deva.49 iMatra-deva.50";
name = DevaIMatras;
},
{
automatic = 1;

glyphs = (
{
glyphname = A;
lastChange = "2023-07-18 08:03:51 +0000";
layers = (
{
layerId = "26F47EE3-04F7-4A34-AF6F-5DD15DA624B5";
shapes = (
{
closed = 1;
nodes = (
(83,217,l),
(83,158,l),
(257,158,l),
(257,217,l)
);
},
{
closed = 1;
nodes = (
(221,622,l),
(112,622,l),
(15,0,l),
(84,0,l),
(166,574,l),
(259,0,l),
(328,0,l)
);
}
);
width = 343;
},
{
layerId = "13BA2761-E32F-4173-A027-E047921EE288";
shapes = (
{
closed = 1;
nodes = (
(112,220,l),
(112,96,l),
(433,96,l),
(433,220,l)
);
},
{
closed = 1;
nodes = (
(378,642,l),
(165,642,l),
(0,0,l),
(172,0,l),
(271,451,l),
(367,0,l),
(543,0,l)
);
}
);
width = 543;
}
);
unicode = 65;
},
{
glyphname = AE;
lastChange = "2023-07-18 08:03:51 +0000";
layers = (
{
layerId = "26F47EE3-04F7-4A34-AF6F-5DD15DA624B5";
shapes = (
{
closed = 1;
nodes = (
(240,622,l),
(14,0,l),
(83,0,l),
(304,622,l)
);
},
{
closed = 1;
nodes = (
(105,217,l),
(105,158,l),
(279,158,l),
(279,217,l)
);
},
{
closed = 1;
nodes = (
(264,0,l),
(333,0,l),
(333,622,l),
(264,622,l)
);
},
{
closed = 1;
nodes = (
(308,59,l),
(308,0,l),
(504,0,l),
(504,59,l)
);
},
{
closed = 1;
nodes = (
(308,353,l),
(308,294,l),
(467,294,l),
(467,353,l)
);
},
{
closed = 1;
nodes = (
(308,622,l),
(308,563,l),
(497,563,l),
(497,622,l)
);
}
);
width = 528;
},
{
layerId = "13BA2761-E32F-4173-A027-E047921EE288";
shapes = (
{
closed = 1;
nodes = (
(255,642,l),
(0,0,l),
(172,0,l),
(410,642,l)
);
},
{
closed = 1;
nodes = (
(112,235,l),
(112,115,l),
(433,115,l),
(433,235,l)
);
},
{
closed = 1;
nodes = (
(369,0,l),
(534,0,l),
(534,642,l),
(369,642,l)
);
},
{
closed = 1;
nodes = (
(423,125,l),
(423,0,l),
(753,0,l),
(753,125,l)
);
},
{
closed = 1;
nodes = (
(436,386,l),
(436,261,l),
(715,261,l),
(715,386,l)
);
},
{
closed = 1;
nodes = (
(423,642,l),
(423,517,l),
(744,517,l),
(744,642,l)
);
}
);
width = 770;
}
);
unicode = 198;
},
{
glyphname = B;
lastChange = "2023-07-18 08:03:51 +0000";
layers = (
{
layerId = "26F47EE3-04F7-4A34-AF6F-5DD15DA624B5";
shapes = (
{
closed = 1;
nodes = (
(55,0,l),
(252,0,ls),
(305,0,o),
(331,26,o),
(331,79,c),
(331,269,ls),
(331,298,o),
(317,311,o),
(294,315,c),
(317,317,o),
(331,335,o),
(331,364,cs),
(331,543,ls),
(331,596,o),
(305,622,o),
(252,622,cs),
(55,622,l)
);
},
{
closed = 1;
nodes = (
(262,64,o),
(257,59,o),
(231,59,cs),
(124,59,l),
(124,288,l),
(231,288,ls),
(257,288,o),
(262,283,o),
(262,257,c),
(262,90,l)
);
},
{
closed = 1;
nodes = (
(262,352,o),
(257,347,o),
(231,347,cs),
(124,347,l),
(124,563,l),
(231,563,ls),
(257,563,o),
(262,558,o),
(262,532,cs),
(262,378,l)
);
}
);
width = 381;
},
{
layerId = "13BA2761-E32F-4173-A027-E047921EE288";
shapes = (
{
closed = 1;
nodes = (
(40,0,l),
(334,0,ls),
(441,0,o),
(481,49,o),
(481,124,cs),
(481,220,ls),
(481,271,o),
(472,306,o),
(433,323,c),
(472,344,o),
(481,384,o),
(481,436,cs),
(481,518,ls),
(481,593,o),
(441,642,o),
(334,642,cs),
(40,642,l)
);
},
{
closed = 1;
nodes = (
(309,122,o),
(301,115,o),
(284,115,cs),
(212,115,l),
(212,264,l),
(284,264,ls),
(301,264,o),
(309,257,o),
(309,242,cs),
(309,137,l)
);
},
{
closed = 1;
nodes = (
(309,386,o),
(301,379,o),
(284,379,cs),
(212,379,l),
(212,527,l),
(284,527,ls),
(301,527,o),
(309,520,o),
(309,505,cs),
(309,401,l)
);
}
);
width = 516;
}
);
unicode = 66;
},
{
glyphname = C;
lastChange = "2023-07-18 08:03:51 +0000";
layers = (
{
layerId = "26F47EE3-04F7-4A34-AF6F-5DD15DA624B5";
shapes = (
{
closed = 1;
nodes = (
(119,558,o),
(124,563,o),
(150,563,cs),
(186,563,l),
(186,622,l),
(129,622,ls),
(76,622,o),
(50,596,o),
(50,543,cs),
(50,78,ls),
(50,25,o),
(76,-1,o),
(129,-1,c),
(179,-1,l),
(179,58,l),
(150,58,ls),
(124,58,o),
(119,63,o),
(119,89,cs),
(119,532,l)
);
},
{
closed = 1;
nodes = (
(305,438,l),
(305,543,ls),
(305,596,o),
(279,622,o),
(226,622,cs),
(171,622,l),
(171,563,l),
(205,563,ls),
(231,563,o),
(236,558,o),
(236,532,cs),
(236,438,l)
);
},
{
closed = 1;
nodes = (
(236,63,o),
(231,58,o),
(205,58,cs),
(171,58,l),
(171,-1,l),
(226,-1,ls),
(279,-1,o),
(305,25,o),
(305,78,cs),
(305,183,l),
(236,183,l),
(236,89,l)
);
}
);
width = 345;
},
{
layerId = "13BA2761-E32F-4173-A027-E047921EE288";
shapes = (
{
closed = 1;
nodes = (
(210,520,o),
(218,527,o),
(235,527,cs),
(261,527,l),
(261,642,l),
(182,642,ls),
(75,642,o),
(35,593,o),
(35,518,cs),
(35,124,ls),
(35,49,o),
(75,0,o),
(182,0,cs),
(261,0,l),
(261,115,l),
(235,115,ls),
(218,115,o),
(210,122,o),
(210,137,cs),
(210,505,l)
);
},
{
closed = 1;
nodes = (
(470,402,l),
(470,518,ls),
(470,593,o),
(430,642,o),
(323,642,cs),
(244,642,l),
(244,527,l),
(270,527,ls),
(287,527,o),
(295,520,o),
(295,505,cs),
(295,402,l)
);
},
{
closed = 1;
nodes = (
(295,122,o),
(287,115,o),
(270,115,cs),
(244,115,l),
(244,0,l),
(323,0,ls),
(430,0,o),
(470,49,o),
(470,124,cs),
(470,236,l),
(295,236,l),
(295,137,l)
);
}
);
width = 495;
}
);
unicode = 67;
},
{
glyphname = D;
lastChange = "2023-07-18 08:03:51 +0000";
layers = (
{
layerId = "26F47EE3-04F7-4A34-AF6F-5DD15DA624B5";
shapes = (
{
closed = 1;
nodes = (
(331,397,l),
(331,543,ls),
(331,596,o),
(305,622,o),
(252,622,cs),
(94,622,l),
(94,563,l),
(231,563,ls),
(257,563,o),
(262,558,o),
(262,532,cs),
(262,397,l)
);
},
{
closed = 1;
nodes = (
(262,64,o),
(257,59,o),
(231,59,cs),
(94,59,l),
(94,0,l),
(252,0,ls),
(305,0,o),
(331,26,o),
(331,79,cs),
(331,422,l),
(262,422,l),
(262,90,l)
);
},
{
closed = 1;
nodes = (
(55,0,l),
(124,0,l),
(124,622,l),
(55,622,l)
);
}
);
width = 381;
},
{
layerId = "13BA2761-E32F-4173-A027-E047921EE288";
shapes = (
{
closed = 1;
nodes = (
(492,374,l),
(492,518,ls),
(492,593,o),
(452,642,o),
(345,642,cs),
(108,642,l),
(108,527,l),
(292,527,ls),
(309,527,o),
(317,520,o),
(317,505,cs),
(317,374,l)
);
},
{
closed = 1;
nodes = (
(317,122,o),
(309,115,o),
(292,115,cs),
(108,115,l),
(108,0,l),
(345,0,ls),
(452,0,o),
(492,49,o),
(492,124,cs),
(492,387,l),
(317,387,l),
(317,137,l)
);
},
{
closed = 1;
nodes = (
(50,0,l),
(225,0,l),
(225,642,l),
(50,642,l)
);
}
);
width = 529;
}
);
unicode = 68;
},
{
glyphname = Eth;
lastChange = "2023-07-18 08:03:51 +0000";
layers = (
{
layerId = "26F47EE3-04F7-4A34-AF6F-5DD15DA624B5";
shapes = (
{
closed = 1;
nodes = (
(331,397,l),
(331,543,ls),
(331,596,o),
(305,622,o),
(252,622,cs),
(94,622,l),
(94,563,l),
(231,563,ls),
(257,563,o),
(262,558,o),
(262,532,cs),
(262,397,l)
);
},
{
closed = 1;
nodes = (
(262,64,o),
(257,59,o),
(231,59,cs),
(94,59,l),
(94,0,l),
(252,0,ls),
(305,0,o),
(331,26,o),
(331,79,cs),
(331,422,l),
(262,422,l),
(262,90,l)
);
},
{
closed = 1;
nodes = (
(55,0,l),
(124,0,l),
(124,622,l),
(55,622,l)
);
},
{
closed = 1;
nodes = (
(5,342,l),
(5,283,l),
(204,283,l),
(204,342,l)
);
}
);
width = 381;
},
{
layerId = "13BA2761-E32F-4173-A027-E047921EE288";
shapes = (
{
closed = 1;
nodes = (
(492,374,l),
(492,518,ls),
(492,593,o),
(452,642,o),
(345,642,cs),
(108,642,l),
(108,527,l),
(292,527,ls),
(309,527,o),
(317,520,o),
(317,505,cs),
(317,374,l)
);
},
{
closed = 1;
nodes = (
(317,122,o),
(309,115,o),
(292,115,cs),
(108,115,l),
(108,0,l),
(345,0,ls),
(452,0,o),
(492,49,o),
(492,124,cs),
(492,387,l),
(317,387,l),
(317,137,l)
);
},
{
closed = 1;
nodes = (
(50,0,l),
(225,0,l),
(225,642,l),
(50,642,l)
);
},
{
closed = 1;
nodes = (
(-5,384,l),
(-5,269,l),
(280,269,l),
(280,384,l)
);
}
);
width = 527;
}
);
unicode = 208;
},
{
glyphname = Dcroat;
lastChange = "2023-07-18 08:03:51 +0000";
layers = (
{
layerId = "26F47EE3-04F7-4A34-AF6F-5DD15DA624B5";
shapes = (
{
closed = 1;
nodes = (
(331,397,l),
(331,543,ls),
(331,596,o),
(305,622,o),
(252,622,cs),
(94,622,l),
(94,563,l),
(231,563,ls),
(257,563,o),
(262,558,o),
(262,532,cs),
(262,397,l)
);
},
{
closed = 1;
nodes = (
(262,64,o),
(257,59,o),
(231,59,cs),
(94,59,l),
(94,0,l),
(252,0,ls),
(305,0,o),
(331,26,o),
(331,79,cs),
(331,422,l),
(262,422,l),
(262,90,l)
);
},
{
closed = 1;
nodes = (
(55,0,l),
(124,0,l),
(124,622,l),
(55,622,l)
);
},
{
closed = 1;
nodes = (
(5,342,l),
(5,283,l),
(204,283,l),
(204,342,l)
);
}
);
width = 381;
},
{
layerId = "13BA2761-E32F-4173-A027-E047921EE288";
shapes = (
{
closed = 1;
nodes = (
(492,374,l),
(492,518,ls),
(492,593,o),
(452,642,o),
(345,642,cs),
(108,642,l),
(108,517,l),
(292,517,ls),
(309,517,o),
(317,510,o),
(317,495,cs),
(317,374,l)
);
},
{
closed = 1;
nodes = (
(317,132,o),
(309,125,o),
(292,125,cs),
(108,125,l),
(108,0,l),
(345,0,ls),
(452,0,o),
(492,49,o),
(492,124,cs),
(492,387,l),
(317,387,l),
(317,147,l)
);
},
{
closed = 1;
nodes = (
(50,0,l),
(225,0,l),
(225,642,l),
(50,642,l)
);
},
{
closed = 1;
nodes = (
(-5,384,l),
(-5,269,l),
(280,269,l),
(280,384,l)
);
}
);
width = 537;
}
);
unicode = 272;
},
{
glyphname = E;
lastChange = "2023-07-18 08:03:51 +0000";
layers = (
{
layerId = "26F47EE3-04F7-4A34-AF6F-5DD15DA624B5";
shapes = (
{
closed = 1;
nodes = (
(55,0,l),
(124,0,l),
(124,622,l),
(55,622,l)
);
},
{
closed = 1;
nodes = (
(99,353,l),
(99,294,l),
(258,294,l),
(258,353,l)
);
},
{
closed = 1;
nodes = (
(99,622,l),
(99,563,l),
(288,563,l),
(288,622,l)
);
},
{
closed = 1;
nodes = (
(99,59,l),
(99,0,l),
(295,0,l),
(295,59,l)
);
}
);
width = 315;
},
{
layerId = "13BA2761-E32F-4173-A027-E047921EE288";
shapes = (
{
closed = 1;
nodes = (
(40,0,l),
(215,0,l),
(215,642,l),
(40,642,l)
);
},
{
closed = 1;
nodes = (
(115,386,l),
(115,261,l),
(396,261,l),
(396,386,l)
);
},
{
closed = 1;
nodes = (
(102,642,l),
(102,517,l),
(425,517,l),
(425,642,l)
);
},
{
closed = 1;
nodes = (
(102,125,l),
(102,0,l),
(434,0,l),
(434,125,l)
);
}
);
width = 449;
}
);
unicode = 69;
},
{
glyphname = F;
lastChange = "2023-07-18 08:03:51 +0000";
layers = (
{
layerId = "26F47EE3-04F7-4A34-AF6F-5DD15DA624B5";
shapes = (
{
closed = 1;
nodes = (
(55,0,l),
(124,0,l),
(124,622,l),
(55,622,l)
);
},
{
closed = 1;
nodes = (
(99,343,l),
(99,284,l),
(258,284,l),
(258,343,l)
);
},
{
closed = 1;
nodes = (
(99,622,l),
(99,563,l),
(298,563,l),
(298,622,l)
);
}
);
width = 303;
},
{
layerId = "13BA2761-E32F-4173-A027-E047921EE288";
shapes = (
{
closed = 1;
nodes = (
(40,0,l),
(215,0,l),
(215,642,l),
(40,642,l)
);
},
{
closed = 1;
nodes = (
(116,361,l),
(116,246,l),
(397,246,l),
(397,361,l)
);
},
{
closed = 1;
nodes = (
(102,642,l),
(102,517,l),
(425,517,l),
(425,642,l)
);
}
);
width = 440;
}
);
unicode = 70;
},
{
glyphname = G;
lastChange = "2023-07-18 08:03:51 +0000";
layers = (
{
layerId = "26F47EE3-04F7-4A34-AF6F-5DD15DA624B5";
shapes = (
{
closed = 1;
nodes = (
(119,558,o),
(124,563,o),
(150,563,cs),
(186,563,l),
(186,622,l),
(129,622,ls),
(76,622,o),
(50,596,o),
(50,543,cs),
(50,78,ls),
(50,25,o),
(76,-1,o),
(129,-1,c),
(179,-1,l),
(179,58,l),
(150,58,ls),
(124,58,o),
(119,63,o),
(119,89,cs),
(119,532,l)
);
},
{
closed = 1;
nodes = (
(186,313,l),
(186,254,l),
(305,254,l),
(305,313,l)
);
},
{
closed = 1;
nodes = (
(305,448,l),
(305,543,ls),
(305,596,o),
(279,622,o),
(226,622,cs),
(171,622,l),
(171,563,l),
(205,563,ls),
(231,563,o),
(236,558,o),
(236,532,cs),
(236,448,l)
);
},
{
closed = 1;
nodes = (
(236,63,o),
(231,58,o),
(205,58,cs),
(171,58,l),
(171,-1,l),
(226,-1,ls),
(279,-1,o),
(305,25,o),
(305,78,cs),
(305,273,l),
(236,273,l),
(236,89,l)
);
}
);
width = 350;
},
{
layerId = "13BA2761-E32F-4173-A027-E047921EE288";
shapes = (
{
closed = 1;
nodes = (
(210,520,o),
(218,527,o),
(235,527,cs),
(262,527,l),
(262,642,l),
(182,642,ls),
(75,642,o),
(35,593,o),
(35,518,cs),
(35,124,ls),
(35,49,o),
(75,0,o),
(182,0,cs),
(258,0,l),
(258,115,l),
(235,115,ls),
(218,115,o),
(210,122,o),
(210,137,cs),
(210,505,l)
);
},
{
closed = 1;
nodes = (
(246,355,l),
(246,244,l),
(471,244,l),
(471,355,l)
);
},
{
closed = 1;
nodes = (
(471,422,l),
(471,518,ls),
(471,593,o),
(431,642,o),
(324,642,cs),
(244,642,l),
(244,527,l),
(271,527,ls),
(288,527,o),
(296,520,o),
(296,505,cs),
(296,422,l)
);
},
{
closed = 1;
nodes = (
(296,122,o),
(288,115,o),
(271,115,cs),
(248,115,l),
(248,0,l),
(324,0,ls),
(431,0,o),
(471,49,o),
(471,124,cs),
(471,278,l),
(296,278,l),
(296,137,l)
);
}
);
width = 501;
}
);
unicode = 71;
},
{
glyphname = Gcommaaccent;
lastChange = "2023-07-18 08:03:51 +0000";
layers = (
{
layerId = "26F47EE3-04F7-4A34-AF6F-5DD15DA624B5";
shapes = (
{
closed = 1;
nodes = (
(119,558,o),
(124,563,o),
(150,563,cs),
(186,563,l),
(186,622,l),
(129,622,ls),
(76,622,o),
(50,596,o),
(50,543,cs),
(50,78,ls),
(50,25,o),
(76,-1,o),
(129,-1,c),
(179,-1,l),
(179,58,l),
(150,58,ls),
(124,58,o),
(119,63,o),
(119,89,cs),
(119,532,l)
);
},
{
closed = 1;
nodes = (
(186,313,l),
(186,254,l),
(305,254,l),
(305,313,l)
);
},
{
closed = 1;
nodes = (
(305,448,l),
(305,543,ls),
(305,596,o),
(279,622,o),
(226,622,cs),
(171,622,l),
(171,563,l),
(205,563,ls),
(231,563,o),
(236,558,o),
(236,532,cs),
(236,448,l)
);
},
{
closed = 1;
nodes = (
(236,63,o),
(231,58,o),
(205,58,cs),
(171,58,l),
(171,-1,l),
(226,-1,ls),
(279,-1,o),
(305,25,o),
(305,78,cs),
(305,273,l),
(236,273,l),
(236,89,l)
);
},
{
closed = 1;
nodes = (
(140,-211,l),
(167,-211,l),
(220,-90,l),
(220,-51,l),
(140,-51,l)
);
}
);
width = 350;
},
{
layerId = "13BA2761-E32F-4173-A027-E047921EE288";
shapes = (
{
closed = 1;
nodes = (
(210,520,o),
(218,527,o),
(235,527,cs),
(262,527,l),
(262,642,l),
(182,642,ls),
(75,642,o),
(35,593,o),
(35,518,cs),
(35,124,ls),
(35,49,o),
(75,0,o),
(182,0,cs),
(258,0,l),
(258,115,l),
(235,115,ls),
(218,115,o),
(210,122,o),
(210,137,cs),
(210,505,l)
);
},
{
closed = 1;
nodes = (
(246,355,l),
(246,244,l),
(471,244,l),
(471,355,l)
);
},
{
closed = 1;
nodes = (
(471,422,l),
(471,518,ls),
(471,593,o),
(431,642,o),
(324,642,cs),
(244,642,l),
(244,527,l),
(271,527,ls),
(288,527,o),
(296,520,o),
(296,505,cs),
(296,422,l)
);
},
{
closed = 1;
nodes = (
(296,122,o),
(288,115,o),
(271,115,cs),
(248,115,l),
(248,0,l),
(324,0,ls),
(431,0,o),
(471,49,o),
(471,124,cs),
(471,278,l),
(296,278,l),
(296,137,l)
);
},
{
closed = 1;
nodes = (
(180,-299,l),
(232,-299,l),
(347,-133,l),
(347,-46,l),
(180,-46,l)
);
}
);
width = 501;
}
);
unicode = 290;
},
{
glyphname = H;
lastChange = "2023-07-18 08:03:51 +0000";
layers = (
{
layerId = "26F47EE3-04F7-4A34-AF6F-5DD15DA624B5";
shapes = (
{
closed = 1;
nodes = (
(99,340,l),
(99,281,l),
(288,281,l),
(288,340,l)
);
},
{
closed = 1;
nodes = (
(55,0,l),
(124,0,l),
(124,622,l),
(55,622,l)
);
},
{
closed = 1;
nodes = (
(258,0,l),
(327,0,l),
(327,622,l),
(258,622,l)
);
}
);
width = 382;
},
{
layerId = "13BA2761-E32F-4173-A027-E047921EE288";
shapes = (
{
closed = 1;
nodes = (
(180,379,l),
(180,254,l),
(360,254,l),
(360,379,l)
);
},
{
closed = 1;
nodes = (
(40,0,l),
(212,0,l),
(212,642,l),
(40,642,l)
);
},
{
closed = 1;
nodes = (
(338,0,l),
(510,0,l),
(510,642,l),
(338,642,l)
);
}
);
width = 550;
}
);
unicode = 72;
},
{
glyphname = I;
lastChange = "2023-07-18 08:03:51 +0000";
layers = (
{
layerId = "26F47EE3-04F7-4A34-AF6F-5DD15DA624B5";
shapes = (
{
closed = 1;
nodes = (
(65,0,l),
(133,0,l),
(133,622,l),
(65,622,l)
);
}
);
width = 198;
},
{
layerId = "13BA2761-E32F-4173-A027-E047921EE288";
shapes = (
{
closed = 1;
nodes = (
(40,0,l),
(215,0,l),
(215,642,l),
(40,642,l)
);
}
);
width = 255;
}
);
unicode = 73;
},
{
glyphname = J;
lastChange = "2023-07-18 08:03:51 +0000";
layers = (
{
layerId = "26F47EE3-04F7-4A34-AF6F-5DD15DA624B5";
shapes = (
{
closed = 1;
nodes = (
(15,79,ls),
(15,26,o),
(41,0,o),
(94,0,cs),
(170,0,ls),
(223,0,o),
(249,26,o),
(249,79,cs),
(249,622,l),
(180,622,l),
(180,90,ls),
(180,64,o),
(175,59,o),
(149,59,cs),
(115,59,ls),
(89,59,o),
(84,64,o),
(84,90,cs),
(84,192,l),
(15,192,l)
);
}
);
width = 301;
},
{
layerId = "13BA2761-E32F-4173-A027-E047921EE288";
shapes = (
{
closed = 1;
nodes = (
(10,124,ls),
(10,49,o),
(50,0,o),
(157,0,cs),
(274,0,ls),
(381,0,o),
(421,49,o),
(421,124,cs),
(421,642,l),
(246,642,l),
(246,147,ls),
(246,132,o),
(238,125,o),
(221,125,cs),
(210,125,ls),
(193,125,o),
(185,132,o),
(185,147,cs),
(185,257,l),
(10,257,l)
);
}
);
width = 457;
}
);
unicode = 74;
},
{
glyphname = K;
lastChange = "2023-07-18 08:03:51 +0000";
layers = (
{
layerId = "26F47EE3-04F7-4A34-AF6F-5DD15DA624B5";
shapes = (
{
closed = 1;
nodes = (
(259,0,l),
(333,0,l),
(201,308,l),
(130,308,l)
);
},
{
closed = 1;
nodes = (
(335,622,l),
(261,622,l),
(130,308,l),
(201,308,l)
);
},
{
closed = 1;
nodes = (
(55,0,l),
(123,0,l),
(123,622,l),
(55,622,l)
);
}
);
width = 345;
},
{
layerId = "13BA2761-E32F-4173-A027-E047921EE288";
shapes = (
{
closed = 1;
nodes = (
(336,0,l),
(524,0,l),
(398,328,l),
(216,328,l)
);
},
{
closed = 1;
nodes = (
(523,642,l),
(335,642,l),
(216,328,l),
(398,328,l)
);
},
{
closed = 1;
nodes = (
(40,0,l),
(215,0,l),
(215,642,l),
(40,642,l)
);
}
);
width = 530;
}
);
unicode = 75;
},
{
glyphname = Kcommaaccent;
lastChange = "2023-07-18 08:03:51 +0000";
layers = (
{
layerId = "26F47EE3-04F7-4A34-AF6F-5DD15DA624B5";
shapes = (
{
closed = 1;
nodes = (
(259,0,l),
(333,0,l),
(201,308,l),
(130,308,l)
);
},
{
closed = 1;
nodes = (
(335,622,l),
(261,622,l),
(130,308,l),
(201,308,l)
);
},
{
closed = 1;
nodes = (
(55,0,l),
(123,0,l),
(123,622,l),
(55,622,l)
);
},
{
closed = 1;
nodes = (
(141,-211,l),
(168,-211,l),
(221,-90,l),
(221,-51,l),
(141,-51,l)
);
}
);
width = 345;
},
{
layerId = "13BA2761-E32F-4173-A027-E047921EE288";
shapes = (
{
closed = 1;
nodes = (
(336,0,l),
(524,0,l),
(398,328,l),
(216,328,l)
);
},
{
closed = 1;
nodes = (
(523,642,l),
(335,642,l),
(216,328,l),
(398,328,l)
);
},
{
closed = 1;
nodes = (
(40,0,l),
(215,0,l),
(215,642,l),
(40,642,l)
);
},
{
closed = 1;
nodes = (
(173,-299,l),
(225,-299,l),
(340,-133,l),
(340,-46,l),
(173,-46,l)
);
}
);
width = 530;
}
);
unicode = 310;
},
{
glyphname = L;
lastChange = "2023-07-18 08:03:51 +0000";
layers = (
{
layerId = "26F47EE3-04F7-4A34-AF6F-5DD15DA624B5";
shapes = (
{
closed = 1;
nodes = (
(55,0,l),
(123,0,l),
(123,622,l),
(55,622,l)
);
},
{
closed = 1;
nodes = (
(266,0,l),
(266,59,l),
(96,59,l),
(96,0,l)
);
}
);
width = 271;
},
{
layerId = "13BA2761-E32F-4173-A027-E047921EE288";
shapes = (
{
closed = 1;
nodes = (
(40,0,l),
(215,0,l),
(215,642,l),
(40,642,l)
);
},
{
closed = 1;
nodes = (
(414,0,l),
(414,125,l),
(98,125,l),
(98,0,l)
);
}
);
width = 414;
}
);
unicode = 76;
},
{
glyphname = Lcaron;
lastChange = "2023-07-18 08:03:51 +0000";
layers = (
{
layerId = "26F47EE3-04F7-4A34-AF6F-5DD15DA624B5";
shapes = (
{
closed = 1;
nodes = (
(159,461,l),
(186,461,l),
(221,582,l),
(221,621,l),
(159,621,l)
);
},
{
closed = 1;
nodes = (
(55,0,l),
(123,0,l),
(123,622,l),
(55,622,l)
);
},
{
closed = 1;
nodes = (
(266,0,l),
(266,59,l),
(96,59,l),
(96,0,l)
);
}
);
width = 271;
},
{
layerId = "13BA2761-E32F-4173-A027-E047921EE288";
shapes = (
{
closed = 1;
nodes = (
(250,429,l),
(290,429,l),
(366,565,l),
(366,642,l),
(250,642,l)
);
},
{
closed = 1;
nodes = (
(40,0,l),
(215,0,l),
(215,642,l),
(40,642,l)
);
},
{
closed = 1;
nodes = (
(414,0,l),
(414,125,l),
(98,125,l),
(98,0,l)
);
}
);
width = 414;
}
);
},
{
glyphname = Lcommaaccent;
lastChange = "2023-07-18 08:03:51 +0000";
layers = (
{
layerId = "26F47EE3-04F7-4A34-AF6F-5DD15DA624B5";
shapes = (
{
closed = 1;
nodes = (
(55,0,l),
(123,0,l),
(123,622,l),
(55,622,l)
);
},
{
closed = 1;
nodes = (
(266,0,l),
(266,59,l),
(96,59,l),
(96,0,l)
);
},
{
closed = 1;
nodes = (
(119,-211,l),
(146,-211,l),
(199,-90,l),
(199,-51,l),
(119,-51,l)
);
}
);
width = 271;
},
{
layerId = "13BA2761-E32F-4173-A027-E047921EE288";
shapes = (
{
closed = 1;
nodes = (
(40,0,l),
(215,0,l),
(215,642,l),
(40,642,l)
);
},
{
closed = 1;
nodes = (
(414,0,l),
(414,125,l),
(98,125,l),
(98,0,l)
);
},
{
closed = 1;
nodes = (
(142,-299,l),
(194,-299,l),
(309,-133,l),
(309,-46,l),
(142,-46,l)
);
}
);
width = 414;
}
);
unicode = 315;
},
{
glyphname = Lslash;
lastChange = "2023-07-18 08:03:51 +0000";
layers = (
{
layerId = "26F47EE3-04F7-4A34-AF6F-5DD15DA624B5";
shapes = (
{
closed = 1;
nodes = (
(-18,282,l),
(-18,223,l),
(220,333,l),
(220,392,l)
);
},
{
ref = L;
}
);
width = 276;
},
{
layerId = "13BA2761-E32F-4173-A027-E047921EE288";
shapes = (
{
closed = 1;
nodes = (
(-39,309,l),
(-39,194,l),
(335,374,l),
(335,489,l)
);
},
{
pos = (10,0);
ref = L;
}
);
width = 434;
}
);
unicode = 321;
},
{
glyphname = M;
lastChange = "2023-07-18 08:03:51 +0000";
layers = (
{
layerId = "26F47EE3-04F7-4A34-AF6F-5DD15DA624B5";
shapes = (
{
closed = 1;
nodes = (
(361,471,l),
(361,0,l),
(420,0,l),
(420,622,l),
(345,622,l),
(237,222,l),
(130,622,l),
(55,622,l),
(55,0,l),
(114,0,l),
(114,471,l),
(201,135,l),
(274,135,l)
);
}
);
width = 475;
},
{
layerId = "13BA2761-E32F-4173-A027-E047921EE288";
shapes = (
{
closed = 1;
nodes = (
(475,408,l),
(475,0,l),
(630,0,l),
(630,642,l),
(439,642,l),
(335,299,l),
(231,642,l),
(40,642,l),
(40,0,l),
(196,0,l),
(196,406,l),
(275,139,l),
(395,139,l)
);
}
);
width = 670;
}
);
unicode = 77;
},
{
glyphname = N;
lastChange = "2023-07-18 08:03:51 +0000";
layers = (
{
layerId = "26F47EE3-04F7-4A34-AF6F-5DD15DA624B5";
shapes = (
{
closed = 1;
nodes = (
(259,157,l),
(135,622,l),
(55,622,l),
(55,0,l),
(118,0,l),
(118,482,l),
(247,0,l),
(322,0,l),
(322,622,l),
(259,622,l)
);
}
);
width = 377;
},
{
layerId = "13BA2761-E32F-4173-A027-E047921EE288";
shapes = (
{
closed = 1;
nodes = (
(333,299,l),
(190,642,l),
(40,642,l),
(40,0,l),
(200,0,l),
(200,337,l),
(343,0,l),
(493,0,l),
(493,642,l),
(333,642,l)
);
}
);
width = 533;
}
);
unicode = 78;
},
{
glyphname = Ncommaaccent;
lastChange = "2023-07-18 08:03:51 +0000";
layers = (
{
layerId = "26F47EE3-04F7-4A34-AF6F-5DD15DA624B5";
shapes = (
{
closed = 1;
nodes = (
(259,157,l),
(135,622,l),
(55,622,l),
(55,0,l),
(118,0,l),
(118,482,l),
(247,0,l),
(322,0,l),
(322,622,l),
(259,622,l)
);
},
{
closed = 1;
nodes = (
(139,-211,l),
(166,-211,l),
(219,-90,l),
(219,-51,l),
(139,-51,l)
);
}
);
width = 377;
},
{
layerId = "13BA2761-E32F-4173-A027-E047921EE288";
shapes = (
{
closed = 1;
nodes = (
(333,299,l),
(190,642,l),
(40,642,l),
(40,0,l),
(200,0,l),
(200,337,l),
(343,0,l),
(493,0,l),
(493,642,l),
(333,642,l)
);
},
{
closed = 1;
nodes = (
(175,-299,l),
(227,-299,l),
(342,-133,l),
(342,-46,l),
(175,-46,l)
);
}
);
width = 533;
}
);
unicode = 325;
},
{
glyphname = O;
lastChange = "2023-07-18 08:03:51 +0000";
layers = (
{
layerId = "26F47EE3-04F7-4A34-AF6F-5DD15DA624B5";
shapes = (
{
closed = 1;
nodes = (
(310,141,l),
(310,543,ls),
(310,596,o),
(284,622,o),
(231,622,cs),
(177,622,l),
(177,563,l),
(211,563,ls),
(237,563,o),
(242,558,o),
(242,532,cs),
(242,141,l)
);
},
{
closed = 1;
nodes = (
(242,64,o),
(237,59,o),
(211,59,cs),
(170,59,l),
(170,0,l),
(231,0,ls),
(284,0,o),
(310,26,o),
(310,79,cs),
(310,191,l),
(242,191,l),
(242,90,l)
);
},
{
closed = 1;
nodes = (
(118,558,o),
(123,563,o),
(149,563,cs),
(183,563,l),
(183,622,l),
(129,622,ls),
(76,622,o),
(50,596,o),
(50,543,cs),
(50,140,l),
(118,140,l),
(118,532,l)
);
},
{
closed = 1;
nodes = (
(50,199,l),
(50,79,ls),
(50,26,o),
(76,0,o),
(129,0,cs),
(180,0,l),
(180,59,l),
(149,59,ls),
(123,59,o),
(118,64,o),
(118,90,cs),
(118,199,l)
);
}
);
width = 360;
},
{
layerId = "13BA2761-E32F-4173-A027-E047921EE288";
shapes = (
{
closed = 1;
nodes = (
(479,374,l),
(479,518,ls),
(479,593,o),
(439,642,o),
(332,642,cs),
(246,642,l),
(246,517,l),
(279,517,ls),
(296,517,o),
(304,510,o),
(304,495,cs),
(304,374,l)
);
},
{
closed = 1;
nodes = (
(304,132,o),
(296,125,o),
(279,125,cs),
(246,125,l),
(246,0,l),
(332,0,ls),
(439,0,o),
(479,49,o),
(479,124,cs),
(479,387,l),
(304,387,l),
(304,147,l)
);
},
{
closed = 1;
nodes = (
(212,510,o),
(220,517,o),
(237,517,cs),
(270,517,l),
(270,642,l),
(184,642,ls),
(77,642,o),
(37,593,o),
(37,518,cs),
(37,374,l),
(212,374,l),
(212,495,l)
);
},
{
closed = 1;
nodes = (
(37,387,l),
(37,124,ls),
(37,49,o),
(77,0,o),
(184,0,cs),
(270,0,l),
(270,125,l),
(237,125,ls),
(220,125,o),
(212,132,o),
(212,147,cs),
(212,387,l)
);
}
);
width = 516;
}
);
unicode = 79;
},
{
glyphname = Oslash;
lastChange = "2023-07-18 08:03:51 +0000";
layers = (
{
layerId = "26F47EE3-04F7-4A34-AF6F-5DD15DA624B5";
shapes = (
{
closed = 1;
nodes = (
(315,596,o),
(289,622,o),
(236,622,cs),
(134,622,ls),
(81,622,o),
(55,596,o),
(55,543,cs),
(55,79,ls),
(55,26,o),
(81,0,o),
(134,0,cs),
(236,0,ls),
(289,0,o),
(315,26,o),
(315,79,cs),
(315,543,l)
);
},
{
closed = 1;
nodes = (
(248,61,o),
(243,56,o),
(216,56,cs),
(153,56,ls),
(127,56,o),
(122,61,o),
(122,87,cs),
(122,535,ls),
(122,561,o),
(127,566,o),
(153,566,cs),
(216,566,l),
(243,566,o),
(248,561,o),
(248,535,cs),
(248,87,l)
);
},
{
closed = 1;
nodes = (
(55,-20,l),
(103,-20,l),
(315,642,l),
(267,642,l)
);
}
);
width = 370;
},
{
layerId = "13BA2761-E32F-4173-A027-E047921EE288";
shapes = (
{
closed = 1;
nodes = (
(479,593,o),
(439,642,o),
(332,642,cs),
(184,642,ls),
(77,642,o),
(37,593,o),
(37,518,cs),
(37,124,ls),
(37,49,o),
(77,0,o),
(184,0,cs),
(332,0,ls),
(439,0,o),
(479,49,o),
(479,124,cs),
(479,518,l)
);
},
{
closed = 1;
nodes = (
(314,122,o),
(306,115,o),
(289,115,cs),
(227,115,ls),
(210,115,o),
(202,122,o),
(202,137,cs),
(202,505,ls),
(202,520,o),
(210,527,o),
(227,527,cs),
(289,527,ls),
(306,527,o),
(314,520,o),
(314,505,cs),
(314,137,l)
);
},
{
closed = 1;
nodes = (
(30,-20,l),
(104,-20,l),
(492,662,l),
(418,662,l)
);
}
);
width = 516;
}
);
unicode = 216;
},
{
glyphname = OE;
lastChange = "2023-07-18 08:03:51 +0000";
layers = (
{
layerId = "26F47EE3-04F7-4A34-AF6F-5DD15DA624B5";
shapes = (
{
closed = 1;
nodes = (
(280,141,l),
(280,543,ls),
(280,596,o),
(258,622,o),
(205,622,cs),
(177,622,l),
(177,563,l),
(211,563,ls),
(237,563,o),
(242,558,o),
(242,532,cs),
(242,141,l)
);
},
{
closed = 1;
nodes = (
(242,64,o),
(237,59,o),
(211,59,cs),
(170,59,l),
(170,0,l),
(206,0,ls),
(259,0,o),
(280,26,o),
(280,79,cs),
(280,191,l),
(242,191,l),
(242,90,l)
);
},
{
closed = 1;
nodes = (
(118,558,o),
(123,563,o),
(149,563,cs),
(183,563,l),
(183,622,l),
(129,622,ls),
(76,622,o),
(50,596,o),
(50,543,cs),
(50,140,l),
(118,140,l),
(118,532,l)
);
},
{
closed = 1;
nodes = (
(50,199,l),
(50,79,ls),
(50,26,o),
(76,0,o),
(129,0,cs),
(180,0,l),
(180,59,l),
(149,59,ls),
(123,59,o),
(118,64,o),
(118,90,cs),
(118,199,l)
);
},
{
closed = 1;
nodes = (
(262,0,l),
(321,0,l),
(321,622,l),
(262,622,l)
);
},
{
closed = 1;
nodes = (
(296,353,l),
(296,294,l),
(455,294,l),
(455,353,l)
);
},
{
closed = 1;
nodes = (
(296,622,l),
(296,563,l),
(485,563,l),
(485,622,l)
);
},
{
closed = 1;
nodes = (
(296,59,l),
(296,0,l),
(492,0,l),
(492,59,l)
);
}
);
width = 517;
},
{
layerId = "13BA2761-E32F-4173-A027-E047921EE288";
shapes = (
{
closed = 1;
nodes = (
(417,374,l),
(417,468,ls),
(417,553,o),
(397,642,o),
(290,642,cs),
(274,642,l),
(274,527,l),
(307,527,ls),
(324,527,o),
(332,520,o),
(332,505,cs),
(332,374,l)
);
},
{
closed = 1;
nodes = (
(332,122,o),
(324,115,o),
(307,115,cs),
(274,115,l),
(274,0,l),
(290,0,ls),
(397,0,o),
(417,89,o),
(417,174,cs),
(417,387,l),
(332,387,l),
(332,137,l)
);
},
{
closed = 1;
nodes = (
(240,520,o),
(248,527,o),
(265,527,cs),
(278,527,l),
(278,642,l),
(212,642,ls),
(105,642,o),
(65,593,o),
(65,518,cs),
(65,374,l),
(240,374,l),
(240,505,l)
);
},
{
closed = 1;
nodes = (
(65,387,l),
(65,124,ls),
(65,49,o),
(105,0,o),
(212,0,cs),
(278,0,l),
(278,115,l),
(265,115,ls),
(248,115,o),
(240,122,o),
(240,137,cs),
(240,387,l)
);
},
{
closed = 1;
nodes = (
(362,0,l),
(487,0,l),
(487,642,l),
(362,642,l)
);
},
{
closed = 1;
nodes = (
(387,381,l),
(387,266,l),
(668,266,l),
(668,381,l)
);
},
{
closed = 1;
nodes = (
(374,642,l),
(374,527,l),
(697,527,l),
(697,642,l)
);
},
{
closed = 1;
nodes = (
(374,115,l),
(374,0,l),
(706,0,l),
(706,115,l)
);
}
);
width = 740;
}
);
unicode = 338;
},
{
glyphname = P;
lastChange = "2023-07-18 08:03:51 +0000";
layers = (
{
layerId = "26F47EE3-04F7-4A34-AF6F-5DD15DA624B5";
shapes = (
{
closed = 1;
nodes = (
(247,314,o),
(242,309,o),
(216,309,cs),
(96,309,l),
(96,250,l),
(236,250,ls),
(289,250,o),
(315,276,o),
(315,329,cs),
(315,543,ls),
(315,596,o),
(289,622,o),
(236,622,cs),
(55,622,l),
(55,563,l),
(216,563,ls),
(242,563,o),
(247,558,o),
(247,532,cs),
(247,340,l)
);
},
{
closed = 1;
nodes = (
(55,0,l),
(123,0,l),
(123,622,l),
(55,622,l)
);
}
);
width = 345;
},
{
layerId = "13BA2761-E32F-4173-A027-E047921EE288";
shapes = (
{
closed = 1;
nodes = (
(309,342,o),
(301,335,o),
(284,335,cs),
(98,335,l),
(98,210,l),
(337,210,ls),
(444,210,o),
(484,259,o),
(484,334,cs),
(484,518,ls),
(484,593,o),
(444,642,o),
(337,642,cs),
(98,642,l),
(98,517,l),
(284,517,ls),
(301,517,o),
(309,510,o),
(309,495,cs),
(309,357,l)
);
},
{
closed = 1;
nodes = (
(40,0,l),
(215,0,l),
(215,642,l),
(40,642,l)
);
}
);
width = 504;
}
);
unicode = 80;
},
{
glyphname = Thorn;
lastChange = "2023-07-18 08:03:51 +0000";
layers = (
{
layerId = "26F47EE3-04F7-4A34-AF6F-5DD15DA624B5";
shapes = (
{
closed = 1;
nodes = (
(247,189,o),
(242,184,o),
(216,184,cs),
(96,184,l),
(96,125,l),
(236,125,ls),
(289,125,o),
(315,151,o),
(315,204,cs),
(315,418,ls),
(315,471,o),
(289,497,o),
(236,497,cs),
(85,497,l),
(85,438,l),
(216,438,ls),
(242,438,o),
(247,433,o),
(247,407,cs),
(247,215,l)
);
},
{
closed = 1;
nodes = (
(55,0,l),
(123,0,l),
(123,622,l),
(55,622,l)
);
}
);
width = 345;
},
{
layerId = "13BA2761-E32F-4173-A027-E047921EE288";
shapes = (
{
closed = 1;
nodes = (
(304,242,o),
(296,235,o),
(279,235,cs),
(103,235,l),
(103,115,l),
(332,115,ls),
(439,115,o),
(479,164,o),
(479,239,cs),
(479,402,ls),
(479,477,o),
(439,526,o),
(332,526,cs),
(103,526,l),
(103,406,l),
(279,406,ls),
(296,406,o),
(304,399,o),
(304,384,cs),
(304,257,l)
);
},
{
closed = 1;
nodes = (
(45,0,l),
(220,0,l),
(220,642,l),
(45,642,l)
);
}
);
width = 534;
}
);
unicode = 222;
},
{
glyphname = Q;
lastChange = "2023-07-18 08:03:51 +0000";
layers = (
{
layerId = "26F47EE3-04F7-4A34-AF6F-5DD15DA624B5";
shapes = (
{
closed = 1;
nodes = (
(310,141,l),
(310,543,ls),
(310,596,o),
(284,622,o),
(231,622,cs),
(177,622,l),
(177,563,l),
(211,563,ls),
(237,563,o),
(242,558,o),
(242,532,cs),
(242,141,l)
);
},
{
closed = 1;
nodes = (
(242,64,o),
(237,59,o),
(211,59,cs),
(170,59,l),
(170,0,l),
(231,0,ls),
(284,0,o),
(310,26,o),
(310,79,cs),
(310,191,l),
(242,191,l),
(242,90,l)
);
},
{
closed = 1;
nodes = (
(118,558,o),
(123,563,o),
(149,563,cs),
(183,563,l),
(183,622,l),
(129,622,ls),
(76,622,o),
(50,596,o),
(50,543,cs),
(50,140,l),
(118,140,l),
(118,532,l)
);
},
{
closed = 1;
nodes = (
(50,199,l),
(50,79,ls),
(50,26,o),
(76,0,o),
(129,0,cs),
(180,0,l),
(180,59,l),
(149,59,ls),
(123,59,o),
(118,64,o),
(118,90,cs),
(118,199,l)
);
},
{
closed = 1;
nodes = (
(245,-97,l),
(313,-97,l),
(225,36,l),
(158,36,l)
);
}
);
width = 360;
},
{
layerId = "13BA2761-E32F-4173-A027-E047921EE288";
shapes = (
{
closed = 1;
nodes = (
(479,374,l),
(479,518,ls),
(479,593,o),
(439,642,o),
(332,642,cs),
(246,642,l),
(246,517,l),
(279,517,ls),
(296,517,o),
(304,510,o),
(304,495,cs),
(304,374,l)
);
},
{
closed = 1;
nodes = (
(304,132,o),
(296,125,o),
(279,125,cs),
(246,125,l),
(246,0,l),
(332,0,ls),
(439,0,o),
(479,49,o),
(479,124,cs),
(479,387,l),
(304,387,l),
(304,147,l)
);
},
{
closed = 1;
nodes = (
(212,510,o),
(220,517,o),
(237,517,cs),
(270,517,l),
(270,642,l),
(184,642,ls),
(77,642,o),
(37,593,o),
(37,518,cs),
(37,374,l),
(212,374,l),
(212,495,l)
);
},
{
closed = 1;
nodes = (
(37,387,l),
(37,124,ls),
(37,49,o),
(77,0,o),
(184,0,cs),
(270,0,l),
(270,125,l),
(237,125,ls),
(220,125,o),
(212,132,o),
(212,147,cs),
(212,387,l)
);
},
{
closed = 1;
nodes = (
(336,-68,l),
(535,-68,l),
(354,125,l),
(158,125,l)
);
}
);
width = 516;
}
);
unicode = 81;
},
{
glyphname = R;
lastChange = "2023-07-18 08:03:51 +0000";
layers = (
{
layerId = "26F47EE3-04F7-4A34-AF6F-5DD15DA624B5";
shapes = (
{
closed = 1;
nodes = (
(247,324,o),
(242,319,o),
(216,319,cs),
(96,319,l),
(96,260,l),
(236,260,ls),
(289,260,o),
(315,286,o),
(315,339,cs),
(315,543,ls),
(315,596,o),
(289,622,o),
(236,622,cs),
(55,622,l),
(55,563,l),
(216,563,ls),
(242,563,o),
(247,558,o),
(247,532,cs),
(247,350,l)
);
},
{
closed = 1;
nodes = (
(55,0,l),
(123,0,l),
(123,622,l),
(55,622,l)
);
},
{
closed = 1;
nodes = (
(273,0,l),
(347,0,l),
(244,286,l),
(173,286,l)
);
}
);
width = 364;
},
{
layerId = "13BA2761-E32F-4173-A027-E047921EE288";
shapes = (
{
closed = 1;
nodes = (
(309,354,o),
(301,347,o),
(284,347,cs),
(98,347,l),
(98,228,l),
(337,228,ls),
(444,228,o),
(484,277,o),
(484,352,cs),
(484,518,ls),
(484,593,o),
(444,642,o),
(337,642,cs),
(98,642,l),
(98,517,l),
(284,517,ls),
(301,517,o),
(309,510,o),
(309,495,cs),
(309,369,l)
);
},
{
closed = 1;
nodes = (
(40,0,l),
(215,0,l),
(215,642,l),
(40,642,l)
);
},
{
closed = 1;
nodes = (
(328,0,l),
(516,0,l),
(366,298,l),
(195,298,l)
);
}
);
width = 514;
}
);
unicode = 82;
},
{
glyphname = Rcommaaccent;
lastChange = "2023-07-18 08:03:51 +0000";
layers = (
{
layerId = "26F47EE3-04F7-4A34-AF6F-5DD15DA624B5";
shapes = (
{
closed = 1;
nodes = (
(247,324,o),
(242,319,o),
(216,319,cs),
(96,319,l),
(96,260,l),
(236,260,ls),
(289,260,o),
(315,286,o),
(315,339,cs),
(315,543,ls),
(315,596,o),
(289,622,o),
(236,622,cs),
(55,622,l),
(55,563,l),
(216,563,ls),
(242,563,o),
(247,558,o),
(247,532,cs),
(247,350,l)
);
},
{
closed = 1;
nodes = (
(55,0,l),
(123,0,l),
(123,622,l),
(55,622,l)
);
},
{
closed = 1;
nodes = (
(273,0,l),
(347,0,l),
(244,286,l),
(173,286,l)
);
},
{
closed = 1;
nodes = (
(148,-211,l),
(175,-211,l),
(228,-90,l),
(228,-51,l),
(148,-51,l)
);
}
);
width = 364;
},
{
layerId = "13BA2761-E32F-4173-A027-E047921EE288";
shapes = (
{
closed = 1;
nodes = (
(309,354,o),
(301,347,o),
(284,347,cs),
(98,347,l),
(98,228,l),
(337,228,ls),
(444,228,o),
(484,277,o),
(484,352,cs),
(484,518,ls),
(484,593,o),
(444,642,o),
(337,642,cs),
(98,642,l),
(98,517,l),
(284,517,ls),
(301,517,o),
(309,510,o),
(309,495,cs),
(309,369,l)
);
},
{
closed = 1;
nodes = (
(40,0,l),
(215,0,l),
(215,642,l),
(40,642,l)
);
},
{
closed = 1;
nodes = (
(328,0,l),
(516,0,l),
(366,298,l),
(195,298,l)
);
},
{
closed = 1;
nodes = (
(164,-299,l),
(216,-299,l),
(331,-133,l),
(331,-46,l),
(164,-46,l)
);
}
);
width = 514;
}
);
unicode = 342;
},
{
glyphname = S;
lastChange = "2023-07-18 08:03:51 +0000";
layers = (
{
layerId = "26F47EE3-04F7-4A34-AF6F-5DD15DA624B5";
shapes = (
{
closed = 1;
nodes = (
(218,64,o),
(213,59,o),
(187,59,c),
(142,59,ls),
(116,59,o),
(111,64,o),
(111,90,cs),
(111,175,l),
(42,175,l),
(42,79,ls),
(42,26,o),
(68,0,o),
(121,0,cs),
(208,0,ls),
(261,0,o),
(287,26,o),
(287,79,cs),
(287,271,ls),
(287,324,o),
(261,350,o),
(208,350,cs),
(140,350,ls),
(114,350,o),
(109,355,o),
(109,381,cs),
(109,532,ls),
(109,558,o),
(114,563,o),
(140,563,cs),
(186,563,ls),
(212,563,o),
(217,558,o),
(217,532,cs),
(217,447,l),
(286,447,l),
(286,543,ls),
(286,596,o),
(260,622,o),
(207,622,cs),
(119,622,ls),
(66,622,o),
(40,596,o),
(40,543,cs),
(40,370,ls),
(40,317,o),
(66,291,o),
(119,291,cs),
(187,291,ls),
(213,291,o),
(218,286,o),
(218,260,cs),
(218,90,l)
);
}
);
width = 327;
},
{
layerId = "13BA2761-E32F-4173-A027-E047921EE288";
shapes = (
{
closed = 1;
nodes = (
(286,132,o),
(278,125,o),
(261,125,cs),
(232,125,ls),
(215,125,o),
(207,132,o),
(207,147,cs),
(207,201,l),
(32,201,l),
(32,124,ls),
(32,49,o),
(72,0,o),
(179,0,cs),
(315,0,ls),
(422,0,o),
(461,49,o),
(461,124,cs),
(461,256,ls),
(461,331,o),
(428,378,o),
(324,378,cs),
(230,378,ls),
(213,378,o),
(205,385,o),
(205,400,cs),
(205,495,ls),
(205,510,o),
(213,517,o),
(230,517,cs),
(259,517,ls),
(276,517,o),
(284,510,o),
(284,495,cs),
(284,441,l),
(459,441,l),
(459,518,ls),
(459,593,o),
(420,642,o),
(313,642,cs),
(176,642,ls),
(69,642,o),
(30,593,o),
(30,518,cs),
(30,386,ls),
(30,311,o),
(61,260,o),
(165,260,cs),
(261,260,ls),
(278,260,o),
(286,253,o),
(286,238,cs),
(286,147,l)
);
}
);
width = 491;
}
);
unicode = 83;
},
{
glyphname = Scedilla;
lastChange = "2023-07-18 08:03:51 +0000";
layers = (
{
layerId = "26F47EE3-04F7-4A34-AF6F-5DD15DA624B5";
shapes = (
{
closed = 1;
nodes = (
(218,64,o),
(213,59,o),
(187,59,c),
(142,59,ls),
(116,59,o),
(111,64,o),
(111,90,cs),
(111,175,l),
(42,175,l),
(42,79,ls),
(42,26,o),
(68,0,o),
(121,0,cs),
(208,0,ls),
(261,0,o),
(287,26,o),
(287,79,cs),
(287,271,ls),
(287,324,o),
(261,350,o),
(208,350,cs),
(140,350,ls),
(114,350,o),
(109,355,o),
(109,381,cs),
(109,532,ls),
(109,558,o),
(114,563,o),
(140,563,cs),
(186,563,ls),
(212,563,o),
(217,558,o),
(217,532,cs),
(217,447,l),
(286,447,l),
(286,543,ls),
(286,596,o),
(260,622,o),
(207,622,cs),
(119,622,ls),
(66,622,o),
(40,596,o),
(40,543,cs),
(40,370,ls),
(40,317,o),
(66,291,o),
(119,291,cs),
(187,291,ls),
(213,291,o),
(218,286,o),
(218,260,cs),
(218,90,l)
);
},
{
closed = 1;
nodes = (
(127,-211,l),
(154,-211,l),
(207,-90,l),
(207,-51,l),
(127,-51,l)
);
}
);
width = 327;
},
{
layerId = "13BA2761-E32F-4173-A027-E047921EE288";
shapes = (
{
closed = 1;
nodes = (
(286,132,o),
(278,125,o),
(261,125,cs),
(232,125,ls),
(215,125,o),
(207,132,o),
(207,147,cs),
(207,201,l),
(32,201,l),
(32,124,ls),
(32,49,o),
(72,0,o),
(179,0,cs),
(315,0,ls),
(422,0,o),
(461,49,o),
(461,124,cs),
(461,256,ls),
(461,331,o),
(428,378,o),
(324,378,cs),
(230,378,ls),
(213,378,o),
(205,385,o),
(205,400,cs),
(205,495,ls),
(205,510,o),
(213,517,o),
(230,517,cs),
(259,517,ls),
(276,517,o),
(284,510,o),
(284,495,cs),
(284,441,l),
(459,441,l),
(459,518,ls),
(459,593,o),
(420,642,o),
(313,642,cs),
(176,642,ls),
(69,642,o),
(30,593,o),
(30,518,cs),
(30,386,ls),
(30,311,o),
(61,260,o),
(165,260,cs),
(261,260,ls),
(278,260,o),
(286,253,o),
(286,238,cs),
(286,147,l)
);
},
{
closed = 1;
nodes = (
(156,-299,l),
(208,-299,l),
(323,-133,l),
(323,-46,l),
(156,-46,l)
);
}
);
width = 491;
}
);
unicode = 350;
},
{
glyphname = Scommaaccent;
lastChange = "2023-07-18 08:03:51 +0000";
layers = (
{
layerId = "26F47EE3-04F7-4A34-AF6F-5DD15DA624B5";
shapes = (
{
closed = 1;
nodes = (
(218,64,o),
(213,59,o),
(187,59,c),
(142,59,ls),
(116,59,o),
(111,64,o),
(111,90,cs),
(111,175,l),
(42,175,l),
(42,79,ls),
(42,26,o),
(68,0,o),
(121,0,cs),
(208,0,ls),
(261,0,o),
(287,26,o),
(287,79,cs),
(287,271,ls),
(287,324,o),
(261,350,o),
(208,350,cs),
(140,350,ls),
(114,350,o),
(109,355,o),
(109,381,cs),
(109,532,ls),
(109,558,o),
(114,563,o),
(140,563,cs),
(186,563,ls),
(212,563,o),
(217,558,o),
(217,532,cs),
(217,447,l),
(286,447,l),
(286,543,ls),
(286,596,o),
(260,622,o),
(207,622,cs),
(119,622,ls),
(66,622,o),
(40,596,o),
(40,543,cs),
(40,370,ls),
(40,317,o),
(66,291,o),
(119,291,cs),
(187,291,ls),
(213,291,o),
(218,286,o),
(218,260,cs),
(218,90,l)
);
},
{
closed = 1;
nodes = (
(126,-211,l),
(153,-211,l),
(206,-90,l),
(206,-51,l),
(126,-51,l)
);
}
);
width = 327;
},
{
layerId = "13BA2761-E32F-4173-A027-E047921EE288";
shapes = (
{
closed = 1;
nodes = (
(286,132,o),
(278,125,o),
(261,125,cs),
(232,125,ls),
(215,125,o),
(207,132,o),
(207,147,cs),
(207,201,l),
(32,201,l),
(32,124,ls),
(32,49,o),
(72,0,o),
(179,0,cs),
(315,0,ls),
(422,0,o),
(461,49,o),
(461,124,cs),
(461,256,ls),
(461,331,o),
(428,378,o),
(324,378,cs),
(230,378,ls),
(213,378,o),
(205,385,o),
(205,400,cs),
(205,495,ls),
(205,510,o),
(213,517,o),
(230,517,cs),
(259,517,ls),
(276,517,o),
(284,510,o),
(284,495,cs),
(284,441,l),
(459,441,l),
(459,518,ls),
(459,593,o),
(420,642,o),
(313,642,cs),
(176,642,ls),
(69,642,o),
(30,593,o),
(30,518,cs),
(30,386,ls),
(30,311,o),
(61,260,o),
(165,260,cs),
(261,260,ls),
(278,260,o),
(286,253,o),
(286,238,cs),
(286,147,l)
);
},
{
closed = 1;
nodes = (
(158,-299,l),
(210,-299,l),
(325,-133,l),
(325,-46,l),
(158,-46,l)
);
}
);
width = 491;
}
);
unicode = 536;
},
{
glyphname = T;
lastChange = "2023-07-18 08:03:51 +0000";
layers = (
{
layerId = "26F47EE3-04F7-4A34-AF6F-5DD15DA624B5";
shapes = (
{
closed = 1;
nodes = (
(105,0,l),
(173,0,l),
(173,622,l),
(105,622,l)
);
},
{
closed = 1;
nodes = (
(5,622,l),
(5,563,l),
(273,563,l),
(273,622,l)
);
}
);
width = 278;
},
{
layerId = "13BA2761-E32F-4173-A027-E047921EE288";
shapes = (
{
closed = 1;
nodes = (
(128,0,l),
(303,0,l),
(303,582,l),
(128,582,l)
);
},
{
closed = 1;
nodes = (
(5,642,l),
(5,517,l),
(427,517,l),
(427,642,l)
);
}
);
width = 432;
}
);
unicode = 84;
},
{
glyphname = Tcedilla;
lastChange = "2023-07-18 08:03:51 +0000";
layers = (
{
layerId = "26F47EE3-04F7-4A34-AF6F-5DD15DA624B5";
shapes = (
{
closed = 1;
nodes = (
(105,0,l),
(173,0,l),
(173,622,l),
(105,622,l)
);
},
{
closed = 1;
nodes = (
(5,622,l),
(5,563,l),
(273,563,l),
(273,622,l)
);
},
{
closed = 1;
nodes = (
(97,-211,l),
(124,-211,l),
(177,-90,l),
(177,-51,l),
(97,-51,l)
);
}
);
width = 278;
},
{
layerId = "13BA2761-E32F-4173-A027-E047921EE288";
shapes = (
{
closed = 1;
nodes = (
(128,0,l),
(303,0,l),
(303,582,l),
(128,582,l)
);
},
{
closed = 1;
nodes = (
(5,642,l),
(5,517,l),
(427,517,l),
(427,642,l)
);
},
{
closed = 1;
nodes = (
(133,-299,l),
(185,-299,l),
(300,-133,l),
(300,-46,l),
(133,-46,l)
);
}
);
width = 432;
}
);
unicode = 354;
},
{
glyphname = Tcommaaccent;
lastChange = "2023-07-18 08:03:51 +0000";
layers = (
{
layerId = "26F47EE3-04F7-4A34-AF6F-5DD15DA624B5";
shapes = (
{
closed = 1;
nodes = (
(105,0,l),
(173,0,l),
(173,622,l),
(105,622,l)
);
},
{
closed = 1;
nodes = (
(5,622,l),
(5,563,l),
(273,563,l),
(273,622,l)
);
},
{
closed = 1;
nodes = (
(101,-211,l),
(128,-211,l),
(181,-90,l),
(181,-51,l),
(101,-51,l)
);
}
);
width = 278;
},
{
layerId = "13BA2761-E32F-4173-A027-E047921EE288";
shapes = (
{
closed = 1;
nodes = (
(128,0,l),
(303,0,l),
(303,582,l),
(128,582,l)
);
},
{
closed = 1;
nodes = (
(5,642,l),
(5,517,l),
(427,517,l),
(427,642,l)
);
},
{
closed = 1;
nodes = (
(131,-299,l),
(183,-299,l),
(298,-133,l),
(298,-46,l),
(131,-46,l)
);
}
);
width = 432;
}
);
unicode = 538;
},
{
glyphname = U;
lastChange = "2023-07-18 08:03:51 +0000";
layers = (
{
layerId = "26F47EE3-04F7-4A34-AF6F-5DD15DA624B5";
shapes = (
{
closed = 1;
nodes = (
(244,64,o),
(239,59,o),
(213,59,cs),
(172,59,l),
(172,0,l),
(233,0,ls),
(286,0,o),
(312,26,o),
(312,79,cs),
(312,622,l),
(244,622,l),
(244,90,l)
);
},
{
closed = 1;
nodes = (
(52,622,l),
(52,79,ls),
(52,26,o),
(78,0,o),
(131,0,cs),
(182,0,l),
(182,59,l),
(151,59,ls),
(125,59,o),
(120,64,o),
(120,90,cs),
(120,622,l)
);
}
);
width = 364;
},
{
layerId = "13BA2761-E32F-4173-A027-E047921EE288";
shapes = (
{
closed = 1;
nodes = (
(307,132,o),
(299,125,o),
(282,125,cs),
(249,125,l),
(249,0,l),
(335,0,ls),
(442,0,o),
(482,49,o),
(482,124,cs),
(482,642,l),
(307,642,l),
(307,147,l)
);
},
{
closed = 1;
nodes = (
(40,642,l),
(40,124,ls),
(40,49,o),
(80,0,o),
(187,0,cs),
(273,0,l),
(273,125,l),
(240,125,ls),
(223,125,o),
(215,132,o),
(215,147,cs),
(215,642,l)
);
}
);
width = 522;
}
);
unicode = 85;
},
{
glyphname = V;
lastChange = "2023-07-18 08:03:51 +0000";
layers = (
{
layerId = "26F47EE3-04F7-4A34-AF6F-5DD15DA624B5";
shapes = (
{
closed = 1;
nodes = (
(159,48,l),
(74,622,l),
(5,622,l),
(105,0,l),
(214,0,l),
(314,622,l),
(245,622,l)
);
}
);
width = 319;
},
{
layerId = "13BA2761-E32F-4173-A027-E047921EE288";
shapes = (
{
closed = 1;
nodes = (
(266,213,l),
(189,642,l),
(7,642,l),
(165,0,l),
(368,0,l),
(526,642,l),
(344,642,l)
);
}
);
width = 533;
}
);
unicode = 86;
},
{
glyphname = W;
lastChange = "2023-07-18 08:03:51 +0000";
layers = (
{
layerId = "26F47EE3-04F7-4A34-AF6F-5DD15DA624B5";
shapes = (
{
closed = 1;
nodes = (
(394,48,l),
(315,622,l),
(233,622,l),
(154,48,l),
(79,622,l),
(10,622,l),
(101,0,l),
(205,0,l),
(274,493,l),
(344,0,l),
(448,0,l),
(539,622,l),
(470,622,l)
);
}
);
width = 549;
},
{
layerId = "13BA2761-E32F-4173-A027-E047921EE288";
shapes = (
{
closed = 1;
nodes = (
(589,210,l),
(503,642,l),
(332,642,l),
(246,210,l),
(192,642,l),
(10,642,l),
(146,0,l),
(347,0,l),
(418,383,l),
(489,0,l),
(690,0,l),
(826,642,l),
(653,642,l)
);
}
);
width = 836;
}
);
unicode = 87;
},
{
glyphname = X;
lastChange = "2023-07-18 08:03:51 +0000";
layers = (
{
layerId = "26F47EE3-04F7-4A34-AF6F-5DD15DA624B5";
shapes = (
{
closed = 1;
nodes = (
(319,622,l),
(245,622,l),
(167,380,l),
(89,622,l),
(15,622,l),
(131,318,l),
(5,0,l),
(79,0,l),
(167,253,l),
(255,0,l),
(329,0,l),
(203,318,l)
);
}
);
width = 334;
},
{
layerId = "13BA2761-E32F-4173-A027-E047921EE288";
shapes = (
{
closed = 1;
nodes = (
(497,642,l),
(309,642,l),
(255,478,l),
(202,642,l),
(4,642,l),
(157,326,l),
(0,0,l),
(186,0,l),
(255,180,l),
(324,0,l),
(521,0,l),
(354,326,l)
);
}
);
width = 521;
}
);
unicode = 88;
},
{
glyphname = Y;
lastChange = "2023-07-18 08:03:51 +0000";
layers = (
{
layerId = "26F47EE3-04F7-4A34-AF6F-5DD15DA624B5";
shapes = (
{
closed = 1;
nodes = (
(314,622,l),
(245,622,l),
(162,257,l),
(74,622,l),
(5,622,l),
(128,190,l),
(196,190,l)
);
},
{
closed = 1;
nodes = (
(128,0,l),
(196,0,l),
(196,229,l),
(128,229,l)
);
}
);
width = 319;
},
{
layerId = "13BA2761-E32F-4173-A027-E047921EE288";
shapes = (
{
closed = 1;
nodes = (
(519,642,l),
(341,642,l),
(263,371,l),
(179,642,l),
(0,642,l),
(189,179,l),
(340,179,l)
);
},
{
closed = 1;
nodes = (
(177,0,l),
(352,0,l),
(352,272,l),
(177,272,l)
);
}
);
width = 519;
}
);
unicode = 89;
},
{
glyphname = Z;
lastChange = "2023-07-18 08:03:51 +0000";
layers = (
{
layerId = "26F47EE3-04F7-4A34-AF6F-5DD15DA624B5";
shapes = (
{
closed = 1;
nodes = (
(15,623,l),
(15,564,l),
(268,564,l),
(268,623,l)
);
},
{
closed = 1;
nodes = (
(5,59,l),
(73,59,l),
(268,564,l),
(200,564,l)
);
},
{
closed = 1;
nodes = (
(5,59,l),
(5,0,l),
(263,0,l),
(263,59,l)
);
}
);
width = 273;
},
{
layerId = "13BA2761-E32F-4173-A027-E047921EE288";
shapes = (
{
closed = 1;
nodes = (
(33,642,l),
(33,517,l),
(444,517,l),
(444,642,l)
);
},
{
closed = 1;
nodes = (
(20,125,l),
(203,125,l),
(444,517,l),
(261,517,l)
);
},
{
closed = 1;
nodes = (
(20,125,l),
(20,0,l),
(437,0,l),
(437,125,l)
);
}
);
width = 464;
}
);
unicode = 90;
},
{
glyphname = a;
lastChange = "2023-07-18 08:03:51 +0000";
layers = (
{
layerId = "26F47EE3-04F7-4A34-AF6F-5DD15DA624B5";
shapes = (
{
closed = 1;
nodes = (
(109,395,ls),
(109,421,o),
(114,426,o),
(140,426,cs),
(180,426,ls),
(204,426,o),
(214,417,o),
(214,390,cs),
(214,362,l),
(218,362,l),
(218,424,ls),
(218,469,o),
(194,485,o),
(159,485,cs),
(119,485,ls),
(66,485,o),
(40,459,o),
(40,406,cs),
(40,224,l),
(109,224,l)
);
},
{
closed = 1;
nodes = (
(283,485,l),
(214,485,l),
(214,430,l),
(214,422,l),
(214,0,l),
(283,0,l)
);
},
{
closed = 1;
nodes = (
(40,79,ls),
(40,26,o),
(66,0,o),
(119,0,cs),
(159,0,ls),
(194,0,o),
(218,16,o),
(218,61,c),
(218,121,l),
(214,121,l),
(214,95,ls),
(214,68,o),
(204,59,o),
(180,59,cs),
(140,59,ls),
(114,59,o),
(109,64,o),
(109,90,cs),
(109,261,l),
(40,261,l)
);
}
);
width = 328;
},
{
layerId = "13BA2761-E32F-4173-A027-E047921EE288";
shapes = (
{
closed = 1;
nodes = (
(200,352,ls),
(200,367,o),
(208,374,o),
(225,374,cs),
(242,374,ls),
(260,374,o),
(269,365,o),
(269,344,cs),
(269,317,l),
(275,317,l),
(275,407,ls),
(275,463,o),
(244,499,o),
(181,499,cs),
(163,499,ls),
(68,499,o),
(30,450,o),
(30,375,cs),
(30,240,l),
(200,240,l)
);
},
{
closed = 1;
nodes = (
(439,499,l),
(272,499,l),
(272,404,l),
(269,404,l),
(269,0,l),
(439,0,l)
);
},
{
closed = 1;
nodes = (
(30,124,ls),
(30,49,o),
(68,0,o),
(163,0,cs),
(181,0,ls),
(244,0,o),
(275,36,o),
(275,92,cs),
(275,182,l),
(269,182,l),
(269,155,ls),
(269,134,o),
(260,125,o),
(242,125,cs),
(225,125,ls),
(208,125,o),
(200,132,o),
(200,147,cs),
(200,259,l),
(30,259,l)
);
}
);
width = 479;
}
);
unicode = 97;
},
{
glyphname = ae;
lastChange = "2023-07-18 08:03:51 +0000";
layers = (
{
layerId = "26F47EE3-04F7-4A34-AF6F-5DD15DA624B5";
shapes = (
{
closed = 1;
nodes = (
(45,200,l),
(114,166,l),
(272,229,l),
(252,285,l)
);
},
{
closed = 1;
nodes = (
(45,79,ls),
(45,26,o),
(71,0,o),
(124,0,cs),
(195,0,ls),
(227,0,o),
(247,20,o),
(252,38,c),
(257,20,o),
(278,0,o),
(307,0,cs),
(387,0,ls),
(440,0,o),
(466,26,o),
(466,79,cs),
(466,134,l),
(397,134,l),
(397,90,ls),
(397,64,o),
(392,59,o),
(366,59,cs),
(319,59,ls),
(293,59,o),
(288,64,o),
(288,90,cs),
(288,395,ls),
(288,421,o),
(293,426,o),
(319,426,cs),
(369,426,ls),
(395,426,o),
(400,421,o),
(400,395,cs),
(400,219,l),
(469,219,l),
(469,406,ls),
(469,459,o),
(443,485,o),
(390,485,cs),
(307,485,ls),
(278,485,o),
(257,465,o),
(252,447,c),
(247,465,o),
(227,485,o),
(195,485,cs),
(124,485,ls),
(71,485,o),
(45,459,o),
(45,406,cs),
(45,312,l),
(114,312,l),
(114,395,ls),
(114,421,o),
(119,426,o),
(145,426,cs),
(185,426,ls),
(207,426,o),
(217,418,o),
(219,396,c),
(219,89,l),
(217,66,o),
(207,59,o),
(185,59,cs),
(145,59,ls),
(119,59,o),
(114,64,o),
(114,90,cs),
(114,166,l),
(45,200,l)
);
},
{
closed = 1;
nodes = (
(249,278,l),
(249,219,l),
(456,219,l),
(456,278,l)
);
}
);
width = 509;
},
{
layerId = "13BA2761-E32F-4173-A027-E047921EE288";
shapes = (
{
closed = 1;
nodes = (
(35,208,l),
(205,174,l),
(345,233,l),
(305,319,l)
);
},
{
closed = 1;
nodes = (
(35,124,ls),
(35,49,o),
(73,0,o),
(168,0,cs),
(235,0,ls),
(283,0,o),
(330,21,o),
(349,56,c),
(370,21,o),
(411,0,o),
(480,0,cs),
(543,0,ls),
(650,0,o),
(690,49,o),
(690,124,cs),
(690,167,l),
(525,167,l),
(525,142,ls),
(525,127,o),
(517,120,o),
(500,120,cs),
(464,120,ls),
(447,120,o),
(439,127,o),
(439,142,cs),
(439,357,ls),
(439,372,o),
(447,379,o),
(464,379,cs),
(500,379,ls),
(517,379,o),
(525,372,o),
(525,357,cs),
(525,223,l),
(690,223,l),
(690,375,ls),
(690,450,o),
(650,499,o),
(543,499,cs),
(481,499,ls),
(412,499,o),
(371,478,o),
(350,443,c),
(331,478,o),
(284,499,o),
(236,499,cs),
(168,499,ls),
(73,499,o),
(35,450,o),
(35,375,cs),
(35,309,l),
(205,309,l),
(205,352,ls),
(205,367,o),
(213,374,o),
(230,374,cs),
(247,374,ls),
(265,374,o),
(274,365,o),
(274,344,cs),
(274,155,ls),
(274,134,o),
(265,125,o),
(247,125,cs),
(230,125,ls),
(213,125,o),
(205,132,o),
(205,147,cs),
(205,174,l),
(35,208,l)
);
},
{
closed = 1;
nodes = (
(315,300,l),
(315,201,l),
(690,201,l),
(690,300,l)
);
}
);
width = 736;
}
);
unicode = 230;
},
{
glyphname = b;
lastChange = "2023-07-18 08:03:51 +0000";
layers = (
{
layerId = "26F47EE3-04F7-4A34-AF6F-5DD15DA624B5";
shapes = (
{
closed = 1;
nodes = (
(219,90,ls),
(219,64,o),
(214,59,o),
(188,59,cs),
(148,59,ls),
(124,59,o),
(114,68,o),
(114,95,cs),
(114,118,l),
(110,117,l),
(110,61,ls),
(110,16,o),
(134,0,o),
(169,0,cs),
(209,0,ls),
(262,0,o),
(288,26,o),
(288,79,cs),
(288,262,l),
(219,262,l)
);
},
{
closed = 1;
nodes = (
(288,407,ls),
(288,460,o),
(262,486,o),
(209,486,cs),
(169,486,ls),
(134,486,o),
(110,470,o),
(110,425,cs),
(110,357,l),
(114,357,l),
(114,391,ls),
(114,418,o),
(124,427,o),
(148,427,cs),
(188,427,ls),
(214,427,o),
(219,422,o),
(219,396,cs),
(219,225,l),
(288,225,l)
);
},
{
closed = 1;
nodes = (
(45,0,l),
(114,0,l),
(114,53,l),
(114,60,l),
(114,669,l),
(45,669,l)
);
}
);
width = 328;
},
{
layerId = "13BA2761-E32F-4173-A027-E047921EE288";
shapes = (
{
closed = 1;
nodes = (
(279,147,ls),
(279,132,o),
(271,125,o),
(254,125,cs),
(237,125,ls),
(219,125,o),
(210,134,o),
(210,155,cs),
(210,182,l),
(204,182,l),
(204,92,ls),
(204,36,o),
(235,0,o),
(298,0,cs),
(316,0,ls),
(411,0,o),
(449,49,o),
(449,124,cs),
(449,259,l),
(279,259,l)
);
},
{
closed = 1;
nodes = (
(449,375,ls),
(449,450,o),
(411,499,o),
(316,499,cs),
(298,499,ls),
(235,499,o),
(204,463,o),
(204,407,cs),
(204,317,l),
(210,317,l),
(210,344,ls),
(210,365,o),
(219,374,o),
(237,374,cs),
(254,374,ls),
(271,374,o),
(279,367,o),
(279,352,cs),
(279,240,l),
(449,240,l)
);
},
{
closed = 1;
nodes = (
(40,0,l),
(207,0,l),
(207,95,l),
(210,95,l),
(210,669,l),
(40,669,l)
);
}
);
width = 479;
}
);
unicode = 98;
},
{
glyphname = c;
lastChange = "2023-07-18 08:03:51 +0000";
layers = (
{
layerId = "26F47EE3-04F7-4A34-AF6F-5DD15DA624B5";
shapes = (
{
closed = 1;
nodes = (
(109,421,o),
(114,426,o),
(140,426,cs),
(171,426,l),
(171,485,l),
(119,485,ls),
(66,485,o),
(40,459,o),
(40,406,cs),
(40,79,ls),
(40,26,o),
(66,0,o),
(119,0,c),
(164,0,l),
(164,59,l),
(140,59,ls),
(114,59,o),
(109,64,o),
(109,90,cs),
(109,395,l)
);
},
{
closed = 1;
nodes = (
(290,341,l),
(290,406,ls),
(290,459,o),
(264,485,o),
(211,485,cs),
(156,485,l),
(156,426,l),
(190,426,ls),
(216,426,o),
(221,421,o),
(221,395,cs),
(221,341,l)
);
},
{
closed = 1;
nodes = (
(221,64,o),
(216,59,o),
(190,59,cs),
(156,59,l),
(156,0,l),
(211,0,ls),
(264,0,o),
(290,26,o),
(290,79,cs),
(290,144,l),
(221,144,l),
(221,90,l)
);
}
);
width = 325;
},
{
layerId = "13BA2761-E32F-4173-A027-E047921EE288";
shapes = (
{
closed = 1;
nodes = (
(200,367,o),
(208,374,o),
(225,374,cs),
(244,374,l),
(244,499,l),
(177,499,ls),
(70,499,o),
(30,450,o),
(30,375,cs),
(30,124,ls),
(30,49,o),
(70,0,o),
(177,0,cs),
(245,0,l),
(245,125,l),
(225,125,ls),
(208,125,o),
(200,132,o),
(200,147,cs),
(200,352,l)
);
},
{
closed = 1;
nodes = (
(431,306,l),
(431,375,ls),
(431,450,o),
(391,499,o),
(284,499,cs),
(230,499,l),
(230,374,l),
(242,374,ls),
(259,374,o),
(267,367,o),
(267,352,cs),
(267,306,l)
);
},
{
closed = 1;
nodes = (
(267,132,o),
(259,125,o),
(242,125,cs),
(230,125,l),
(230,0,l),
(284,0,ls),
(391,0,o),
(431,49,o),
(431,124,cs),
(431,193,l),
(267,193,l),
(267,147,l)
);
}
);
width = 451;
}
);
unicode = 99;
},
{
glyphname = d;
lastChange = "2023-07-18 08:03:51 +0000";
layers = (
{
layerId = "26F47EE3-04F7-4A34-AF6F-5DD15DA624B5";
shapes = (
{
closed = 1;
nodes = (
(109,396,ls),
(109,422,o),
(114,427,o),
(140,427,cs),
(180,427,ls),
(204,427,o),
(214,418,o),
(214,391,cs),
(214,357,l),
(218,357,l),
(218,425,ls),
(218,470,o),
(194,486,o),
(159,486,cs),
(119,486,ls),
(66,486,o),
(40,460,o),
(40,407,cs),
(40,225,l),
(109,225,l)
);
},
{
closed = 1;
nodes = (
(214,60,l),
(214,53,l),
(214,0,l),
(283,0,l),
(283,669,l),
(214,669,l)
);
},
{
closed = 1;
nodes = (
(40,79,ls),
(40,26,o),
(66,0,o),
(119,0,cs),
(159,0,ls),
(194,0,o),
(218,16,o),
(218,61,cs),
(218,117,l),
(214,118,l),
(214,95,ls),
(214,68,o),
(204,59,o),
(180,59,cs),
(140,59,ls),
(114,59,o),
(109,64,o),
(109,90,cs),
(109,262,l),
(40,262,l)
);
}
);
width = 328;
},
{
layerId = "13BA2761-E32F-4173-A027-E047921EE288";
shapes = (
{
closed = 1;
nodes = (
(200,352,ls),
(200,367,o),
(208,374,o),
(225,374,cs),
(242,374,ls),
(260,374,o),
(269,365,o),
(269,344,cs),
(269,317,l),
(275,317,l),
(275,407,ls),
(275,463,o),
(244,499,o),
(181,499,cs),
(163,499,ls),
(68,499,o),
(30,450,o),
(30,375,cs),
(30,240,l),
(200,240,l)
);
},
{
closed = 1;
nodes = (
(269,95,l),
(272,95,l),
(272,0,l),
(439,0,l),
(439,669,l),
(269,669,l)
);
},
{
closed = 1;
nodes = (
(30,124,ls),
(30,49,o),
(68,0,o),
(163,0,cs),
(181,0,ls),
(244,0,o),
(275,36,o),
(275,92,cs),
(275,182,l),
(269,182,l),
(269,155,ls),
(269,134,o),
(260,125,o),
(242,125,cs),
(225,125,ls),
(208,125,o),
(200,132,o),
(200,147,cs),
(200,259,l),
(30,259,l)
);
}
);
width = 479;
}
);
unicode = 100;
},
{
glyphname = eth;
lastChange = "2023-07-18 08:03:51 +0000";
layers = (
{
layerId = "26F47EE3-04F7-4A34-AF6F-5DD15DA624B5";
shapes = (
{
closed = 1;
nodes = (
(109,323,ls),
(109,349,o),
(114,354,o),
(140,354,cs),
(253,354,l),
(253,413,l),
(119,413,ls),
(66,413,o),
(40,387,o),
(40,334,cs),
(40,79,ls),
(40,26,o),
(66,0,o),
(119,0,cs),
(173,0,l),
(173,59,l),
(140,59,ls),
(114,59,o),
(109,64,o),
(109,90,c)
);
},
{
closed = 1;
nodes = (
(228,90,ls),
(228,64,o),
(223,59,o),
(197,59,cs),
(164,59,l),
(164,0,l),
(218,0,ls),
(271,0,o),
(297,26,o),
(297,79,cs),
(297,309,ls),
(297,445,o),
(235,553,o),
(166,622,c),
(71,622,l),
(160,549,o),
(228,436,o),
(228,298,cs)
);
},
{
closed = 1;
nodes = (
(289,570,l),
(289,618,l),
(69,534,l),
(69,486,l)
);
}
);
width = 347;
},
{
layerId = "13BA2761-E32F-4173-A027-E047921EE288";
shapes = (
{
closed = 1;
nodes = (
(200,290,ls),
(200,305,o),
(208,312,o),
(225,312,cs),
(330,312,l),
(330,427,l),
(177,427,ls),
(70,427,o),
(30,378,o),
(30,303,cs),
(30,124,ls),
(30,49,o),
(70,0,o),
(177,0,cs),
(248,0,l),
(248,125,l),
(225,125,ls),
(208,125,o),
(200,132,o),
(200,147,c)
);
},
{
closed = 1;
nodes = (
(290,147,ls),
(290,132,o),
(282,125,o),
(265,125,cs),
(239,125,l),
(239,0,l),
(310,0,ls),
(417,0,o),
(457,49,o),
(457,124,cs),
(457,307,ls),
(457,498,o),
(346,608,o),
(302,642,c),
(67,642,l),
(117,610,o),
(290,499,o),
(290,309,c)
);
},
{
closed = 1;
nodes = (
(427,550,l),
(427,634,l),
(115,540,l),
(115,456,l)
);
}
);
width = 494;
}
);
unicode = 240;
},
{
glyphname = dcaron;
lastChange = "2023-07-18 08:03:51 +0000";
layers = (
{
layerId = "26F47EE3-04F7-4A34-AF6F-5DD15DA624B5";
shapes = (
{
closed = 1;
nodes = (
(328,509,l),
(355,509,l),
(390,630,l),
(390,669,l),
(328,669,l)
);
},
{
ref = d;
}
);
width = 354;
},
{
layerId = "13BA2761-E32F-4173-A027-E047921EE288";
shapes = (
{
closed = 1;
nodes = (
(479,456,l),
(519,456,l),
(595,592,l),
(595,669,l),
(479,669,l)
);
},
{
ref = d;
}
);
width = 520;
}
);
unicode = 271;
},
{
glyphname = dcroat;
lastChange = "2023-07-18 08:03:51 +0000";
layers = (
{
layerId = "26F47EE3-04F7-4A34-AF6F-5DD15DA624B5";
shapes = (
{
closed = 1;
nodes = (
(114,395,ls),
(114,421,o),
(119,426,o),
(145,426,cs),
(185,426,ls),
(209,426,o),
(219,417,o),
(219,390,cs),
(219,356,l),
(223,356,l),
(223,424,ls),
(223,469,o),
(199,485,o),
(164,485,cs),
(124,485,ls),
(71,485,o),
(45,459,o),
(45,406,cs),
(45,224,l),
(114,224,l)
);
},
{
closed = 1;
nodes = (
(219,60,l),
(219,53,l),
(219,0,l),
(288,0,l),
(288,669,l),
(219,669,l)
);
},
{
closed = 1;
nodes = (
(45,79,ls),
(45,26,o),
(71,0,o),
(124,0,cs),
(164,0,ls),
(199,0,o),
(223,16,o),
(223,61,cs),
(223,117,l),
(219,118,l),
(219,95,ls),
(219,68,o),
(209,59,o),
(185,59,cs),
(145,59,ls),
(119,59,o),
(114,64,o),
(114,90,cs),
(114,262,l),
(45,262,l)
);
},
{
closed = 1;
nodes = (
(134,603,l),
(134,544,l),
(333,544,l),
(333,603,l)
);
}
);
width = 333;
},
{
layerId = "13BA2761-E32F-4173-A027-E047921EE288";
shapes = (
{
closed = 1;
nodes = (
(205,352,ls),
(205,367,o),
(213,374,o),
(230,374,cs),
(247,374,ls),
(265,374,o),
(274,365,o),
(274,344,cs),
(274,317,l),
(280,317,l),
(280,407,ls),
(280,463,o),
(249,499,o),
(186,499,cs),
(168,499,ls),
(73,499,o),
(35,450,o),
(35,375,cs),
(35,240,l),
(205,240,l)
);
},
{
closed = 1;
nodes = (
(274,95,l),
(277,95,l),
(277,0,l),
(444,0,l),
(444,669,l),
(274,669,l)
);
},
{
closed = 1;
nodes = (
(35,124,ls),
(35,49,o),
(73,0,o),
(168,0,cs),
(186,0,ls),
(249,0,o),
(280,36,o),
(280,92,cs),
(280,182,l),
(274,182,l),
(274,155,ls),
(274,134,o),
(265,125,o),
(247,125,cs),
(230,125,ls),
(213,125,o),
(205,132,o),
(205,147,cs),
(205,259,l),
(35,259,l)
);
},
{
closed = 1;
nodes = (
(214,622,l),
(214,547,l),
(494,547,l),
(494,622,l)
);
}
);
width = 484;
}
);
unicode = 273;
},
{
glyphname = e;
lastChange = "2023-07-18 08:03:51 +0000";
layers = (
{
layerId = "26F47EE3-04F7-4A34-AF6F-5DD15DA624B5";
shapes = (
{
closed = 1;
nodes = (
(114,421,o),
(119,426,o),
(145,426,cs),
(176,426,l),
(176,485,l),
(124,485,ls),
(71,485,o),
(45,459,o),
(45,406,cs),
(45,79,ls),
(45,26,o),
(71,0,o),
(124,0,c),
(169,0,l),
(169,59,l),
(145,59,ls),
(119,59,o),
(114,64,o),
(114,90,cs),
(114,395,l)
);
},
{
closed = 1;
nodes = (
(295,229,l),
(295,406,ls),
(295,459,o),
(269,485,o),
(216,485,cs),
(161,485,l),
(161,426,l),
(195,426,ls),
(221,426,o),
(226,421,o),
(226,395,cs),
(226,229,l)
);
},
{
closed = 1;
nodes = (
(223,64,o),
(218,59,o),
(192,59,cs),
(161,59,l),
(161,0,l),
(213,0,ls),
(266,0,o),
(292,26,o),
(292,79,cs),
(292,134,l),
(223,134,l),
(223,90,l)
);
},
{
closed = 1;
nodes = (
(75,278,l),
(75,219,l),
(295,219,l),
(295,278,l)
);
}
);
width = 330;
},
{
layerId = "13BA2761-E32F-4173-A027-E047921EE288";
shapes = (
{
closed = 1;
nodes = (
(191,375,o),
(199,382,o),
(216,382,cs),
(244,382,l),
(244,499,l),
(177,499,ls),
(70,499,o),
(30,450,o),
(30,375,cs),
(30,124,ls),
(30,49,o),
(70,0,o),
(177,0,cs),
(245,0,l),
(245,117,l),
(216,117,ls),
(199,117,o),
(191,124,o),
(191,139,cs),
(191,360,l)
);
},
{
closed = 1;
nodes = (
(446,227,l),
(446,375,ls),
(446,450,o),
(406,499,o),
(299,499,cs),
(239,499,l),
(239,382,l),
(260,382,ls),
(277,382,o),
(285,375,o),
(285,360,cs),
(285,227,l)
);
},
{
closed = 1;
nodes = (
(285,126,o),
(277,117,o),
(260,117,cs),
(239,117,l),
(239,0,l),
(299,0,ls),
(406,0,o),
(446,49,o),
(446,124,cs),
(446,169,l),
(285,169,l),
(285,141,l)
);
},
{
closed = 1;
nodes = (
(71,297,l),
(71,205,l),
(446,205,l),
(446,297,l)
);
}
);
width = 471;
}
);
unicode = 101;
},
{
glyphname = f;
lastChange = "2023-07-18 08:03:51 +0000";
layers = (
{
layerId = "26F47EE3-04F7-4A34-AF6F-5DD15DA624B5";
shapes = (
{
closed = 1;
nodes = (
(122,600,o),
(127,605,o),
(153,605,cs),
(192,605,l),
(192,669,l),
(132,669,ls),
(79,669,o),
(53,643,o),
(53,590,cs),
(53,0,l),
(122,0,l),
(122,574,l)
);
},
{
closed = 1;
nodes = (
(5,485,l),
(5,426,l),
(192,426,l),
(192,485,l)
);
}
);
width = 197;
},
{
layerId = "13BA2761-E32F-4173-A027-E047921EE288";
shapes = (
{
closed = 1;
nodes = (
(231,542,o),
(239,549,o),
(256,549,cs),
(309,549,l),
(309,669,l),
(208,669,ls),
(101,669,o),
(61,620,o),
(61,545,cs),
(61,0,l),
(231,0,l),
(231,527,l)
);
},
{
closed = 1;
nodes = (
(10,499,l),
(10,374,l),
(309,374,l),
(309,499,l)
);
}
);
width = 314;
}
);
unicode = 102;
},
{
glyphname = g;
lastChange = "2023-07-18 08:03:51 +0000";
layers = (
{
layerId = "26F47EE3-04F7-4A34-AF6F-5DD15DA624B5";
shapes = (
{
closed = 1;
nodes = (
(40,79,ls),
(40,26,o),
(66,0,o),
(119,0,cs),
(159,0,ls),
(194,0,o),
(218,16,o),
(218,61,cs),
(218,117,l),
(214,118,l),
(214,95,ls),
(214,68,o),
(204,59,o),
(180,59,cs),
(140,59,ls),
(114,59,o),
(109,64,o),
(109,90,cs),
(109,262,l),
(40,262,l)
);
},
{
closed = 1;
nodes = (
(109,395,ls),
(109,421,o),
(114,426,o),
(140,426,cs),
(180,426,ls),
(204,426,o),
(214,417,o),
(214,390,cs),
(214,356,l),
(218,356,l),
(218,424,ls),
(218,469,o),
(194,485,o),
(159,485,cs),
(119,485,ls),
(66,485,o),
(40,459,o),
(40,406,cs),
(40,224,l),
(109,224,l)
);
},
{
closed = 1;
nodes = (
(214,-77,o),
(209,-82,o),
(183,-82,cs),
(55,-82,l),
(55,-141,l),
(204,-141,ls),
(257,-141,o),
(283,-115,o),
(283,-62,cs),
(283,10,l),
(214,10,l),
(214,-51,l)
);
},
{
closed = 1;
nodes = (
(283,485,l),
(214,485,l),
(214,435,l),
(214,432,l),
(214,-2,l),
(283,-2,l)
);
}
);
width = 328;
},
{
layerId = "13BA2761-E32F-4173-A027-E047921EE288";
shapes = (
{
closed = 1;
nodes = (
(30,154,ls),
(30,79,o),
(68,30,o),
(163,30,cs),
(181,30,ls),
(244,30,o),
(275,66,o),
(275,122,cs),
(275,212,l),
(269,212,l),
(269,185,ls),
(269,164,o),
(260,155,o),
(242,155,cs),
(225,155,ls),
(208,155,o),
(200,162,o),
(200,177,cs),
(200,259,l),
(30,259,l)
);
},
{
closed = 1;
nodes = (
(200,352,ls),
(200,367,o),
(208,374,o),
(225,374,cs),
(242,374,ls),
(260,374,o),
(269,365,o),
(269,344,cs),
(269,317,l),
(275,317,l),
(275,407,ls),
(275,463,o),
(244,499,o),
(181,499,cs),
(163,499,ls),
(68,499,o),
(30,450,o),
(30,375,cs),
(30,240,l),
(200,240,l)
);
},
{
closed = 1;
nodes = (
(269,-2,o),
(261,-9,o),
(244,-9,cs),
(53,-9,l),
(53,-129,l),
(292,-129,ls),
(399,-129,o),
(439,-80,o),
(439,-5,cs),
(439,41,l),
(269,41,l),
(269,13,l)
);
},
{
closed = 1;
nodes = (
(439,499,l),
(272,499,l),
(272,404,l),
(269,404,l),
(269,30,l),
(439,30,l)
);
}
);
width = 479;
}
);
unicode = 103;
},
{
glyphname = gcommaaccent;
lastChange = "2023-07-18 08:03:51 +0000";
layers = (
{
layerId = "26F47EE3-04F7-4A34-AF6F-5DD15DA624B5";
shapes = (
{
closed = 1;
nodes = (
(210,676,l),
(183,676,l),
(130,555,l),
(130,516,l),
(210,516,l)
);
},
{
ref = g;
}
);
width = 328;
},
{
layerId = "13BA2761-E32F-4173-A027-E047921EE288";
shapes = (
{
closed = 1;
nodes = (
(335,784,l),
(283,784,l),
(168,618,l),
(168,531,l),
(335,531,l)
);
},
{
ref = g;
}
);
width = 479;
}
);
unicode = 291;
},
{
glyphname = h;
lastChange = "2023-07-18 08:03:51 +0000";
layers = (
{
layerId = "26F47EE3-04F7-4A34-AF6F-5DD15DA624B5";
shapes = (
{
closed = 1;
nodes = (
(288,406,ls),
(288,459,o),
(262,485,o),
(209,485,cs),
(169,485,ls),
(134,485,o),
(110,469,o),
(110,424,cs),
(110,359,l),
(114,359,l),
(114,390,ls),
(114,417,o),
(124,426,o),
(148,426,cs),
(188,426,ls),
(214,426,o),
(219,421,o),
(219,395,cs),
(219,0,l),
(288,0,l)
);
},
{
closed = 1;
nodes = (
(114,669,l),
(45,669,l),
(45,0,l),
(114,0,l)
);
}
);
width = 333;
},
{
layerId = "13BA2761-E32F-4173-A027-E047921EE288";
shapes = (
{
closed = 1;
nodes = (
(449,375,ls),
(449,450,o),
(411,499,o),
(316,499,cs),
(298,499,ls),
(235,499,o),
(204,463,o),
(204,407,cs),
(204,317,l),
(210,317,l),
(210,344,ls),
(210,365,o),
(219,374,o),
(237,374,cs),
(254,374,ls),
(271,374,o),
(279,367,o),
(279,352,cs),
(279,0,l),
(449,0,l)
);
},
{
closed = 1;
nodes = (
(210,669,l),
(40,669,l),
(40,0,l),
(210,0,l)
);
}
);
width = 484;
}
);
unicode = 104;
},
{
glyphname = i;
lastChange = "2023-07-18 08:03:51 +0000";
layers = (
{
layerId = "26F47EE3-04F7-4A34-AF6F-5DD15DA624B5";
shapes = (
{
closed = 1;
nodes = (
(114,485,l),
(45,485,l),
(45,0,l),
(114,0,l)
);
},
{
closed = 1;
nodes = (
(116,589,l),
(116,670,l),
(43,670,l),
(43,589,l)
);
}
);
width = 159;
},
{
layerId = "13BA2761-E32F-4173-A027-E047921EE288";
shapes = (
{
closed = 1;
nodes = (
(210,499,l),
(40,499,l),
(40,0,l),
(210,0,l)
);
},
{
closed = 1;
nodes = (
(213,549,l),
(213,669,l),
(37,669,l),
(37,549,l)
);
}
);
width = 250;
}
);
unicode = 105;
},
{
glyphname = dotlessi;
lastChange = "2023-07-18 08:03:51 +0000";
layers = (
{
layerId = "26F47EE3-04F7-4A34-AF6F-5DD15DA624B5";
shapes = (
{
closed = 1;
nodes = (
(114,485,l),
(45,485,l),
(45,0,l),
(114,0,l)
);
}
);
width = 159;
},
{
layerId = "13BA2761-E32F-4173-A027-E047921EE288";
shapes = (
{
closed = 1;
nodes = (
(210,499,l),
(40,499,l),
(40,0,l),
(210,0,l)
);
}
);
width = 250;
}
);
unicode = 305;
},
{
glyphname = iacute;
lastChange = "2023-07-18 08:03:51 +0000";
layers = (
{
layerId = "26F47EE3-04F7-4A34-AF6F-5DD15DA624B5";
shapes = (
{
closed = 1;
nodes = (
(114,485,l),
(45,485,l),
(45,0,l),
(114,0,l)
);
},
{
pos = (-73,0);
ref = acute;
}
);
width = 159;
},
{
layerId = "13BA2761-E32F-4173-A027-E047921EE288";
shapes = (
{
closed = 1;
nodes = (
(210,499,l),
(40,499,l),
(40,0,l),
(210,0,l)
);
},
{
pos = (-62,0);
ref = acute;
}
);
width = 250;
}
);
unicode = 237;
},
{
glyphname = icircumflex;
lastChange = "2023-07-18 08:03:51 +0000";
layers = (
{
layerId = "26F47EE3-04F7-4A34-AF6F-5DD15DA624B5";
shapes = (
{
closed = 1;
nodes = (
(114,485,l),
(45,485,l),
(45,0,l),
(114,0,l)
);
},
{
pos = (-119,0);
ref = circumflex;
}
);
width = 159;
},
{
layerId = "13BA2761-E32F-4173-A027-E047921EE288";
shapes = (
{
closed = 1;
nodes = (
(210,499,l),
(40,499,l),
(40,0,l),
(210,0,l)
);
},
{
pos = (-127,0);
ref = circumflex;
}
);
width = 250;
}
);
unicode = 238;
},
{
glyphname = idieresis;
lastChange = "2023-07-18 08:03:51 +0000";
layers = (
{
layerId = "26F47EE3-04F7-4A34-AF6F-5DD15DA624B5";
shapes = (
{
closed = 1;
nodes = (
(114,485,l),
(45,485,l),
(45,0,l),
(114,0,l)
);
},
{
pos = (-120,0);
ref = dieresis;
}
);
width = 159;
},
{
layerId = "13BA2761-E32F-4173-A027-E047921EE288";
shapes = (
{
closed = 1;
nodes = (
(210,499,l),
(40,499,l),
(40,0,l),
(210,0,l)
);
},
{
pos = (-128,0);
ref = dieresis;
}
);
width = 250;
}
);
unicode = 239;
},
{
glyphname = igrave;
lastChange = "2023-07-18 08:03:51 +0000";
layers = (
{
layerId = "26F47EE3-04F7-4A34-AF6F-5DD15DA624B5";
shapes = (
{
closed = 1;
nodes = (
(114,485,l),
(45,485,l),
(45,0,l),
(114,0,l)
);
},
{
pos = (-171,0);
ref = grave;
}
);
width = 159;
},
{
layerId = "13BA2761-E32F-4173-A027-E047921EE288";
shapes = (
{
closed = 1;
nodes = (
(210,499,l),
(40,499,l),
(40,0,l),
(210,0,l)
);
},
{
pos = (-168,0);
ref = grave;
}
);
width = 250;
}
);
unicode = 236;
},
{
glyphname = imacron;
lastChange = "2023-07-18 08:03:51 +0000";
layers = (
{
layerId = "26F47EE3-04F7-4A34-AF6F-5DD15DA624B5";
shapes = (
{
closed = 1;
nodes = (
(114,485,l),
(45,485,l),
(45,0,l),
(114,0,l)
);
},
{
pos = (-120,0);
ref = macron;
}
);
width = 159;
},
{
layerId = "13BA2761-E32F-4173-A027-E047921EE288";
shapes = (
{
closed = 1;
nodes = (
(210,499,l),
(40,499,l),
(40,0,l),
(210,0,l)
);
},
{
pos = (-125,0);
ref = macron;
}
);
width = 250;
}
);
unicode = 299;
},
{
glyphname = j;
lastChange = "2023-07-18 08:03:51 +0000";
layers = (
{
layerId = "26F47EE3-04F7-4A34-AF6F-5DD15DA624B5";
shapes = (
{
closed = 1;
nodes = (
(45,-77,o),
(40,-82,o),
(14,-82,cs),
(0,-82,l),
(0,-141,l),
(35,-141,ls),
(88,-141,o),
(114,-115,o),
(114,-62,cs),
(114,485,l),
(45,485,l),
(45,-51,l)
);
},
{
closed = 1;
nodes = (
(116,589,l),
(116,670,l),
(43,670,l),
(43,589,l)
);
}
);
width = 159;
},
{
layerId = "13BA2761-E32F-4173-A027-E047921EE288";
shapes = (
{
closed = 1;
nodes = (
(40,-2,o),
(32,-9,o),
(15,-9,cs),
(-18,-9,l),
(-18,-129,l),
(63,-129,ls),
(170,-129,o),
(210,-80,o),
(210,-5,cs),
(210,499,l),
(40,499,l),
(40,13,l)
);
},
{
closed = 1;
nodes = (
(213,549,l),
(213,669,l),
(37,669,l),
(37,549,l)
);
}
);
width = 250;
}
);
unicode = 106;
},
{
glyphname = k;
lastChange = "2023-07-18 08:03:51 +0000";
layers = (
{
layerId = "26F47EE3-04F7-4A34-AF6F-5DD15DA624B5";
shapes = (
{
closed = 1;
nodes = (
(114,669,l),
(45,669,l),
(45,0,l),
(114,0,l)
);
},
{
closed = 1;
nodes = (
(246,0,l),
(320,0,l),
(207,256,l),
(136,256,l)
);
},
{
closed = 1;
nodes = (
(320,485,l),
(246,485,l),
(136,256,l),
(207,256,l)
);
}
);
width = 325;
},
{
layerId = "13BA2761-E32F-4173-A027-E047921EE288";
shapes = (
{
closed = 1;
nodes = (
(210,669,l),
(40,669,l),
(40,0,l),
(210,0,l)
);
},
{
closed = 1;
nodes = (
(303,0,l),
(480,0,l),
(373,253,l),
(202,253,l)
);
},
{
closed = 1;
nodes = (
(480,499,l),
(304,499,l),
(202,253,l),
(373,253,l)
);
}
);
width = 475;
}
);
unicode = 107;
},
{
glyphname = kcommaaccent;
lastChange = "2023-07-18 08:03:51 +0000";
layers = (
{
layerId = "26F47EE3-04F7-4A34-AF6F-5DD15DA624B5";
shapes = (
{
closed = 1;
nodes = (
(114,669,l),
(45,669,l),
(45,0,l),
(114,0,l)
);
},
{
closed = 1;
nodes = (
(246,0,l),
(320,0,l),
(207,256,l),
(136,256,l)
);
},
{
closed = 1;
nodes = (
(320,485,l),
(246,485,l),
(136,256,l),
(207,256,l)
);
},
{
closed = 1;
nodes = (
(130,-211,l),
(157,-211,l),
(210,-90,l),
(210,-51,l),
(130,-51,l)
);
}
);
width = 325;
},
{
layerId = "13BA2761-E32F-4173-A027-E047921EE288";
shapes = (
{
closed = 1;
nodes = (
(210,669,l),
(40,669,l),
(40,0,l),
(210,0,l)
);
},
{
closed = 1;
nodes = (
(303,0,l),
(480,0,l),
(373,253,l),
(202,253,l)
);
},
{
closed = 1;
nodes = (
(480,499,l),
(304,499,l),
(202,253,l),
(373,253,l)
);
},
{
closed = 1;
nodes = (
(164,-299,l),
(216,-299,l),
(331,-133,l),
(331,-46,l),
(164,-46,l)
);
}
);
width = 475;
}
);
unicode = 311;
},
{
glyphname = l;
lastChange = "2023-07-18 08:03:51 +0000";
layers = (
{
layerId = "26F47EE3-04F7-4A34-AF6F-5DD15DA624B5";
shapes = (
{
closed = 1;
nodes = (
(114,669,l),
(45,669,l),
(45,0,l),
(114,0,l)
);
}
);
width = 159;
},
{
layerId = "13BA2761-E32F-4173-A027-E047921EE288";
shapes = (
{
closed = 1;
nodes = (
(210,669,l),
(40,669,l),
(40,0,l),
(210,0,l)
);
}
);
width = 250;
}
);
unicode = 108;
},
{
glyphname = lcaron;
lastChange = "2023-07-18 08:03:51 +0000";
layers = (
{
layerId = "26F47EE3-04F7-4A34-AF6F-5DD15DA624B5";
shapes = (
{
closed = 1;
nodes = (
(159,509,l),
(186,509,l),
(221,630,l),
(221,669,l),
(159,669,l)
);
},
{
ref = l;
}
);
width = 186;
},
{
layerId = "13BA2761-E32F-4173-A027-E047921EE288";
shapes = (
{
closed = 1;
nodes = (
(250,456,l),
(290,456,l),
(366,592,l),
(366,669,l),
(250,669,l)
);
},
{
ref = l;
}
);
width = 300;
}
);
unicode = 318;
},
{
glyphname = lcommaaccent;
lastChange = "2023-07-18 08:03:51 +0000";
layers = (
{
layerId = "26F47EE3-04F7-4A34-AF6F-5DD15DA624B5";
shapes = (
{
closed = 1;
nodes = (
(114,669,l),
(45,669,l),
(45,0,l),
(114,0,l)
);
},
{
closed = 1;
nodes = (
(40,-211,l),
(67,-211,l),
(120,-90,l),
(120,-51,l),
(40,-51,l)
);
}
);
width = 159;
},
{
layerId = "13BA2761-E32F-4173-A027-E047921EE288";
shapes = (
{
closed = 1;
nodes = (
(210,669,l),
(40,669,l),
(40,0,l),
(210,0,l)
);
},
{
closed = 1;
nodes = (
(41,-299,l),
(93,-299,l),
(208,-133,l),
(208,-46,l),
(41,-46,l)
);
}
);
width = 250;
}
);
unicode = 316;
},
{
glyphname = lslash;
lastChange = "2023-07-18 08:03:51 +0000";
layers = (
{
layerId = "26F47EE3-04F7-4A34-AF6F-5DD15DA624B5";
shapes = (
{
closed = 1;
nodes = (
(-28,332,l),
(-28,273,l),
(210,383,l),
(210,442,l)
);
},
{
pos = (5,0);
ref = l;
}
);
width = 169;
},
{
layerId = "13BA2761-E32F-4173-A027-E047921EE288";
shapes = (
{
closed = 1;
nodes = (
(-55,349,l),
(-55,234,l),
(319,414,l),
(319,529,l)
);
},
{
pos = (5,0);
ref = l;
}
);
width = 260;
}
);
unicode = 322;
},
{
glyphname = m;
lastChange = "2023-07-18 08:03:51 +0000";
layers = (
{
layerId = "26F47EE3-04F7-4A34-AF6F-5DD15DA624B5";
shapes = (
{
closed = 1;
nodes = (
(288,406,ls),
(288,459,o),
(262,485,o),
(209,485,cs),
(169,485,ls),
(134,485,o),
(110,469,o),
(110,424,cs),
(110,356,l),
(114,356,l),
(114,390,ls),
(114,417,o),
(124,426,o),
(148,426,cs),
(188,426,ls),
(214,426,o),
(219,421,o),
(219,395,cs),
(219,0,l),
(288,0,l)
);
},
{
closed = 1;
nodes = (
(114,426,l),
(114,433,l),
(114,485,l),
(45,485,l),
(45,0,l),
(114,0,l)
);
},
{
closed = 1;
nodes = (
(462,406,ls),
(462,459,o),
(436,485,o),
(383,485,cs),
(343,485,ls),
(305,485,o),
(279,468,o),
(279,423,cs),
(279,356,l),
(288,356,l),
(288,390,ls),
(288,417,o),
(298,426,o),
(322,426,cs),
(362,426,ls),
(388,426,o),
(393,421,o),
(393,395,cs),
(393,0,l),
(462,0,l)
);
}
);
width = 502;
},
{
layerId = "13BA2761-E32F-4173-A027-E047921EE288";
shapes = (
{
closed = 1;
nodes = (
(449,375,ls),
(449,450,o),
(411,499,o),
(316,499,cs),
(298,499,ls),
(235,499,o),
(204,463,o),
(204,407,cs),
(204,317,l),
(210,317,l),
(210,344,ls),
(210,365,o),
(219,374,o),
(237,374,cs),
(254,374,ls),
(271,374,o),
(279,367,o),
(279,352,cs),
(279,0,l),
(449,0,l)
);
},
{
closed = 1;
nodes = (
(210,404,l),
(207,404,l),
(207,499,l),
(40,499,l),
(40,0,l),
(210,0,l)
);
},
{
closed = 1;
nodes = (
(688,375,ls),
(688,450,o),
(650,499,o),
(555,499,cs),
(537,499,ls),
(474,499,o),
(430,460,o),
(435,404,cs),
(443,317,l),
(449,317,l),
(449,344,ls),
(449,365,o),
(458,374,o),
(476,374,cs),
(493,374,ls),
(510,374,o),
(518,367,o),
(518,352,cs),
(518,0,l),
(688,0,l)
);
}
);
width = 723;
}
);
unicode = 109;
},
{
glyphname = n;
lastChange = "2023-07-18 08:03:51 +0000";
layers = (
{
layerId = "26F47EE3-04F7-4A34-AF6F-5DD15DA624B5";
shapes = (
{
closed = 1;
nodes = (
(114,426,l),
(114,433,l),
(114,485,l),
(45,485,l),
(45,0,l),
(114,0,l)
);
},
{
closed = 1;
nodes = (
(288,406,ls),
(288,459,o),
(262,485,o),
(209,485,cs),
(169,485,ls),
(134,485,o),
(110,469,o),
(110,424,c),
(110,356,l),
(114,356,l),
(114,390,l),
(114,417,o),
(124,426,o),
(148,426,cs),
(188,426,ls),
(214,426,o),
(219,421,o),
(219,395,cs),
(219,0,l),
(288,0,l)
);
}
);
width = 333;
},
{
layerId = "13BA2761-E32F-4173-A027-E047921EE288";
shapes = (
{
closed = 1;
nodes = (
(210,404,l),
(207,404,l),
(207,499,l),
(40,499,l),
(40,0,l),
(210,0,l)
);
},
{
closed = 1;
nodes = (
(449,375,ls),
(449,450,o),
(411,499,o),
(316,499,cs),
(298,499,ls),
(235,499,o),
(204,463,o),
(204,407,cs),
(204,317,l),
(210,317,l),
(210,344,ls),
(210,365,o),
(219,374,o),
(237,374,cs),
(254,374,ls),
(271,374,o),
(279,367,o),
(279,352,cs),
(279,0,l),
(449,0,l)
);
}
);
width = 484;
}
);
unicode = 110;
},
{
glyphname = ncommaaccent;
lastChange = "2023-07-18 08:03:51 +0000";
layers = (
{
layerId = "26F47EE3-04F7-4A34-AF6F-5DD15DA624B5";
shapes = (
{
closed = 1;
nodes = (
(114,426,l),
(114,433,l),
(114,485,l),
(45,485,l),
(45,0,l),
(114,0,l)
);
},
{
closed = 1;
nodes = (
(288,406,ls),
(288,459,o),
(262,485,o),
(209,485,cs),
(169,485,ls),
(134,485,o),
(110,469,o),
(110,424,c),
(110,356,l),
(114,356,l),
(114,390,l),
(114,417,o),
(124,426,o),
(148,426,cs),
(188,426,ls),
(214,426,o),
(219,421,o),
(219,395,cs),
(219,0,l),
(288,0,l)
);
},
{
closed = 1;
nodes = (
(122,-211,l),
(149,-211,l),
(202,-90,l),
(202,-51,l),
(122,-51,l)
);
}
);
width = 333;
},
{
layerId = "13BA2761-E32F-4173-A027-E047921EE288";
shapes = (
{
closed = 1;
nodes = (
(210,404,l),
(207,404,l),
(207,499,l),
(40,499,l),
(40,0,l),
(210,0,l)
);
},
{
closed = 1;
nodes = (
(449,375,ls),
(449,450,o),
(411,499,o),
(316,499,cs),
(298,499,ls),
(235,499,o),
(204,463,o),
(204,407,cs),
(204,317,l),
(210,317,l),
(210,344,ls),
(210,365,o),
(219,374,o),
(237,374,cs),
(254,374,ls),
(271,374,o),
(279,367,o),
(279,352,cs),
(279,0,l),
(449,0,l)
);
},
{
closed = 1;
nodes = (
(162,-299,l),
(214,-299,l),
(329,-133,l),
(329,-46,l),
(162,-46,l)
);
}
);
width = 484;
}
);
unicode = 326;
},
{
glyphname = o;
lastChange = "2023-07-18 08:03:51 +0000";
layers = (
{
layerId = "26F47EE3-04F7-4A34-AF6F-5DD15DA624B5";
shapes = (
{
closed = 1;
nodes = (
(300,141,l),
(300,406,ls),
(300,459,o),
(274,485,o),
(221,485,cs),
(167,485,l),
(167,426,l),
(201,426,ls),
(227,426,o),
(232,421,o),
(232,395,cs),
(232,141,l)
);
},
{
closed = 1;
nodes = (
(232,64,o),
(227,59,o),
(201,59,cs),
(160,59,l),
(160,0,l),
(221,0,ls),
(274,0,o),
(300,26,o),
(300,79,cs),
(300,191,l),
(232,191,l),
(232,90,l)
);
},
{
closed = 1;
nodes = (
(108,421,o),
(113,426,o),
(139,426,cs),
(173,426,l),
(173,485,l),
(119,485,ls),
(66,485,o),
(40,459,o),
(40,406,cs),
(40,140,l),
(108,140,l),
(108,395,l)
);
},
{
closed = 1;
nodes = (
(40,199,l),
(40,79,ls),
(40,26,o),
(66,0,o),
(119,0,cs),
(170,0,l),
(170,59,l),
(139,59,ls),
(113,59,o),
(108,64,o),
(108,90,cs),
(108,199,l)
);
}
);
width = 340;
},
{
layerId = "13BA2761-E32F-4173-A027-E047921EE288";
shapes = (
{
closed = 1;
nodes = (
(446,231,l),
(446,375,ls),
(446,450,o),
(411,499,o),
(304,499,cs),
(239,499,l),
(239,381,l),
(254,381,ls),
(271,381,o),
(279,374,o),
(279,359,cs),
(279,231,l)
);
},
{
closed = 1;
nodes = (
(279,125,o),
(271,118,o),
(254,118,cs),
(239,118,l),
(239,0,l),
(304,0,ls),
(411,0,o),
(446,49,o),
(446,124,cs),
(446,244,l),
(279,244,l),
(279,140,l)
);
},
{
closed = 1;
nodes = (
(202,374,o),
(210,381,o),
(227,381,cs),
(242,381,l),
(242,499,l),
(177,499,ls),
(70,499,o),
(35,450,o),
(35,375,cs),
(35,231,l),
(202,231,l),
(202,359,l)
);
},
{
closed = 1;
nodes = (
(35,244,l),
(35,124,ls),
(35,49,o),
(70,0,o),
(177,0,cs),
(242,0,l),
(242,118,l),
(227,118,ls),
(210,118,o),
(202,125,o),
(202,140,cs),
(202,244,l)
);
}
);
width = 481;
}
);
unicode = 111;
},
{
glyphname = oslash;
lastChange = "2023-07-18 08:03:51 +0000";
layers = (
{
layerId = "26F47EE3-04F7-4A34-AF6F-5DD15DA624B5";
shapes = (
{
closed = 1;
nodes = (
(305,459,o),
(279,485,o),
(226,485,cs),
(124,485,ls),
(71,485,o),
(45,459,o),
(45,406,cs),
(45,79,ls),
(45,26,o),
(71,0,o),
(124,0,cs),
(226,0,ls),
(279,0,o),
(305,26,o),
(305,79,cs),
(305,406,l)
);
},
{
closed = 1;
nodes = (
(239,58,o),
(234,53,o),
(207,53,cs),
(143,53,ls),
(116,53,o),
(111,58,o),
(111,85,cs),
(111,400,ls),
(111,427,o),
(116,432,o),
(143,432,cs),
(207,432,l),
(234,432,o),
(239,427,o),
(239,400,cs),
(239,85,l)
);
},
{
closed = 1;
nodes = (
(45,-20,l),
(93,-20,l),
(305,505,l),
(257,505,l)
);
}
);
width = 350;
},
{
layerId = "13BA2761-E32F-4173-A027-E047921EE288";
shapes = (
{
closed = 1;
nodes = (
(446,450,o),
(411,499,o),
(304,499,cs),
(177,499,ls),
(70,499,o),
(35,450,o),
(35,375,cs),
(35,124,ls),
(35,49,o),
(70,0,o),
(177,0,cs),
(304,0,ls),
(411,0,o),
(446,49,o),
(446,124,cs),
(446,375,l)
);
},
{
closed = 1;
nodes = (
(284,120,o),
(276,113,o),
(259,113,cs),
(222,113,ls),
(205,113,o),
(197,120,o),
(197,135,cs),
(197,364,ls),
(197,379,o),
(205,386,o),
(222,386,cs),
(259,386,ls),
(276,386,o),
(284,379,o),
(284,364,cs),
(284,135,l)
);
},
{
closed = 1;
nodes = (
(25,-20,l),
(99,-20,l),
(457,519,l),
(383,519,l)
);
}
);
width = 481;
}
);
unicode = 248;
},
{
glyphname = oe;
lastChange = "2023-07-18 08:03:51 +0000";
layers = (
{
layerId = "26F47EE3-04F7-4A34-AF6F-5DD15DA624B5";
shapes = (
{
closed = 1;
nodes = (
(195,0,ls),
(227,0,o),
(247,20,o),
(252,38,c),
(257,20,o),
(278,0,o),
(307,0,cs),
(387,0,ls),
(440,0,o),
(466,26,o),
(466,79,cs),
(466,134,l),
(397,134,l),
(397,90,ls),
(397,64,o),
(392,59,o),
(366,59,cs),
(319,59,ls),
(293,59,o),
(288,64,o),
(288,90,cs),
(288,395,ls),
(288,421,o),
(293,426,o),
(319,426,cs),
(369,426,ls),
(395,426,o),
(400,421,o),
(400,395,cs),
(400,219,l),
(469,219,l),
(469,406,ls),
(469,459,o),
(443,485,o),
(390,485,cs),
(307,485,ls),
(278,485,o),
(257,465,o),
(252,447,c),
(247,465,o),
(227,485,o),
(195,485,cs),
(124,485,ls),
(71,485,o),
(45,459,o),
(45,406,cs),
(45,79,ls),
(45,26,o),
(71,0,o),
(124,0,cs)
);
},
{
closed = 1;
nodes = (
(114,421,o),
(119,426,o),
(145,426,cs),
(185,426,ls),
(207,426,o),
(217,418,o),
(219,396,c),
(219,89,l),
(217,66,o),
(207,59,o),
(185,59,cs),
(145,59,ls),
(119,59,o),
(114,64,o),
(114,90,cs),
(114,395,l)
);
},
{
closed = 1;
nodes = (
(249,278,l),
(249,219,l),
(469,219,l),
(469,278,l)
);
}
);
width = 518;
},
{
layerId = "13BA2761-E32F-4173-A027-E047921EE288";
shapes = (
{
closed = 1;
nodes = (
(235,0,ls),
(283,0,o),
(330,21,o),
(349,56,c),
(370,21,o),
(411,0,o),
(480,0,cs),
(543,0,ls),
(650,0,o),
(690,49,o),
(690,124,cs),
(690,167,l),
(525,167,l),
(525,142,ls),
(525,127,o),
(517,120,o),
(500,120,cs),
(464,120,ls),
(447,120,o),
(439,127,o),
(439,142,cs),
(439,357,ls),
(439,372,o),
(447,379,o),
(464,379,cs),
(500,379,ls),
(517,379,o),
(525,372,o),
(525,357,cs),
(525,223,l),
(690,223,l),
(690,375,ls),
(690,450,o),
(650,499,o),
(543,499,cs),
(481,499,ls),
(412,499,o),
(371,478,o),
(350,443,c),
(331,478,o),
(284,499,o),
(236,499,cs),
(168,499,ls),
(73,499,o),
(35,450,o),
(35,375,cs),
(35,124,ls),
(35,49,o),
(73,0,o),
(168,0,c)
);
},
{
closed = 1;
nodes = (
(205,367,o),
(213,374,o),
(230,374,cs),
(247,374,ls),
(265,374,o),
(274,365,o),
(274,344,cs),
(274,155,ls),
(274,134,o),
(265,125,o),
(247,125,cs),
(230,125,ls),
(213,125,o),
(205,132,o),
(205,147,cs),
(205,352,l)
);
},
{
closed = 1;
nodes = (
(315,300,l),
(315,201,l),
(690,201,l),
(690,300,l)
);
}
);
width = 833;
}
);
unicode = 339;
},
{
glyphname = p;
lastChange = "2023-07-18 08:03:51 +0000";
layers = (
{
layerId = "26F47EE3-04F7-4A34-AF6F-5DD15DA624B5";
shapes = (
{
closed = 1;
nodes = (
(288,406,ls),
(288,459,o),
(262,485,o),
(209,485,cs),
(169,485,ls),
(134,485,o),
(110,469,o),
(110,424,cs),
(110,356,l),
(114,356,l),
(114,390,ls),
(114,417,o),
(124,426,o),
(148,426,cs),
(188,426,ls),
(214,426,o),
(219,421,o),
(219,395,cs),
(219,224,l),
(288,224,l)
);
},
{
closed = 1;
nodes = (
(114,424,l),
(114,437,l),
(114,485,l),
(45,485,l),
(45,-141,l),
(114,-141,l)
);
},
{
closed = 1;
nodes = (
(219,90,ls),
(219,64,o),
(214,59,o),
(188,59,cs),
(148,59,ls),
(124,59,o),
(114,68,o),
(114,95,cs),
(114,118,l),
(110,117,l),
(110,61,ls),
(110,16,o),
(134,0,o),
(169,0,cs),
(209,0,ls),
(262,0,o),
(288,26,o),
(288,79,cs),
(288,262,l),
(219,262,l)
);
}
);
width = 328;
},
{
layerId = "13BA2761-E32F-4173-A027-E047921EE288";
shapes = (
{
closed = 1;
nodes = (
(449,375,ls),
(449,450,o),
(411,499,o),
(316,499,cs),
(298,499,ls),
(235,499,o),
(204,463,o),
(204,407,cs),
(204,317,l),
(210,317,l),
(210,344,ls),
(210,365,o),
(219,374,o),
(237,374,cs),
(254,374,ls),
(271,374,o),
(279,367,o),
(279,352,cs),
(279,240,l),
(449,240,l)
);
},
{
closed = 1;
nodes = (
(210,404,l),
(207,404,l),
(207,499,l),
(40,499,l),
(40,-129,l),
(210,-129,l)
);
},
{
closed = 1;
nodes = (
(279,147,ls),
(279,132,o),
(271,125,o),
(254,125,cs),
(237,125,ls),
(219,125,o),
(210,134,o),
(210,155,cs),
(210,182,l),
(204,182,l),
(204,92,ls),
(204,36,o),
(235,0,o),
(298,0,cs),
(316,0,ls),
(411,0,o),
(449,49,o),
(449,124,cs),
(449,259,l),
(279,259,l)
);
}
);
width = 479;
}
);
unicode = 112;
},
{
glyphname = thorn;
lastChange = "2023-07-18 08:03:51 +0000";
layers = (
{
layerId = "26F47EE3-04F7-4A34-AF6F-5DD15DA624B5";
shapes = (
{
closed = 1;
nodes = (
(288,406,ls),
(288,459,o),
(262,485,o),
(209,485,cs),
(169,485,ls),
(134,485,o),
(110,469,o),
(110,424,cs),
(110,356,l),
(114,356,l),
(114,390,ls),
(114,417,o),
(124,426,o),
(148,426,cs),
(188,426,ls),
(214,426,o),
(219,421,o),
(219,395,cs),
(219,224,l),
(288,224,l)
);
},
{
closed = 1;
nodes = (
(114,424,l),
(114,437,l),
(114,669,l),
(45,669,l),
(45,-141,l),
(114,-141,l)
);
},
{
closed = 1;
nodes = (
(219,90,ls),
(219,64,o),
(214,59,o),
(188,59,cs),
(148,59,ls),
(124,59,o),
(114,68,o),
(114,95,cs),
(114,118,l),
(110,117,l),
(110,61,ls),
(110,16,o),
(134,0,o),
(169,0,cs),
(209,0,ls),
(262,0,o),
(288,26,o),
(288,79,cs),
(288,262,l),
(219,262,l)
);
}
);
width = 328;
},
{
layerId = "13BA2761-E32F-4173-A027-E047921EE288";
shapes = (
{
closed = 1;
nodes = (
(443,375,ls),
(443,450,o),
(405,499,o),
(310,499,cs),
(292,499,ls),
(229,499,o),
(198,463,o),
(198,407,cs),
(198,317,l),
(204,317,l),
(204,344,ls),
(204,365,o),
(213,374,o),
(231,374,cs),
(248,374,ls),
(265,374,o),
(273,367,o),
(273,352,cs),
(273,240,l),
(443,240,l)
);
},
{
closed = 1;
nodes = (
(204,404,l),
(201,404,l),
(201,669,l),
(34,669,l),
(34,-129,l),
(204,-129,l)
);
},
{
closed = 1;
nodes = (
(273,147,ls),
(273,132,o),
(265,125,o),
(248,125,cs),
(231,125,ls),
(213,125,o),
(204,134,o),
(204,155,cs),
(204,182,l),
(198,182,l),
(198,92,ls),
(198,36,o),
(229,0,o),
(292,0,cs),
(310,0,ls),
(405,0,o),
(443,49,o),
(443,124,cs),
(443,259,l),
(273,259,l)
);
}
);
width = 489;
}
);
unicode = 254;
},
{
glyphname = q;
lastChange = "2023-07-18 08:03:51 +0000";
layers = (
{
layerId = "26F47EE3-04F7-4A34-AF6F-5DD15DA624B5";
shapes = (
{
closed = 1;
nodes = (
(109,395,ls),
(109,421,o),
(114,426,o),
(140,426,cs),
(180,426,ls),
(204,426,o),
(214,417,o),
(214,390,cs),
(214,356,l),
(218,356,l),
(218,424,ls),
(218,469,o),
(194,485,o),
(159,485,cs),
(119,485,ls),
(66,485,o),
(40,459,o),
(40,406,cs),
(40,224,l),
(109,224,l)
);
},
{
closed = 1;
nodes = (
(283,485,l),
(214,485,l),
(214,437,l),
(214,424,l),
(214,-141,l),
(283,-141,l)
);
},
{
closed = 1;
nodes = (
(40,79,ls),
(40,26,o),
(66,0,o),
(119,0,cs),
(159,0,ls),
(194,0,o),
(218,16,o),
(218,61,cs),
(218,117,l),
(214,118,l),
(214,95,ls),
(214,68,o),
(204,59,o),
(180,59,cs),
(140,59,ls),
(114,59,o),
(109,64,o),
(109,90,cs),
(109,262,l),
(40,262,l)
);
}
);
width = 328;
},
{
layerId = "13BA2761-E32F-4173-A027-E047921EE288";
shapes = (
{
closed = 1;
nodes = (
(200,352,ls),
(200,367,o),
(208,374,o),
(225,374,cs),
(242,374,ls),
(260,374,o),
(269,365,o),
(269,344,cs),
(269,317,l),
(275,317,l),
(275,407,ls),
(275,463,o),
(244,499,o),
(181,499,cs),
(163,499,ls),
(68,499,o),
(30,450,o),
(30,375,cs),
(30,240,l),
(200,240,l)
);
},
{
closed = 1;
nodes = (
(439,499,l),
(272,499,l),
(272,404,l),
(269,404,l),
(269,-129,l),
(439,-129,l)
);
},
{
closed = 1;
nodes = (
(30,124,ls),
(30,49,o),
(68,0,o),
(163,0,cs),
(181,0,ls),
(244,0,o),
(275,36,o),
(275,92,cs),
(275,182,l),
(269,182,l),
(269,155,ls),
(269,134,o),
(260,125,o),
(242,125,cs),
(225,125,ls),
(208,125,o),
(200,132,o),
(200,147,cs),
(200,259,l),
(30,259,l)
);
}
);
width = 479;
}
);
unicode = 113;
},
{
glyphname = r;
lastChange = "2023-07-18 08:03:51 +0000";
layers = (
{
layerId = "26F47EE3-04F7-4A34-AF6F-5DD15DA624B5";
shapes = (
{
closed = 1;
nodes = (
(186,485,ls),
(135,485,o),
(110,438,o),
(110,404,c),
(110,331,l),
(114,331,l),
(114,350,l),
(114,401,o),
(133,425,o),
(177,425,cs),
(207,425,l),
(207,485,l)
);
},
{
closed = 1;
nodes = (
(114,395,l),
(114,400,l),
(114,485,l),
(45,485,l),
(45,0,l),
(114,0,l)
);
}
);
width = 212;
},
{
layerId = "13BA2761-E32F-4173-A027-E047921EE288";
shapes = (
{
closed = 1;
nodes = (
(315,504,ls),
(245,504,o),
(204,459,o),
(204,392,cs),
(204,261,l),
(210,261,l),
(210,288,ls),
(210,332,o),
(232,356,o),
(273,356,cs),
(330,356,l),
(330,504,l)
);
},
{
closed = 1;
nodes = (
(210,404,l),
(207,384,l),
(207,499,l),
(40,499,l),
(40,0,l),
(210,0,l)
);
}
);
width = 335;
}
);
unicode = 114;
},
{
glyphname = rcommaaccent;
lastChange = "2023-07-18 08:03:51 +0000";
layers = (
{
layerId = "26F47EE3-04F7-4A34-AF6F-5DD15DA624B5";
shapes = (
{
closed = 1;
nodes = (
(186,485,ls),
(135,485,o),
(110,438,o),
(110,404,c),
(110,331,l),
(114,331,l),
(114,350,l),
(114,401,o),
(133,425,o),
(177,425,cs),
(207,425,l),
(207,485,l)
);
},
{
closed = 1;
nodes = (
(114,395,l),
(114,400,l),
(114,485,l),
(45,485,l),
(45,0,l),
(114,0,l)
);
},
{
closed = 1;
nodes = (
(42,-211,l),
(69,-211,l),
(122,-90,l),
(122,-51,l),
(42,-51,l)
);
}
);
width = 212;
},
{
layerId = "13BA2761-E32F-4173-A027-E047921EE288";
shapes = (
{
closed = 1;
nodes = (
(315,504,ls),
(245,504,o),
(204,459,o),
(204,392,cs),
(204,261,l),
(210,261,l),
(210,288,ls),
(210,332,o),
(232,356,o),
(273,356,cs),
(330,356,l),
(330,504,l)
);
},
{
closed = 1;
nodes = (
(210,404,l),
(207,384,l),
(207,499,l),
(40,499,l),
(40,0,l),
(210,0,l)
);
},
{
closed = 1;
nodes = (
(41,-299,l),
(93,-299,l),
(208,-133,l),
(208,-46,l),
(41,-46,l)
);
}
);
width = 335;
}
);
unicode = 343;
},
{
glyphname = s;
lastChange = "2023-07-18 08:03:51 +0000";
layers = (
{
layerId = "26F47EE3-04F7-4A34-AF6F-5DD15DA624B5";
shapes = (
{
closed = 1;
nodes = (
(194,63,o),
(189,58,o),
(163,58,c),
(136,58,ls),
(110,58,o),
(105,63,o),
(105,89,cs),
(105,128,l),
(37,128,l),
(37,79,ls),
(37,26,o),
(63,0,o),
(116,0,cs),
(183,0,ls),
(236,0,o),
(262,26,o),
(262,79,cs),
(262,191,ls),
(262,244,o),
(236,270,o),
(183,270,cs),
(134,270,ls),
(108,270,o),
(103,275,o),
(103,301,cs),
(103,396,ls),
(103,422,o),
(108,427,o),
(134,427,cs),
(162,427,ls),
(188,427,o),
(193,422,o),
(193,396,cs),
(193,357,l),
(261,357,l),
(261,406,ls),
(261,459,o),
(235,485,o),
(182,485,cs),
(114,485,ls),
(61,485,o),
(35,459,o),
(35,406,cs),
(35,291,ls),
(35,238,o),
(61,212,o),
(114,212,cs),
(163,212,ls),
(189,212,o),
(194,207,o),
(194,181,cs),
(194,89,l)
);
}
);
width = 297;
},
{
layerId = "13BA2761-E32F-4173-A027-E047921EE288";
shapes = (
{
closed = 1;
nodes = (
(255,117,o),
(247,110,o),
(230,110,cs),
(218,110,ls),
(201,110,o),
(193,117,o),
(193,132,cs),
(193,165,l),
(28,165,l),
(28,124,ls),
(28,49,o),
(68,0,o),
(175,0,cs),
(273,0,ls),
(380,0,o),
(420,49,o),
(420,124,cs),
(420,179,ls),
(420,254,o),
(383,301,o),
(276,301,cs),
(215,301,ls),
(198,301,o),
(190,308,o),
(190,323,cs),
(190,367,ls),
(190,382,o),
(198,389,o),
(215,389,cs),
(225,389,ls),
(242,389,o),
(250,382,o),
(250,367,cs),
(250,333,l),
(412,333,l),
(412,375,ls),
(412,450,o),
(372,499,o),
(265,499,cs),
(172,499,ls),
(65,499,o),
(25,450,o),
(25,375,cs),
(25,317,ls),
(25,242,o),
(62,194,o),
(169,194,cs),
(230,194,ls),
(247,194,o),
(255,187,o),
(255,172,cs),
(255,132,l)
);
}
);
width = 445;
}
);
unicode = 115;
},
{
glyphname = scedilla;
lastChange = "2023-07-18 08:03:51 +0000";
layers = (
{
layerId = "26F47EE3-04F7-4A34-AF6F-5DD15DA624B5";
shapes = (
{
closed = 1;
nodes = (
(194,63,o),
(189,58,o),
(163,58,c),
(136,58,ls),
(110,58,o),
(105,63,o),
(105,89,cs),
(105,128,l),
(37,128,l),
(37,79,ls),
(37,26,o),
(63,0,o),
(116,0,cs),
(183,0,ls),
(236,0,o),
(262,26,o),
(262,79,cs),
(262,191,ls),
(262,244,o),
(236,270,o),
(183,270,cs),
(134,270,ls),
(108,270,o),
(103,275,o),
(103,301,cs),
(103,396,ls),
(103,422,o),
(108,427,o),
(134,427,cs),
(162,427,ls),
(188,427,o),
(193,422,o),
(193,396,cs),
(193,357,l),
(261,357,l),
(261,406,ls),
(261,459,o),
(235,485,o),
(182,485,cs),
(114,485,ls),
(61,485,o),
(35,459,o),
(35,406,cs),
(35,291,ls),
(35,238,o),
(61,212,o),
(114,212,cs),
(163,212,ls),
(189,212,o),
(194,207,o),
(194,181,cs),
(194,89,l)
);
},
{
closed = 1;
nodes = (
(108,-211,l),
(135,-211,l),
(188,-90,l),
(188,-51,l),
(108,-51,l)
);
}
);
width = 297;
},
{
layerId = "13BA2761-E32F-4173-A027-E047921EE288";
shapes = (
{
closed = 1;
nodes = (
(255,117,o),
(247,110,o),
(230,110,cs),
(218,110,ls),
(201,110,o),
(193,117,o),
(193,132,cs),
(193,165,l),
(28,165,l),
(28,124,ls),
(28,49,o),
(68,0,o),
(175,0,cs),
(273,0,ls),
(380,0,o),
(420,49,o),
(420,124,cs),
(420,179,ls),
(420,254,o),
(383,301,o),
(276,301,cs),
(215,301,ls),
(198,301,o),
(190,308,o),
(190,323,cs),
(190,367,ls),
(190,382,o),
(198,389,o),
(215,389,cs),
(225,389,ls),
(242,389,o),
(250,382,o),
(250,367,cs),
(250,333,l),
(412,333,l),
(412,375,ls),
(412,450,o),
(372,499,o),
(265,499,cs),
(172,499,ls),
(65,499,o),
(25,450,o),
(25,375,cs),
(25,317,ls),
(25,242,o),
(62,194,o),
(169,194,cs),
(230,194,ls),
(247,194,o),
(255,187,o),
(255,172,cs),
(255,132,l)
);
},
{
closed = 1;
nodes = (
(138,-299,l),
(190,-299,l),
(305,-133,l),
(305,-46,l),
(138,-46,l)
);
}
);
width = 445;
}
);
unicode = 351;
},
{
glyphname = scommaaccent;
lastChange = "2023-07-18 08:03:51 +0000";
layers = (
{
layerId = "26F47EE3-04F7-4A34-AF6F-5DD15DA624B5";
shapes = (
{
closed = 1;
nodes = (
(194,63,o),
(189,58,o),
(163,58,c),
(136,58,ls),
(110,58,o),
(105,63,o),
(105,89,cs),
(105,128,l),
(37,128,l),
(37,79,ls),
(37,26,o),
(63,0,o),
(116,0,cs),
(183,0,ls),
(236,0,o),
(262,26,o),
(262,79,cs),
(262,191,ls),
(262,244,o),
(236,270,o),
(183,270,cs),
(134,270,ls),
(108,270,o),
(103,275,o),
(103,301,cs),
(103,396,ls),
(103,422,o),
(108,427,o),
(134,427,cs),
(162,427,ls),
(188,427,o),
(193,422,o),
(193,396,cs),
(193,357,l),
(261,357,l),
(261,406,ls),
(261,459,o),
(235,485,o),
(182,485,cs),
(114,485,ls),
(61,485,o),
(35,459,o),
(35,406,cs),
(35,291,ls),
(35,238,o),
(61,212,o),
(114,212,cs),
(163,212,ls),
(189,212,o),
(194,207,o),
(194,181,cs),
(194,89,l)
);
},
{
closed = 1;
nodes = (
(125,-211,l),
(152,-211,l),
(205,-90,l),
(205,-51,l),
(125,-51,l)
);
}
);
width = 297;
},
{
layerId = "13BA2761-E32F-4173-A027-E047921EE288";
shapes = (
{
closed = 1;
nodes = (
(255,117,o),
(247,110,o),
(230,110,cs),
(218,110,ls),
(201,110,o),
(193,117,o),
(193,132,cs),
(193,165,l),
(28,165,l),
(28,124,ls),
(28,49,o),
(68,0,o),
(175,0,cs),
(273,0,ls),
(380,0,o),
(420,49,o),
(420,124,cs),
(420,179,ls),
(420,254,o),
(383,301,o),
(276,301,cs),
(215,301,ls),
(198,301,o),
(190,308,o),
(190,323,cs),
(190,367,ls),
(190,382,o),
(198,389,o),
(215,389,cs),
(225,389,ls),
(242,389,o),
(250,382,o),
(250,367,cs),
(250,333,l),
(412,333,l),
(412,375,ls),
(412,450,o),
(372,499,o),
(265,499,cs),
(172,499,ls),
(65,499,o),
(25,450,o),
(25,375,cs),
(25,317,ls),
(25,242,o),
(62,194,o),
(169,194,cs),
(230,194,ls),
(247,194,o),
(255,187,o),
(255,172,cs),
(255,132,l)
);
},
{
closed = 1;
nodes = (
(128,-299,l),
(180,-299,l),
(295,-133,l),
(295,-46,l),
(128,-46,l)
);
}
);
width = 445;
}
);
unicode = 537;
},
{
glyphname = germandbls;
lastChange = "2023-07-18 08:03:51 +0000";
layers = (
{
layerId = "26F47EE3-04F7-4A34-AF6F-5DD15DA624B5";
shapes = (
{
closed = 1;
nodes = (
(184,79,ls),
(184,26,o),
(210,0,o),
(263,0,cs),
(310,0,ls),
(363,0,o),
(389,26,o),
(389,79,cs),
(389,191,ls),
(389,244,o),
(363,270,o),
(310,270,cs),
(280,270,ls),
(254,270,o),
(248,275,o),
(248,301,cs),
(248,346,ls),
(248,372,o),
(254,377,o),
(280,377,cs),
(295,377,l),
(338,377,o),
(363,400,o),
(363,442,cs),
(363,510,ls),
(363,563,o),
(337,589,o),
(284,589,cs),
(124,589,ls),
(71,589,o),
(45,563,o),
(45,510,cs),
(45,0,l),
(113,0,l),
(113,495,ls),
(113,521,o),
(119,527,o),
(145,527,cs),
(266,527,ls),
(292,527,o),
(297,521,o),
(297,495,cs),
(297,460,ls),
(297,438,o),
(291,435,o),
(257,435,cs),
(211,435,o),
(182,411,o),
(182,356,c),
(182,291,ls),
(182,238,o),
(208,212,o),
(261,212,cs),
(291,212,ls),
(317,212,o),
(322,207,o),
(322,181,cs),
(322,89,ls),
(322,63,o),
(317,58,o),
(291,58,cs),
(282,58,ls),
(256,58,o),
(251,63,o),
(251,89,cs),
(251,148,l),
(184,148,l)
);
}
);
width = 424;
},
{
layerId = "13BA2761-E32F-4173-A027-E047921EE288";
shapes = (
{
closed = 1;
nodes = (
(262,124,ls),
(262,50,o),
(299,2,o),
(402,0,c),
(528,0,ls),
(635,0,o),
(665,49,o),
(665,124,cs),
(665,184,ls),
(665,259,o),
(625,308,o),
(518,308,cs),
(458,308,ls),
(441,308,o),
(433,315,o),
(433,330,cs),
(433,337,ls),
(433,352,o),
(441,359,o),
(458,359,cs),
(484,359,ls),
(591,359,o),
(611,388,o),
(611,463,cs),
(611,526,ls),
(611,595,o),
(571,642,o),
(473,642,cs),
(182,642,ls),
(75,642,o),
(45,593,o),
(45,518,cs),
(45,0,l),
(220,0,l),
(220,495,ls),
(220,510,o),
(228,517,o),
(245,517,cs),
(404,517,ls),
(421,517,o),
(426,510,o),
(426,495,cs),
(426,479,l),
(426,464,o),
(421,457,o),
(404,457,c),
(305,457,o),
(267,420,o),
(267,345,cs),
(267,323,ls),
(267,248,o),
(297,199,o),
(404,199,cs),
(470,199,ls),
(487,199,o),
(495,192,o),
(495,177,cs),
(495,137,ls),
(495,122,o),
(487,115,o),
(470,115,cs),
(452,115,l),
(438,116,o),
(432,123,o),
(432,137,cs),
(432,163,l),
(262,163,l)
);
}
);
width = 677;
}
);
unicode = 223;
},
{
glyphname = t;
lastChange = "2023-07-18 08:03:51 +0000";
layers = (
{
layerId = "26F47EE3-04F7-4A34-AF6F-5DD15DA624B5";
shapes = (
{
closed = 1;
nodes = (
(49,564,l),
(49,79,ls),
(49,26,o),
(75,0,o),
(128,0,cs),
(187,0,l),
(187,64,l),
(149,64,ls),
(123,64,o),
(118,69,o),
(118,95,cs),
(118,564,l)
);
},
{
closed = 1;
nodes = (
(5,485,l),
(5,426,l),
(187,426,l),
(187,485,l)
);
}
);
width = 197;
},
{
layerId = "13BA2761-E32F-4173-A027-E047921EE288";
shapes = (
{
closed = 1;
nodes = (
(60,597,l),
(60,124,ls),
(60,49,o),
(100,0,o),
(207,0,cs),
(292,0,l),
(292,125,l),
(255,125,ls),
(238,125,o),
(230,132,o),
(230,147,cs),
(230,597,l)
);
},
{
closed = 1;
nodes = (
(5,499,l),
(5,374,l),
(293,374,l),
(293,499,l)
);
}
);
width = 303;
}
);
unicode = 116;
},
{
glyphname = tcaron;
lastChange = "2023-07-18 08:03:51 +0000";
layers = (
{
layerId = "26F47EE3-04F7-4A34-AF6F-5DD15DA624B5";
shapes = (
{
closed = 1;
nodes = (
(160,513,l),
(187,513,l),
(237,614,l),
(237,653,l),
(160,653,l)
);
},
{
ref = t;
}
);
width = 197;
},
{
layerId = "13BA2761-E32F-4173-A027-E047921EE288";
shapes = (
{
closed = 1;
nodes = (
(273,537,l),
(313,537,l),
(389,654,l),
(389,731,l),
(273,731,l)
);
},
{
ref = t;
}
);
width = 303;
}
);
unicode = 357;
},
{
glyphname = tcedilla;
lastChange = "2023-07-18 08:03:51 +0000";
layers = (
{
layerId = "26F47EE3-04F7-4A34-AF6F-5DD15DA624B5";
shapes = (
{
closed = 1;
nodes = (
(105,0,l),
(173,0,l),
(173,622,l),
(105,622,l)
);
},
{
closed = 1;
nodes = (
(5,622,l),
(5,563,l),
(273,563,l),
(273,622,l)
);
},
{
closed = 1;
nodes = (
(100,-211,l),
(127,-211,l),
(180,-90,l),
(180,-51,l),
(100,-51,l)
);
}
);
width = 278;
},
{
layerId = "13BA2761-E32F-4173-A027-E047921EE288";
shapes = (
{
closed = 1;
nodes = (
(128,0,l),
(303,0,l),
(303,582,l),
(128,582,l)
);
},
{
closed = 1;
nodes = (
(5,642,l),
(5,517,l),
(427,517,l),
(427,642,l)
);
},
{
closed = 1;
nodes = (
(132,-299,l),
(184,-299,l),
(299,-133,l),
(299,-46,l),
(132,-46,l)
);
}
);
width = 432;
}
);
unicode = 355;
},
{
glyphname = tcommaaccent;
lastChange = "2023-07-18 08:03:51 +0000";
layers = (
{
layerId = "26F47EE3-04F7-4A34-AF6F-5DD15DA624B5";
shapes = (
{
closed = 1;
nodes = (
(49,564,l),
(49,79,ls),
(49,26,o),
(75,0,o),
(128,0,cs),
(187,0,l),
(187,64,l),
(149,64,ls),
(123,64,o),
(118,69,o),
(118,95,cs),
(118,564,l)
);
},
{
closed = 1;
nodes = (
(5,485,l),
(5,426,l),
(187,426,l),
(187,485,l)
);
},
{
closed = 1;
nodes = (
(78,-211,l),
(105,-211,l),
(158,-90,l),
(158,-51,l),
(78,-51,l)
);
}
);
width = 197;
},
{
layerId = "13BA2761-E32F-4173-A027-E047921EE288";
shapes = (
{
closed = 1;
nodes = (
(60,597,l),
(60,124,ls),
(60,49,o),
(100,0,o),
(207,0,cs),
(292,0,l),
(292,125,l),
(255,125,ls),
(238,125,o),
(230,132,o),
(230,147,cs),
(230,597,l)
);
},
{
closed = 1;
nodes = (
(5,499,l),
(5,374,l),
(293,374,l),
(293,499,l)
);
},
{
closed = 1;
nodes = (
(82,-299,l),
(134,-299,l),
(249,-133,l),
(249,-46,l),
(82,-46,l)
);
}
);
width = 303;
}
);
unicode = 539;
},
{
glyphname = u;
lastChange = "2023-07-18 08:03:51 +0000";
layers = (
{
layerId = "26F47EE3-04F7-4A34-AF6F-5DD15DA624B5";
shapes = (
{
closed = 1;
nodes = (
(45,79,ls),
(45,26,o),
(71,0,o),
(124,0,cs),
(164,0,ls),
(199,0,o),
(223,16,o),
(223,61,cs),
(223,129,l),
(219,129,l),
(219,95,ls),
(219,68,o),
(209,59,o),
(185,59,cs),
(145,59,ls),
(119,59,o),
(114,64,o),
(114,90,cs),
(114,485,l),
(45,485,l)
);
},
{
closed = 1;
nodes = (
(219,59,l),
(219,52,l),
(219,0,l),
(288,0,l),
(288,485,l),
(219,485,l)
);
}
);
width = 333;
},
{
layerId = "13BA2761-E32F-4173-A027-E047921EE288";
shapes = (
{
closed = 1;
nodes = (
(35,124,ls),
(35,49,o),
(73,0,o),
(168,0,cs),
(186,0,ls),
(249,0,o),
(280,36,o),
(280,92,cs),
(280,182,l),
(274,182,l),
(274,155,ls),
(274,134,o),
(265,125,o),
(247,125,cs),
(230,125,ls),
(213,125,o),
(205,132,o),
(205,147,cs),
(205,499,l),
(35,499,l)
);
},
{
closed = 1;
nodes = (
(274,95,l),
(277,95,l),
(277,0,l),
(444,0,l),
(444,499,l),
(274,499,l)
);
}
);
width = 484;
}
);
unicode = 117;
},
{
glyphname = v;
lastChange = "2023-07-18 08:03:51 +0000";
layers = (
{
layerId = "26F47EE3-04F7-4A34-AF6F-5DD15DA624B5";
shapes = (
{
closed = 1;
nodes = (
(5,485,l),
(85,0,l),
(194,0,l),
(274,485,l),
(205,485,l),
(139,48,l),
(74,485,l)
);
}
);
width = 279;
},
{
layerId = "13BA2761-E32F-4173-A027-E047921EE288";
shapes = (
{
closed = 1;
nodes = (
(0,499,l),
(128,0,l),
(331,0,l),
(459,499,l),
(290,499,l),
(230,179,l),
(169,499,l)
);
}
);
width = 459;
}
);
unicode = 118;
},
{
glyphname = w;
lastChange = "2023-07-18 08:03:51 +0000";
layers = (
{
layerId = "26F47EE3-04F7-4A34-AF6F-5DD15DA624B5";
shapes = (
{
closed = 1;
nodes = (
(363,48,l),
(301,485,l),
(206,485,l),
(143,48,l),
(71,485,l),
(5,485,l),
(91,0,l),
(196,0,l),
(253,389,l),
(311,0,l),
(416,0,l),
(502,485,l),
(436,485,l)
);
}
);
width = 507;
},
{
layerId = "13BA2761-E32F-4173-A027-E047921EE288";
shapes = (
{
closed = 1;
nodes = (
(472,186,l),
(414,499,l),
(265,499,l),
(200,184,l),
(163,499,l),
(5,499,l),
(106,0,l),
(275,0,l),
(337,294,l),
(398,0,l),
(567,0,l),
(674,499,l),
(518,499,l)
);
}
);
width = 679;
}
);
unicode = 119;
},
{
glyphname = x;
lastChange = "2023-07-18 08:03:51 +0000";
layers = (
{
layerId = "26F47EE3-04F7-4A34-AF6F-5DD15DA624B5";
shapes = (
{
closed = 1;
nodes = (
(299,485,l),
(225,485,l),
(158,320,l),
(89,485,l),
(15,485,l),
(126,248,l),
(5,0,l),
(79,0,l),
(157,175,l),
(235,0,l),
(309,0,l),
(188,248,l)
);
}
);
width = 314;
},
{
layerId = "13BA2761-E32F-4173-A027-E047921EE288";
shapes = (
{
closed = 1;
nodes = (
(433,499,l),
(264,499,l),
(221,360,l),
(178,499,l),
(0,499,l),
(120,255,l),
(6,0,l),
(172,0,l),
(221,148,l),
(275,0,l),
(447,0,l),
(323,258,l)
);
}
);
width = 447;
}
);
unicode = 120;
},
{
glyphname = y;
lastChange = "2023-07-18 08:03:51 +0000";
layers = (
{
layerId = "26F47EE3-04F7-4A34-AF6F-5DD15DA624B5";
shapes = (
{
closed = 1;
nodes = (
(103,0,l),
(148,0,l),
(136,-51,ls),
(130,-76,o),
(112,-82,o),
(86,-82,cs),
(53,-82,l),
(53,-141,l),
(107,-141,ls),
(160,-141,o),
(192,-114,o),
(202,-62,cs),
(299,485,l),
(230,485,l),
(157,48,l),
(79,485,l),
(10,485,l)
);
}
);
width = 309;
},
{
layerId = "13BA2761-E32F-4173-A027-E047921EE288";
shapes = (
{
closed = 1;
nodes = (
(137,40,l),
(202,40,l),
(200,34,ls),
(189,0,o),
(169,-6,o),
(140,-6,cs),
(66,-6,l),
(66,-129,l),
(150,-129,ls),
(264,-129,o),
(313,-77,o),
(339,10,cs),
(464,499,l),
(293,499,l),
(239,195,l),
(178,499,l),
(0,499,l)
);
}
);
width = 464;
}
);
unicode = 121;
},
{
glyphname = z;
lastChange = "2023-07-18 08:03:51 +0000";
layers = (
{
layerId = "26F47EE3-04F7-4A34-AF6F-5DD15DA624B5";
shapes = (
{
closed = 1;
nodes = (
(25,485,l),
(25,426,l),
(251,426,l),
(251,485,l)
);
},
{
closed = 1;
nodes = (
(15,59,l),
(84,59,l),
(251,426,l),
(182,426,l)
);
},
{
closed = 1;
nodes = (
(15,59,l),
(15,0,l),
(251,0,l),
(251,59,l)
);
}
);
width = 266;
},
{
layerId = "13BA2761-E32F-4173-A027-E047921EE288";
shapes = (
{
closed = 1;
nodes = (
(23,499,l),
(23,380,l),
(371,380,l),
(371,499,l)
);
},
{
closed = 1;
nodes = (
(10,119,l),
(189,119,l),
(371,380,l),
(189,380,l)
);
},
{
closed = 1;
nodes = (
(10,119,l),
(10,0,l),
(381,0,l),
(381,119,l)
);
}
);
width = 391;
}
);
unicode = 122;
},
{
glyphname = fi;
lastChange = "2023-07-18 08:03:51 +0000";
layers = (
{
layerId = "26F47EE3-04F7-4A34-AF6F-5DD15DA624B5";
shapes = (
{
closed = 1;
nodes = (
(296,485,l),
(227,485,l),
(227,0,l),
(296,0,l)
);
},
{
closed = 1;
nodes = (
(122,600,o),
(127,605,o),
(153,605,cs),
(174,605,l),
(174,669,l),
(132,669,ls),
(79,669,o),
(53,643,o),
(53,590,cs),
(53,0,l),
(122,0,l),
(122,574,l)
);
},
{
closed = 1;
nodes = (
(5,485,l),
(5,426,l),
(296,426,l),
(296,485,l)
);
},
{
closed = 1;
nodes = (
(296,605,l),
(296,669,l),
(227,669,l),
(227,605,l)
);
}
);
width = 341;
},
{
layerId = "13BA2761-E32F-4173-A027-E047921EE288";
shapes = (
{
closed = 1;
nodes = (
(470,499,l),
(303,499,l),
(303,0,l),
(470,0,l)
);
},
{
closed = 1;
nodes = (
(228,544,o),
(236,551,o),
(253,551,cs),
(269,551,l),
(269,669,l),
(208,669,ls),
(101,669,o),
(61,620,o),
(61,545,cs),
(61,0,l),
(228,0,l),
(228,529,l)
);
},
{
closed = 1;
nodes = (
(10,499,l),
(10,374,l),
(373,374,l),
(373,499,l)
);
},
{
closed = 1;
nodes = (
(470,551,l),
(470,669,l),
(303,669,l),
(303,551,l)
);
}
);
width = 510;
}
);
unicode = 64257;
},
{
glyphname = fl;
lastChange = "2023-07-18 08:03:51 +0000";
layers = (
{
layerId = "26F47EE3-04F7-4A34-AF6F-5DD15DA624B5";
shapes = (
{
closed = 1;
nodes = (
(122,600,o),
(127,605,o),
(153,605,cs),
(174,605,l),
(174,669,l),
(132,669,ls),
(79,669,o),
(53,643,o),
(53,590,cs),
(53,0,l),
(122,0,l),
(122,574,l)
);
},
{
closed = 1;
nodes = (
(5,485,l),
(5,426,l),
(296,426,l),
(296,485,l)
);
},
{
closed = 1;
nodes = (
(296,669,l),
(227,669,l),
(227,0,l),
(296,0,l)
);
}
);
width = 341;
},
{
layerId = "13BA2761-E32F-4173-A027-E047921EE288";
shapes = (
{
closed = 1;
nodes = (
(228,544,o),
(236,551,o),
(253,551,cs),
(269,551,l),
(269,669,l),
(208,669,ls),
(101,669,o),
(61,620,o),
(61,545,cs),
(61,0,l),
(228,0,l),
(228,529,l)
);
},
{
closed = 1;
nodes = (
(10,499,l),
(10,374,l),
(373,374,l),
(373,499,l)
);
},
{
closed = 1;
nodes = (
(470,669,l),
(304,669,l),
(304,0,l),
(470,0,l)
);
}
);
width = 510;
}
);
unicode = 64258;
},
{
glyphname = ordfeminine;
lastChange = "2023-07-18 08:03:51 +0000";
layers = (
{
layerId = "26F47EE3-04F7-4A34-AF6F-5DD15DA624B5";
shapes = (
{
closed = 1;
nodes = (
(73,558,ls),
(73,577,o),
(77,580,o),
(96,580,cs),
(133,580,ls),
(150,580,o),
(157,573,o),
(157,554,cs),
(157,534,l),
(160,534,l),
(160,578,ls),
(160,610,o),
(143,622,o),
(118,622,cs),
(81,622,ls),
(43,622,o),
(25,604,o),
(25,566,cs),
(25,438,l),
(73,438,l)
);
},
{
closed = 1;
nodes = (
(206,622,l),
(157,622,l),
(157,582,l),
(157,577,l),
(157,280,l),
(206,280,l)
);
},
{
closed = 1;
nodes = (
(25,336,ls),
(25,298,o),
(43,280,o),
(81,280,cs),
(118,280,ls),
(143,280,o),
(160,292,o),
(160,324,cs),
(160,366,l),
(157,366,l),
(157,348,ls),
(157,329,o),
(150,323,o),
(133,323,cs),
(96,323,ls),
(77,323,o),
(73,327,o),
(73,345,cs),
(73,465,l),
(25,465,l)
);
}
);
width = 236;
},
{
layerId = "13BA2761-E32F-4173-A027-E047921EE288";
shapes = (
{
closed = 1;
nodes = (
(130,542,ls),
(130,553,o),
(135,558,o),
(147,558,cs),
(183,558,ls),
(196,558,o),
(202,551,o),
(202,537,cs),
(202,517,l),
(207,517,l),
(207,577,ls),
(207,617,o),
(191,642,o),
(146,642,cs),
(119,642,ls),
(52,642,o),
(25,608,o),
(25,554,cs),
(25,459,l),
(130,459,l)
);
},
{
closed = 1;
nodes = (
(307,642,l),
(205,642,l),
(205,575,l),
(202,575,l),
(202,289,l),
(307,289,l)
);
},
{
closed = 1;
nodes = (
(25,377,ls),
(25,324,o),
(52,289,o),
(119,289,cs),
(150,289,ls),
(195,289,o),
(207,314,o),
(207,354,cs),
(207,416,l),
(202,416,l),
(202,397,ls),
(202,382,o),
(196,375,o),
(183,375,cs),
(147,375,ls),
(135,375,o),
(130,380,o),
(130,391,cs),
(130,472,l),
(25,472,l)
);
}
);
width = 337;
}
);
unicode = 170;
},
{
glyphname = ordmasculine;
lastChange = "2023-07-18 08:03:51 +0000";
layers = (
{
layerId = "26F47EE3-04F7-4A34-AF6F-5DD15DA624B5";
shapes = (
{
closed = 1;
nodes = (
(200,379,l),
(200,566,ls),
(200,604,o),
(181,622,o),
(144,622,cs),
(115,622,l),
(115,580,l),
(129,580,ls),
(148,580,o),
(152,577,o),
(152,558,cs),
(152,379,l)
);
},
{
closed = 1;
nodes = (
(152,326,o),
(148,322,o),
(129,322,cs),
(110,322,l),
(110,280,l),
(144,280,ls),
(181,280,o),
(200,298,o),
(200,336,cs),
(200,415,l),
(152,415,l),
(152,344,l)
);
},
{
closed = 1;
nodes = (
(74,577,o),
(77,580,o),
(96,580,cs),
(129,580,l),
(129,622,l),
(82,622,ls),
(44,622,o),
(26,604,o),
(26,566,cs),
(26,379,l),
(74,379,l),
(74,558,l)
);
},
{
closed = 1;
nodes = (
(26,420,l),
(26,336,ls),
(26,298,o),
(44,280,o),
(82,280,cs),
(127,280,l),
(127,322,l),
(96,322,ls),
(77,322,o),
(74,326,o),
(74,344,cs),
(74,420,l)
);
}
);
width = 226;
},
{
layerId = "13BA2761-E32F-4173-A027-E047921EE288";
shapes = (
{
closed = 1;
nodes = (
(306,453,l),
(306,554,ls),
(306,608,o),
(281,642,o),
(205,642,cs),
(169,642,l),
(169,573,l),
(183,573,ls),
(195,573,o),
(201,568,o),
(201,557,cs),
(201,453,l)
);
},
{
closed = 1;
nodes = (
(201,362,o),
(195,358,o),
(183,358,cs),
(169,358,l),
(169,289,l),
(205,289,ls),
(281,289,o),
(306,324,o),
(306,377,cs),
(306,462,l),
(201,462,l),
(201,373,l)
);
},
{
closed = 1;
nodes = (
(130,568,o),
(136,573,o),
(148,573,cs),
(171,573,l),
(171,642,l),
(125,642,ls),
(50,642,o),
(25,608,o),
(25,554,cs),
(25,453,l),
(130,453,l),
(130,557,l)
);
},
{
closed = 1;
nodes = (
(25,462,l),
(25,377,ls),
(25,324,o),
(50,289,o),
(125,289,cs),
(171,289,l),
(171,358,l),
(148,358,ls),
(136,358,o),
(130,362,o),
(130,373,cs),
(130,462,l)
);
}
);
width = 331;
}
);
unicode = 186;
},
{
glyphname = Delta.math;
lastChange = "2023-07-18 08:03:51 +0000";
layers = (
{
layerId = "26F47EE3-04F7-4A34-AF6F-5DD15DA624B5";
shapes = (
{
closed = 1;
nodes = (
(174,622,l),
(285,622,l),
(428,67,l),
(428,0,l),
(22,0,l),
(22,64,l)
);
},
{
closed = 1;
nodes = (
(214,472,o),
(189,374,o),
(166,294,cs),
(97,59,l),
(342,59,l),
(285,292,ls),
(265,374,o),
(238,479,o),
(227,543,c),
(226,543,l)
);
}
);
width = 462;
},
{
layerId = "13BA2761-E32F-4173-A027-E047921EE288";
shapes = (
{
closed = 1;
nodes = (
(264,642,l),
(415,642,l),
(618,123,l),
(618,0,l),
(52,0,l),
(52,120,l)
);
},
{
closed = 1;
nodes = (
(321,390,o),
(303,331,o),
(276,254,cs),
(227,115,l),
(442,115,l),
(395,252,ls),
(369,327,o),
(351,393,o),
(338,457,c),
(334,457,l)
);
}
);
width = 669;
}
);
},
{
glyphname = pi;
lastChange = "2023-07-18 08:03:51 +0000";
layers = (
{
layerId = "26F47EE3-04F7-4A34-AF6F-5DD15DA624B5";
shapes = (
{
closed = 1;
nodes = (
(67,69,o),
(62,64,o),
(36,64,cs),
(0,64,l),
(0,0,l),
(57,0,ls),
(110,0,o),
(136,26,o),
(136,79,cs),
(136,455,l),
(67,455,l),
(67,95,l)
);
},
{
closed = 1;
nodes = (
(262,0,l),
(330,0,l),
(330,455,l),
(262,455,l)
);
},
{
closed = 1;
nodes = (
(0,485,l),
(0,426,l),
(400,426,l),
(400,485,l)
);
}
);
width = 400;
},
{
layerId = "13BA2761-E32F-4173-A027-E047921EE288";
shapes = (
{
closed = 1;
nodes = (
(68,132,o),
(60,125,o),
(43,125,cs),
(10,125,l),
(10,0,l),
(91,0,ls),
(198,0,o),
(238,49,o),
(238,124,cs),
(238,431,l),
(68,431,l),
(68,147,l)
);
},
{
closed = 1;
nodes = (
(314,0,l),
(489,0,l),
(489,439,l),
(314,439,l)
);
},
{
closed = 1;
nodes = (
(10,499,l),
(10,384,l),
(560,384,l),
(560,499,l)
);
}
);
width = 570;
}
);
},
{
glyphname = "a-deva";
lastChange = "2023-07-18 08:15:14 +0000";
layers = (
{
anchors = (
{
name = topmiddle;
pos = (411,622);
}
);
layerId = "26F47EE3-04F7-4A34-AF6F-5DD15DA624B5";
shapes = (
{
closed = 1;
nodes = (
(377,0,l),
(445,0,l),
(445,622,l),
(377,622,l)
);
},
{
closed = 1;
nodes = (
(230,289,l),
(424,289,l),
(424,347,l),
(189,347,l)
);
},
{
closed = 1;
nodes = (
(399,563,l),
(520,563,l),
(520,622,l),
(399,622,l)
);
},
{
closed = 1;
nodes = (
(109,622,ls),
(56,622,o),
(30,596,o),
(30,543,cs),
(30,447,l),
(99,447,l),
(99,532,ls),
(99,558,o),
(104,563,o),
(130,563,cs),
(171,563,ls),
(197,563,o),
(202,558,o),
(202,532,cs),
(202,411,ls),
(202,385,o),
(194,377,o),
(168,377,cs),
(100,377,l),
(100,318,l),
(168,318,ls),
(194,318,o),
(202,310,o),
(202,284,cs),
(202,168,ls),
(202,142,o),
(197,137,o),
(171,137,cs),
(130,137,ls),
(104,137,o),
(99,142,o),
(99,168,cs),
(99,253,l),
(30,253,l),
(30,157,ls),
(30,104,o),
(56,78,o),
(109,78,cs),
(192,78,ls),
(245,78,o),
(271,104,o),
(271,157,cs),
(271,301,l),
(271,330,o),
(257,345,o),
(234,347,c),
(234,349,l),
(257,351,o),
(271,367,o),
(271,396,cs),
(271,543,ls),
(271,596,o),
(245,622,o),
(192,622,c)
);
}
);
width = 500;
},
{
anchors = (
{
name = topmiddle;
pos = (605,642);
}
);
layerId = "13BA2761-E32F-4173-A027-E047921EE288";
shapes = (
{
closed = 1;
nodes = (
(520,0,l),
(690,0,l),
(690,642,l),
(520,642,l)
);
},
{
closed = 1;
nodes = (
(361,255,l),
(567,255,l),
(567,368,l),
(320,368,l)
);
},
{
closed = 1;
nodes = (
(659,529,l),
(750,529,l),
(750,642,l),
(659,642,l)
);
},
{
closed = 1;
nodes = (
(191,647,ls),
(82,647,o),
(51,603,o),
(51,530,cs),
(51,458,l),
(221,458,l),
(221,514,ls),
(221,529,o),
(229,534,o),
(244,534,cs),
(260,534,ls),
(275,534,o),
(283,529,o),
(283,514,cs),
(283,443,ls),
(283,424,o),
(275,419,o),
(260,419,cs),
(227,419,l),
(227,306,l),
(260,306,ls),
(275,306,o),
(283,301,o),
(283,282,cs),
(283,211,ls),
(283,196,o),
(275,191,o),
(260,191,cs),
(244,191,ls),
(229,191,o),
(221,196,o),
(221,211,cs),
(221,277,l),
(51,277,l),
(51,195,ls),
(51,122,o),
(82,78,o),
(191,78,cs),
(313,78,ls),
(422,78,o),
(453,122,o),
(453,195,cs),
(453,304,ls),
(453,341,o),
(436,356,o),
(406,360,c),
(406,365,l),
(436,369,o),
(453,384,o),
(453,421,cs),
(453,530,ls),
(453,603,o),
(422,647,o),
(313,647,c)
);
}
);
width = 730;
}
);
unicode = 2309;
},
{
glyphname = "i-deva";
lastChange = "2023-07-18 08:18:01 +0000";
layers = (
{
anchors = (
{
name = abvm.bindu;
pos = (284,622);
}
);
layerId = "26F47EE3-04F7-4A34-AF6F-5DD15DA624B5";
shapes = (
{
closed = 1;
nodes = (
(-20,563,l),
(360,563,l),
(360,622,l),
(-20,622,l)
);
},
{
closed = 1;
nodes = (
(48,0,l),
(117,0,l),
(117,190,l),
(48,190,l)
);
},
{
closed = 1;
nodes = (
(215,485,l),
(114,485,ls),
(61,485,o),
(35,459,o),
(35,406,cs),
(35,344,ls),
(35,291,o),
(61,265,o),
(114,265,cs),
(195,265,ls),
(221,265,o),
(226,260,o),
(226,234,cs),
(226,168,ls),
(226,142,o),
(221,137,o),
(195,137,cs),
(82,137,l),
(82,78,l),
(216,78,ls),
(269,78,o),
(295,104,o),
(295,157,cs),
(295,245,ls),
(295,298,o),
(269,324,o),
(216,324,cs),
(135,324,ls),
(109,324,o),
(104,329,o),
(104,355,cs),
(104,395,ls),
(104,421,o),
(109,426,o),
(135,426,cs),
(284,426,l),
(284,594,l),
(215,594,l)
);
}
);
width = 340;
},
{
anchors = (
{
name = abvm.bindu;
pos = (414,642);
}
);
layerId = "13BA2761-E32F-4173-A027-E047921EE288";
shapes = (
{
closed = 1;
nodes = (
(-20,529,l),
(482,529,l),
(482,642,l),
(-20,642,l)
);
},
{
closed = 1;
nodes = (
(30,-62,l),
(200,-62,l),
(200,165,l),
(30,165,l)
);
},
{
closed = 1;
nodes = (
(244,472,l),
(170,472,ls),
(61,472,o),
(30,438,o),
(30,365,cs),
(30,309,ls),
(30,236,o),
(61,202,o),
(170,202,cs),
(239,202,ls),
(254,202,o),
(262,197,o),
(262,182,cs),
(262,123,ls),
(262,108,o),
(254,103,o),
(239,103,cs),
(172,103,l),
(172,0,l),
(292,0,ls),
(401,0,o),
(432,34,o),
(432,107,cs),
(432,198,ls),
(432,271,o),
(401,305,o),
(292,305,cs),
(223,305,ls),
(208,305,o),
(200,310,o),
(200,325,cs),
(200,349,ls),
(200,364,o),
(208,369,o),
(223,369,cs),
(414,369,l),
(414,593,l),
(244,593,l)
);
}
);
width = 462;
}
);
unicode = 2311;
},
{
glyphname = "ii-deva";
lastChange = "2023-07-18 08:15:14 +0000";
layers = (
{
layerId = "26F47EE3-04F7-4A34-AF6F-5DD15DA624B5";
shapes = (
{
closed = 1;
nodes = (
(-20,563,l),
(360,563,l),
(360,622,l),
(-20,622,l)
);
},
{
closed = 1;
nodes = (
(48,0,l),
(117,0,l),
(117,190,l),
(48,190,l)
);
},
{
closed = 1;
nodes = (
(215,485,l),
(114,485,ls),
(61,485,o),
(35,459,o),
(35,406,cs),
(35,344,ls),
(35,291,o),
(61,265,o),
(114,265,cs),
(195,265,ls),
(221,265,o),
(226,260,o),
(226,234,cs),
(226,168,ls),
(226,142,o),
(221,137,o),
(195,137,cs),
(82,137,l),
(82,78,l),
(216,78,ls),
(269,78,o),
(295,104,o),
(295,157,cs),
(295,245,ls),
(295,298,o),
(269,324,o),
(216,324,cs),
(135,324,ls),
(109,324,o),
(104,329,o),
(104,355,cs),
(104,395,ls),
(104,421,o),
(109,426,o),
(135,426,cs),
(284,426,l),
(284,594,l),
(215,594,l)
);
},
{
closed = 1;
nodes = (
(349,773,l),
(294,773,ls),
(241,773,o),
(215,748,o),
(215,695,cs),
(215,609,l),
(284,609,l),
(284,684,ls),
(284,710,o),
(289,714,o),
(315,714,cs),
(349,714,l)
);
}
);
width = 340;
},
{
layerId = "13BA2761-E32F-4173-A027-E047921EE288";
shapes = (
{
closed = 1;
nodes = (
(-20,529,l),
(482,529,l),
(482,642,l),
(-20,642,l)
);
},
{
closed = 1;
nodes = (
(30,-62,l),
(200,-62,l),
(200,165,l),
(30,165,l)
);
},
{
closed = 1;
nodes = (
(244,472,l),
(170,472,ls),
(61,472,o),
(30,438,o),
(30,365,cs),
(30,309,ls),
(30,236,o),
(61,202,o),
(170,202,cs),
(239,202,ls),
(254,202,o),
(262,197,o),
(262,182,cs),
(262,123,ls),
(262,108,o),
(254,103,o),
(239,103,cs),
(172,103,l),
(172,0,l),
(292,0,ls),
(401,0,o),
(432,34,o),
(432,107,cs),
(432,198,ls),
(432,271,o),
(401,305,o),
(292,305,cs),
(223,305,ls),
(208,305,o),
(200,310,o),
(200,325,cs),
(200,349,ls),
(200,364,o),
(208,369,o),
(223,369,cs),
(414,369,l),
(414,593,l),
(244,593,l)
);
},
{
closed = 1;
nodes = (
(490,812,l),
(384,812,ls),
(275,812,o),
(244,778,o),
(244,705,cs),
(244,632,l),
(414,632,l),
(414,689,ls),
(414,704,o),
(422,709,o),
(437,709,cs),
(490,709,l)
);
}
);
width = 462;
}
);
unicode = 2312;
},
{
glyphname = "u-deva";
lastChange = "2023-07-18 08:17:57 +0000";
layers = (
{
anchors = (
{
name = abvm.bindu;
pos = (269,622);
}
);
layerId = "26F47EE3-04F7-4A34-AF6F-5DD15DA624B5";
shapes = (
{
closed = 1;
nodes = (
(-20,563,l),
(344,563,l),
(344,622,l),
(-20,622,l)
);
},
{
closed = 1;
nodes = (
(269,536,ls),
(269,564,o),
(256,571,o),
(234,571,c),
(154,563,l),
(198,563,o),
(200,559,o),
(200,531,cs),
(200,416,ls),
(200,390,o),
(195,385,o),
(169,385,cs),
(84,385,l),
(84,326,l),
(169,326,ls),
(195,326,o),
(200,321,o),
(200,295,cs),
(200,90,ls),
(200,64,o),
(195,59,o),
(169,59,cs),
(125,59,ls),
(99,59,o),
(94,64,o),
(94,90,cs),
(94,206,l),
(25,206,l),
(25,79,ls),
(25,26,o),
(51,0,o),
(104,0,cs),
(190,0,ls),
(243,0,o),
(269,26,o),
(269,79,cs),
(269,311,ls),
(269,340,o),
(255,355,o),
(232,357,c),
(232,359,l),
(255,361,o),
(269,377,o),
(269,406,c)
);
}
);
width = 324;
},
{
anchors = (
{
name = abvm.bindu;
pos = (422,642);
}
);
layerId = "13BA2761-E32F-4173-A027-E047921EE288";
shapes = (
{
closed = 1;
nodes = (
(-20,529,l),
(482,529,l),
(482,642,l),
(-20,642,l)
);
},
{
closed = 1;
nodes = (
(422,504,ls),
(422,550,o),
(378,557,o),
(312,557,c),
(218,529,l),
(244,529,o),
(252,521,o),
(252,495,cs),
(252,427,ls),
(252,408,o),
(244,403,o),
(229,403,cs),
(185,403,l),
(185,290,l),
(229,290,ls),
(244,290,o),
(252,285,o),
(252,266,cs),
(252,123,ls),
(252,108,o),
(244,103,o),
(229,103,cs),
(207,103,ls),
(198,103,o),
(190,108,o),
(190,123,cs),
(190,223,l),
(20,223,l),
(20,107,ls),
(20,34,o),
(51,0,o),
(160,0,cs),
(282,0,ls),
(391,0,o),
(422,34,o),
(422,107,cs),
(422,288,ls),
(422,325,o),
(405,340,o),
(375,344,c),
(375,349,l),
(405,353,o),
(422,368,o),
(422,405,c)
);
}
);
width = 471;
}
);
unicode = 2313;
},
{
glyphname = "uu-deva";
lastChange = "2023-07-18 08:15:14 +0000";
layers = (
{
anchors = (
{
name = abvm.bindu;
pos = (269,622);
}
);
layerId = "26F47EE3-04F7-4A34-AF6F-5DD15DA624B5";
shapes = (
{
closed = 1;
nodes = (
(210,357,l),
(210,298,l),
(326,298,ls),
(352,298,o),
(357,293,o),
(357,267,cs),
(357,90,ls),
(357,64,o),
(352,59,o),
(326,59,cs),
(304,59,l),
(304,0,l),
(347,0,ls),
(400,0,o),
(426,26,o),
(426,79,cs),
(426,278,ls),
(426,331,o),
(400,357,o),
(347,357,c)
);
},
{
closed = 1;
nodes = (
(-20,622,l),
(-20,563,l),
(476,563,l),
(476,622,l)
);
},
{
closed = 1;
nodes = (
(269,536,ls),
(269,564,o),
(256,571,o),
(234,571,c),
(154,563,l),
(198,563,o),
(200,559,o),
(200,531,cs),
(200,416,ls),
(200,390,o),
(195,385,o),
(169,385,cs),
(84,385,l),
(84,326,l),
(169,326,ls),
(195,326,o),
(200,321,o),
(200,295,cs),
(200,90,ls),
(200,64,o),
(195,59,o),
(169,59,cs),
(125,59,ls),
(99,59,o),
(94,64,o),
(94,90,cs),
(94,206,l),
(25,206,l),
(25,79,ls),
(25,26,o),
(51,0,o),
(104,0,cs),
(190,0,ls),
(243,0,o),
(269,26,o),
(269,79,cs),
(269,311,ls),
(269,340,o),
(255,355,o),
(232,357,c),
(232,359,l),
(255,361,o),
(269,377,o),
(269,406,c)
);
}
);
width = 456;
},
{
anchors = (
{
name = abvm.bindu;
pos = (422,642);
}
);
layerId = "13BA2761-E32F-4173-A027-E047921EE288";
shapes = (
{
closed = 1;
nodes = (
(327,344,l),
(327,231,l),
(464,231,ls),
(479,231,o),
(487,226,o),
(487,207,cs),
(487,133,ls),
(487,118,o),
(479,113,o),
(464,113,cs),
(453,113,l),
(453,0,l),
(517,0,ls),
(626,0,o),
(657,34,o),
(657,107,cs),
(657,217,ls),
(657,310,o),
(612,344,o),
(526,344,c)
);
},
{
closed = 1;
nodes = (
(-20,642,l),
(-20,529,l),
(697,529,l),
(697,642,l)
);
},
{
closed = 1;
nodes = (
(422,504,ls),
(422,550,o),
(378,557,o),
(312,557,c),
(218,529,l),
(244,529,o),
(252,521,o),
(252,495,cs),
(252,427,ls),
(252,408,o),
(244,403,o),
(229,403,cs),
(185,403,l),
(185,290,l),
(229,290,ls),
(244,290,o),
(252,285,o),
(252,266,cs),
(252,123,ls),
(252,108,o),
(244,103,o),
(229,103,cs),
(207,103,ls),
(198,103,o),
(190,108,o),
(190,123,cs),
(190,223,l),
(20,223,l),
(20,107,ls),
(20,34,o),
(51,0,o),
(160,0,cs),
(282,0,ls),
(391,0,o),
(422,34,o),
(422,107,cs),
(422,288,ls),
(422,325,o),
(405,340,o),
(375,344,c),
(375,349,l),
(405,353,o),
(422,368,o),
(422,405,c)
);
}
);
width = 677;
}
);
unicode = 2314;
},
{
glyphname = "rVocalic-deva";
lastChange = "2023-07-18 08:40:49 +0000";
layers = (
{
anchors = (
{
name = abvm.bindu;
pos = (317,622);
},
{
name = abvm.e;
pos = (317,632);
}
);
layerId = "26F47EE3-04F7-4A34-AF6F-5DD15DA624B5";
shapes = (
{
closed = 1;
nodes = (
(249,600,l),
(249,0,l),
(317,0,l),
(317,600,l)
);
},
{
closed = 1;
nodes = (
(-20,563,l),
(638,563,l),
(638,622,l),
(-20,622,l)
);
},
{
closed = 1;
nodes = (
(5,485,l),
(5,423,l),
(42,423,ls),
(85,423,o),
(99,406,o),
(118,368,cs),
(199,204,l),
(205,281,l),
(4,0,l),
(81,0,l),
(253,240,l),
(164,417,ls),
(137,470,o),
(116,485,o),
(42,485,c)
);
},
{
closed = 1;
nodes = (
(520,295,ls),
(520,271,o),
(517,263,o),
(491,263,cs),
(483,263,ls),
(457,263,o),
(454,271,o),
(454,295,cs),
(454,394,ls),
(454,418,o),
(457,426,o),
(483,426,cs),
(491,426,ls),
(517,426,o),
(520,418,o),
(520,394,c)
);
},
{
closed = 1;
nodes = (
(597,56,l),
(483,56,ls),
(467,56,o),
(464,61,o),
(464,77,cs),
(464,86,ls),
(464,102,o),
(467,107,o),
(483,107,cs),
(551,107,l),
(551,164,l),
(508,203,l),
(509,203,ls),
(565,203,o),
(588,233,o),
(588,281,cs),
(588,407,ls),
(588,455,o),
(565,485,o),
(509,485,cs),
(464,485,ls),
(408,485,o),
(385,455,o),
(385,407,cs),
(385,323,ls),
(385,282,o),
(389,258,o),
(418,251,c),
(442,263,l),
(215,263,l),
(215,203,l),
(440,203,l),
(481,164,l),
(464,164,ls),
(421,164,o),
(395,138,o),
(395,95,cs),
(395,69,ls),
(395,26,o),
(421,0,o),
(464,0,c),
(597,0,l)
);
}
);
width = 623;
},
{
anchors = (
{
name = abvm.bindu;
pos = (514,642);
},
{
name = abvm.e;
pos = (514,652);
}
);
layerId = "13BA2761-E32F-4173-A027-E047921EE288";
shapes = (
{
closed = 1;
nodes = (
(344,552,l),
(344,0,l),
(514,0,l),
(514,552,l)
);
},
{
closed = 1;
nodes = (
(-20,529,l),
(1036,529,l),
(1036,642,l),
(-20,642,l)
);
},
{
closed = 1;
nodes = (
(15,467,l),
(15,354,l),
(30,354,ls),
(65,354,o),
(80,344,o),
(105,307,cs),
(164,221,l),
(186,283,l),
(27,0,l),
(222,0,l),
(357,240,l),
(248,400,ls),
(216,447,o),
(185,467,o),
(119,467,c)
);
},
{
closed = 1;
nodes = (
(806,301,ls),
(806,286,o),
(798,281,o),
(783,281,cs),
(767,281,ls),
(752,281,o),
(744,286,o),
(744,301,cs),
(744,351,ls),
(744,366,o),
(752,371,o),
(767,371,cs),
(783,371,ls),
(798,371,o),
(806,366,o),
(806,351,c)
);
},
{
closed = 1;
nodes = (
(966,-47,l),
(797,-47,ls),
(782,-47,o),
(774,-42,o),
(774,-27,cs),
(774,4,l),
(774,19,o),
(782,24,o),
(797,24,cs),
(941,24,l),
(941,127,l),
(800,208,l),
(815,208,ls),
(935,208,o),
(976,242,o),
(976,335,c),
(976,345,ls),
(976,438,o),
(935,472,o),
(815,472,cs),
(735,472,ls),
(615,472,o),
(574,438,o),
(574,345,cs),
(574,306,ls),
(574,260,o),
(618,253,o),
(684,253,c),
(684,281,l),
(241,281,l),
(241,181,l),
(634,181,l),
(726,127,l),
(714,127,ls),
(629,127,o),
(604,89,o),
(604,20,cs),
(604,-43,ls),
(604,-116,o),
(635,-150,o),
(744,-150,cs),
(966,-150,l)
);
}
);
width = 1016;
}
);
unicode = 2315;
},
{
glyphname = "rrVocalic-deva";
lastChange = "2023-07-18 08:41:03 +0000";
layers = (
{
anchors = (
{
name = abvm.bindu;
pos = (317,622);
},
{
name = abvm.e;
pos = (317,632);
}
);
layerId = "26F47EE3-04F7-4A34-AF6F-5DD15DA624B5";
shapes = (
{
closed = 1;
nodes = (
(249,600,l),
(249,0,l),
(317,0,l),
(317,600,l)
);
},
{
closed = 1;
nodes = (
(-20,563,l),
(638,563,l),
(638,622,l),
(-20,622,l)
);
},
{
closed = 1;
nodes = (
(5,485,l),
(5,423,l),
(42,423,ls),
(85,423,o),
(99,406,o),
(118,368,cs),
(199,204,l),
(205,281,l),
(4,0,l),
(81,0,l),
(253,240,l),
(164,417,ls),
(137,470,o),
(116,485,o),
(42,485,c)
);
},
{
closed = 1;
nodes = (
(520,295,ls),
(520,271,o),
(517,263,o),
(491,263,cs),
(483,263,ls),
(457,263,o),
(454,271,o),
(454,295,cs),
(454,394,ls),
(454,418,o),
(457,426,o),
(483,426,cs),
(491,426,ls),
(517,426,o),
(520,418,o),
(520,394,c)
);
},
{
closed = 1;
nodes = (
(464,485,ls),
(408,485,o),
(385,455,o),
(385,407,cs),
(385,323,ls),
(385,282,o),
(389,258,o),
(418,251,c),
(442,263,l),
(215,263,l),
(215,203,l),
(444,203,l),
(430,206,l),
(402,211,o),
(385,201,o),
(385,172,cs),
(385,122,ls),
(385,93,o),
(399,77,o),
(422,75,c),
(422,73,l),
(399,71,o),
(385,56,o),
(385,27,cs),
(385,-32,ls),
(385,-85,o),
(411,-111,o),
(464,-111,cs),
(569,-111,l),
(569,-52,l),
(485,-52,ls),
(459,-52,o),
(454,-47,o),
(454,-21,cs),
(454,15,ls),
(454,41,o),
(459,46,o),
(485,46,cs),
(528,46,l),
(528,105,l),
(485,105,ls),
(459,105,o),
(454,110,o),
(454,136,cs),
(454,172,ls),
(454,198,o),
(461,202,o),
(481,203,cs),
(509,203,ls),
(565,203,o),
(588,233,o),
(588,281,cs),
(588,407,ls),
(588,455,o),
(565,485,o),
(509,485,c)
);
}
);
width = 618;
},
{
anchors = (
{
name = abvm.bindu;
pos = (539,642);
},
{
name = abvm.e;
pos = (539,652);
}
);
layerId = "13BA2761-E32F-4173-A027-E047921EE288";
shapes = (
{
closed = 1;
nodes = (
(369,552,l),
(369,0,l),
(539,0,l),
(539,552,l)
);
},
{
closed = 1;
nodes = (
(-20,529,l),
(1071,529,l),
(1071,642,l),
(-20,642,l)
);
},
{
closed = 1;
nodes = (
(40,467,l),
(40,354,l),
(55,354,ls),
(90,354,o),
(105,344,o),
(130,307,cs),
(189,221,l),
(211,283,l),
(52,0,l),
(247,0,l),
(382,240,l),
(273,400,ls),
(241,447,o),
(210,467,o),
(144,467,c)
);
},
{
closed = 1;
nodes = (
(841,301,ls),
(841,286,o),
(833,281,o),
(818,281,cs),
(802,281,ls),
(787,281,o),
(779,286,o),
(779,301,cs),
(779,351,ls),
(779,366,o),
(787,371,o),
(802,371,cs),
(818,371,ls),
(833,371,o),
(841,366,o),
(841,351,c)
);
},
{
closed = 1;
nodes = (
(770,472,ls),
(650,472,o),
(609,438,o),
(609,345,cs),
(609,306,ls),
(609,260,o),
(653,253,o),
(719,253,c),
(719,281,l),
(266,281,l),
(266,181,l),
(719,181,l),
(719,209,l),
(653,209,o),
(609,202,o),
(609,156,cs),
(609,111,ls),
(609,74,o),
(626,59,o),
(656,55,c),
(656,50,l),
(626,46,o),
(609,31,o),
(609,-6,cs),
(609,-62,ls),
(609,-155,o),
(660,-189,o),
(770,-189,cs),
(911,-189,l),
(911,-76,l),
(802,-76,ls),
(787,-76,o),
(779,-71,o),
(779,-52,cs),
(779,-28,ls),
(779,-9,o),
(787,-4,o),
(802,-4,cs),
(848,-4,l),
(848,109,l),
(802,109,ls),
(787,109,o),
(779,114,o),
(779,133,cs),
(779,157,ls),
(779,176,o),
(787,181,o),
(802,181,cs),
(850,181,ls),
(970,181,o),
(1011,215,o),
(1011,308,cs),
(1011,345,ls),
(1011,438,o),
(970,472,o),
(850,472,c)
);
}
);
width = 1036;
}
);
unicode = 2400;
},
{
glyphname = "lVocalic-deva";
lastChange = "2023-07-18 08:41:18 +0000";
layers = (
{
anchors = (
{
name = abvm.bindu;
pos = (440,622);
},
{
name = abvm.e;
pos = (440,632);
}
);
layerId = "26F47EE3-04F7-4A34-AF6F-5DD15DA624B5";
shapes = (
{
closed = 1;
nodes = (
(-20,563,l),
(508,563,l),
(508,622,l),
(-20,622,l)
);
},
{
closed = 1;
nodes = (
(124,485,ls),
(71,485,o),
(45,459,o),
(45,406,cs),
(45,79,ls),
(45,26,o),
(71,0,o),
(124,0,cs),
(206,0,l),
(206,62,l),
(145,62,ls),
(119,62,o),
(114,67,o),
(114,93,cs),
(114,395,ls),
(114,421,o),
(119,426,o),
(145,426,cs),
(177,426,ls),
(203,426,o),
(208,421,o),
(208,395,cs),
(208,189,l),
(277,189,l),
(277,395,ls),
(277,421,o),
(282,426,o),
(308,426,cs),
(403,426,l),
(403,485,l),
(291,485,ls),
(262,485,o),
(247,471,o),
(245,448,c),
(243,448,l),
(241,471,o),
(225,485,o),
(196,485,c)
);
},
{
closed = 1;
nodes = (
(371,93,l),
(368,93,ls),
(317,93,o),
(292,67,o),
(292,14,cs),
(292,-44,ls),
(292,-97,o),
(318,-123,o),
(371,-123,cs),
(481,-123,l),
(481,-64,l),
(392,-64,ls),
(366,-64,o),
(361,-59,o),
(361,-33,cs),
(361,3,ls),
(361,29,o),
(366,34,o),
(392,34,cs),
(440,34,l),
(440,592,l),
(371,592,l)
);
}
);
width = 488;
},
{
anchors = (
{
name = abvm.bindu;
pos = (700,642);
},
{
name = abvm.e;
pos = (700,652);
}
);
layerId = "13BA2761-E32F-4173-A027-E047921EE288";
shapes = (
{
closed = 1;
nodes = (
(-20,529,l),
(760,529,l),
(760,642,l),
(-20,642,l)
);
},
{
closed = 1;
nodes = (
(171,472,ls),
(85,472,o),
(40,438,o),
(40,345,cs),
(40,107,ls),
(40,34,o),
(71,0,o),
(180,0,cs),
(244,0,l),
(244,113,l),
(233,113,ls),
(218,113,o),
(210,118,o),
(210,133,cs),
(210,335,ls),
(210,354,o),
(218,359,o),
(233,359,cs),
(262,359,ls),
(281,359,o),
(285,350,o),
(285,335,cs),
(285,208,l),
(455,208,l),
(455,335,ls),
(455,350,o),
(459,359,o),
(478,359,cs),
(538,359,l),
(538,472,l),
(429,472,ls),
(392,472,o),
(377,455,o),
(373,425,c),
(368,425,l),
(364,455,o),
(349,472,o),
(312,472,c)
);
},
{
closed = 1;
nodes = (
(530,149,l),
(520,149,ls),
(411,149,o),
(380,115,o),
(380,42,cs),
(380,-33,ls),
(380,-106,o),
(411,-140,o),
(520,-140,cs),
(760,-140,l),
(760,-27,l),
(573,-27,ls),
(558,-27,o),
(550,-22,o),
(550,-7,cs),
(550,26,ls),
(550,41,o),
(558,46,o),
(573,46,cs),
(700,46,l),
(700,548,l),
(530,548,l)
);
}
);
width = 740;
}
);
unicode = 2316;
},
{
glyphname = "llVocalic-deva";
lastChange = "2023-07-18 08:41:33 +0000";
layers = (
{
anchors = (
{
name = abvm.bindu;
pos = (440,622);
},
{
name = abvm.e;
pos = (440,632);
}
);
layerId = "26F47EE3-04F7-4A34-AF6F-5DD15DA624B5";
shapes = (
{
closed = 1;
nodes = (
(-20,563,l),
(508,563,l),
(508,622,l),
(-20,622,l)
);
},
{
closed = 1;
nodes = (
(124,485,ls),
(71,485,o),
(45,459,o),
(45,406,cs),
(45,79,ls),
(45,26,o),
(71,0,o),
(124,0,cs),
(206,0,l),
(206,62,l),
(145,62,ls),
(119,62,o),
(114,67,o),
(114,93,cs),
(114,395,ls),
(114,421,o),
(119,426,o),
(145,426,cs),
(177,426,ls),
(203,426,o),
(208,421,o),
(208,395,cs),
(208,258,l),
(277,258,l),
(277,395,ls),
(277,421,o),
(282,426,o),
(308,426,cs),
(403,426,l),
(403,485,l),
(291,485,ls),
(262,485,o),
(247,471,o),
(245,448,c),
(243,448,l),
(241,471,o),
(225,485,o),
(196,485,c)
);
},
{
closed = 1;
nodes = (
(292,110,ls),
(292,81,o),
(306,65,o),
(329,63,c),
(329,61,l),
(306,59,o),
(292,44,o),
(292,15,cs),
(292,-44,ls),
(292,-97,o),
(318,-123,o),
(371,-123,cs),
(481,-123,l),
(481,-64,l),
(392,-64,ls),
(366,-64,o),
(361,-59,o),
(361,-33,cs),
(361,3,ls),
(361,29,o),
(366,34,o),
(392,34,cs),
(440,34,l),
(440,93,l),
(392,93,ls),
(366,93,o),
(361,98,o),
(361,124,cs),
(361,160,ls),
(361,186,o),
(366,191,o),
(392,191,cs),
(440,191,l),
(440,250,l),
(371,250,ls),
(318,250,o),
(292,224,o),
(292,171,c)
);
},
{
closed = 1;
nodes = (
(371,232,l),
(440,232,l),
(440,582,l),
(371,582,l)
);
}
);
width = 488;
},
{
anchors = (
{
name = abvm.bindu;
pos = (700,642);
},
{
name = abvm.e;
pos = (700,652);
}
);
layerId = "13BA2761-E32F-4173-A027-E047921EE288";
shapes = (
{
closed = 1;
nodes = (
(-20,529,l),
(760,529,l),
(760,642,l),
(-20,642,l)
);
},
{
closed = 1;
nodes = (
(171,472,ls),
(85,472,o),
(40,438,o),
(40,345,cs),
(40,107,ls),
(40,34,o),
(71,0,o),
(180,0,cs),
(244,0,l),
(244,113,l),
(233,113,ls),
(218,113,o),
(210,118,o),
(210,133,cs),
(210,335,ls),
(210,354,o),
(218,359,o),
(233,359,cs),
(262,359,ls),
(281,359,o),
(285,350,o),
(285,335,cs),
(285,208,l),
(455,208,l),
(455,335,ls),
(455,350,o),
(459,359,o),
(478,359,cs),
(538,359,l),
(538,472,l),
(429,472,ls),
(392,472,o),
(377,455,o),
(373,425,c),
(368,425,l),
(364,455,o),
(349,472,o),
(312,472,c)
);
},
{
closed = 1;
nodes = (
(449,10,ls),
(449,-27,o),
(466,-42,o),
(496,-46,c),
(496,-51,l),
(466,-55,o),
(449,-70,o),
(449,-107,cs),
(449,-163,ls),
(449,-256,o),
(500,-290,o),
(610,-290,cs),
(751,-290,l),
(751,-177,l),
(642,-177,ls),
(627,-177,o),
(619,-172,o),
(619,-153,cs),
(619,-129,ls),
(619,-110,o),
(627,-105,o),
(642,-105,cs),
(688,-105,l),
(688,8,l),
(642,8,ls),
(627,8,o),
(619,13,o),
(619,32,cs),
(619,56,ls),
(619,75,o),
(627,80,o),
(642,80,cs),
(700,80,l),
(700,193,l),
(570,193,ls),
(500,193,o),
(449,169,o),
(449,96,c)
);
},
{
closed = 1;
nodes = (
(530,142,l),
(700,142,l),
(700,544,l),
(530,544,l)
);
}
);
width = 740;
}
);
unicode = 2401;
},
{
glyphname = "e-deva";
lastChange = "2023-07-18 08:15:14 +0000";
layers = (
{
anchors = (
{
name = abvm.e;
pos = (332,632);
},
{
name = topmiddle;
pos = (192,622);
}
);
layerId = "26F47EE3-04F7-4A34-AF6F-5DD15DA624B5";
shapes = (
{
closed = 1;
nodes = (
(55,79,ls),
(55,26,o),
(81,0,o),
(134,0,cs),
(250,0,ls),
(303,0,o),
(329,26,o),
(329,79,cs),
(329,196,l),
(260,196,l),
(260,90,ls),
(260,64,o),
(255,59,o),
(229,59,cs),
(155,59,ls),
(129,59,o),
(124,64,o),
(124,90,cs),
(124,578,l),
(55,578,l)
);
},
{
closed = 1;
nodes = (
(263,374,ls),
(263,348,o),
(258,343,o),
(232,343,cs),
(188,343,l),
(188,284,l),
(253,284,ls),
(306,284,o),
(332,310,o),
(332,363,cs),
(332,578,l),
(263,578,l)
);
},
{
closed = 1;
nodes = (
(-20,563,l),
(397,563,l),
(397,622,l),
(-20,622,l)
);
}
);
width = 377;
},
{
anchors = (
{
name = abvm.e;
pos = (472,652);
},
{
name = topmiddle;
pos = (273,642);
}
);
layerId = "13BA2761-E32F-4173-A027-E047921EE288";
shapes = (
{
closed = 1;
nodes = (
(40,107,ls),
(40,34,o),
(71,0,o),
(180,0,cs),
(332,0,ls),
(441,0,o),
(472,34,o),
(472,107,cs),
(472,223,l),
(302,223,l),
(302,123,ls),
(302,108,o),
(294,103,o),
(285,103,cs),
(233,103,ls),
(218,103,o),
(210,108,o),
(210,123,cs),
(210,570,l),
(40,570,l)
);
},
{
closed = 1;
nodes = (
(302,401,ls),
(302,386,o),
(294,381,o),
(279,381,cs),
(248,381,l),
(248,268,l),
(332,268,ls),
(441,268,o),
(472,302,o),
(472,375,cs),
(472,570,l),
(302,570,l)
);
},
{
closed = 1;
nodes = (
(-20,529,l),
(532,529,l),
(532,642,l),
(-20,642,l)
);
}
);
width = 512;
}
);
unicode = 2319;
},
{
glyphname = "aaMatra-deva";
lastChange = "2023-07-18 08:42:27 +0000";
layers = (
{
anchors = (
{
name = bottom;
pos = (90,0);
},
{
name = topmiddle;
pos = (90,622);
},
{
name = topright;
pos = (124,622);
}
);
layerId = "26F47EE3-04F7-4A34-AF6F-5DD15DA624B5";
shapes = (
{
closed = 1;
nodes = (
(56,0,l),
(124,0,l),
(124,582,l),
(56,582,l)
);
},
{
closed = 1;
nodes = (
(-19,563,l),
(199,563,l),
(199,622,l),
(-19,622,l)
);
}
);
width = 180;
},
{
anchors = (
{
name = bottom;
pos = (125,0);
},
{
name = topmiddle;
pos = (125,642);
},
{
name = topright;
pos = (210,642);
}
);
layerId = "13BA2761-E32F-4173-A027-E047921EE288";
shapes = (
{
closed = 1;
nodes = (
(40,0,l),
(210,0,l),
(210,552,l),
(40,552,l)
);
},
{
closed = 1;
nodes = (
(-20,529,l),
(270,529,l),
(270,642,l),
(-20,642,l)
);
}
);
width = 250;
}
);
unicode = 2366;
},
{
glyphname = "iMatra-deva";
lastChange = "2023-07-18 08:46:28 +0000";
layers = (
{
layerId = "26F47EE3-04F7-4A34-AF6F-5DD15DA624B5";
shapes = (
{
closed = 1;
nodes = (
(-20,563,l),
(199,563,l),
(199,622,l),
(-20,622,l)
);
},
{
closed = 1;
nodes = (
(55,0,l),
(124,0,l),
(124,593,l),
(55,593,l)
);
},
{
closed = 1;
nodes = (
(134,813,ls),
(81,813,o),
(55,787,o),
(55,734,cs),
(55,610,l),
(124,610,l),
(124,723,ls),
(124,749,o),
(129,754,o),
(155,754,cs),
(366,754,ls),
(394,754,o),
(397,749,o),
(397,723,cs),
(397,667,l),
(466,667,l),
(466,734,ls),
(466,787,o),
(440,813,o),
(387,813,c)
);
}
);
width = 179;
},
{
layerId = "13BA2761-E32F-4173-A027-E047921EE288";
shapes = (
{
closed = 1;
nodes = (
(-20,529,l),
(270,529,l),
(270,642,l),
(-20,642,l)
);
},
{
closed = 1;
nodes = (
(40,0,l),
(210,0,l),
(210,552,l),
(40,552,l)
);
},
{
closed = 1;
nodes = (
(162,858,ls),
(90,858,o),
(40,828,o),
(40,746,cs),
(40,636,l),
(210,636,l),
(210,709,ls),
(210,739,o),
(216,745,o),
(246,745,cs),
(482,745,ls),
(512,745,o),
(518,739,o),
(518,709,cs),
(518,676,l),
(688,676,l),
(688,746,ls),
(688,828,o),
(638,858,o),
(566,858,c)
);
}
);
width = 250;
}
);
unicode = 2367;
},
{
glyphname = "iiMatra-deva";
lastChange = "2023-07-18 08:27:19 +0000";
layers = (
{
layerId = "26F47EE3-04F7-4A34-AF6F-5DD15DA624B5";
shapes = (
{
closed = 1;
nodes = (
(-20,622,l),
(-20,563,l),
(199,563,l),
(199,622,l)
);
},
{
closed = 1;
nodes = (
(55,593,l),
(55,0,l),
(124,0,l),
(124,593,l)
);
},
{
closed = 1;
nodes = (
(-45,813,ls),
(-98,813,o),
(-124,787,o),
(-124,734,cs),
(-124,667,l),
(-55,667,l),
(-55,723,ls),
(-55,749,o),
(-52,754,o),
(-24,754,cs),
(24,754,ls),
(50,754,o),
(55,749,o),
(55,723,cs),
(55,610,l),
(124,610,l),
(124,734,ls),
(124,787,o),
(98,813,o),
(45,813,c)
);
}
);
width = 179;
},
{
layerId = "13BA2761-E32F-4173-A027-E047921EE288";
shapes = (
{
closed = 1;
nodes = (
(-20,642,l),
(-20,529,l),
(270,529,l),
(270,642,l)
);
},
{
closed = 1;
nodes = (
(40,552,l),
(40,0,l),
(210,0,l),
(210,552,l)
);
},
{
closed = 1;
nodes = (
(-118,858,ls),
(-190,858,o),
(-240,828,o),
(-240,746,cs),
(-240,676,l),
(-70,676,l),
(-70,709,ls),
(-70,739,o),
(-64,745,o),
(-34,745,cs),
(4,745,ls),
(34,745,o),
(40,739,o),
(40,709,cs),
(40,636,l),
(210,636,l),
(210,746,ls),
(210,828,o),
(160,858,o),
(88,858,c)
);
}
);
width = 250;
}
);
unicode = 2368;
},
{
glyphname = "iiMatra_reph-deva";
lastChange = "2023-07-18 08:29:02 +0000";
layers = (
{
layerId = "26F47EE3-04F7-4A34-AF6F-5DD15DA624B5";
shapes = (
{
closed = 1;
nodes = (
(55,0,l),
(124,0,l),
(124,579,l),
(55,579,l)
);
},
{
closed = 1;
nodes = (
(-20,563,l),
(199,563,l),
(199,622,l),
(-20,622,l)
);
},
{
closed = 1;
nodes = (
(-45,813,ls),
(-98,813,o),
(-124,787,o),
(-124,734,cs),
(-124,667,l),
(-55,667,l),
(-55,723,ls),
(-55,749,o),
(-50,754,o),
(-24,754,cs),
(24,754,ls),
(50,754,o),
(55,749,o),
(55,723,cs),
(55,606,l),
(124,606,l),
(124,744,ls),
(124,770,o),
(129,774,o),
(155,774,cs),
(189,774,l),
(189,833,l),
(143,833,ls),
(104,833,o),
(90,815,o),
(90,789,cs),
(90,771,l),
(88,771,l),
(88,794,o),
(74,813,o),
(35,813,c)
);
}
);
width = 179;
},
{
layerId = "13BA2761-E32F-4173-A027-E047921EE288";
shapes = (
{
closed = 1;
nodes = (
(40,0,l),
(210,0,l),
(210,552,l),
(40,552,l)
);
},
{
closed = 1;
nodes = (
(-20,529,l),
(270,529,l),
(270,642,l),
(-20,642,l)
);
},
{
closed = 1;
nodes = (
(-118,858,ls),
(-190,858,o),
(-240,828,o),
(-240,746,cs),
(-240,676,l),
(-70,676,l),
(-70,709,ls),
(-70,739,o),
(-64,745,o),
(-34,745,cs),
(4,745,ls),
(34,745,o),
(40,739,o),
(40,709,cs),
(40,606,l),
(210,606,l),
(210,770,ls),
(210,800,o),
(216,806,o),
(246,806,cs),
(320,806,l),
(320,919,l),
(224,919,ls),
(167,919,o),
(128,896,o),
(128,831,cs),
(128,811,l),
(123,811,l),
(119,841,o),
(94,858,o),
(47,858,c)
);
}
);
width = 250;
}
);
},
{
glyphname = "iiMatra_reph_anusvara-deva";
lastChange = "2023-07-18 08:28:45 +0000";
layers = (
{
layerId = "26F47EE3-04F7-4A34-AF6F-5DD15DA624B5";
shapes = (
{
closed = 1;
nodes = (
(159,666,l),
(222,666,l),
(222,732,l),
(159,732,l)
);
},
{
ref = "iiMatra_reph-deva";
}
);
width = 179;
},
{
layerId = "13BA2761-E32F-4173-A027-E047921EE288";
shapes = (
{
closed = 1;
nodes = (
(246,668,l),
(347,668,l),
(347,774,l),
(246,774,l)
);
},
{
ref = "iiMatra_reph-deva";
}
);
width = 250;
}
);
},
{
glyphname = "oMatra_reph_anusvara-deva";
lastChange = "2023-07-18 08:43:15 +0000";
layers = (
{
layerId = "26F47EE3-04F7-4A34-AF6F-5DD15DA624B5";
shapes = (
{
closed = 1;
nodes = (
(146,665,l),
(209,665,l),
(209,731,l),
(146,731,l)
);
},
{
ref = "aaMatra-deva";
},
{
pos = (182,0);
ref = "eMatra_reph-deva";
}
);
width = 180;
},
{
layerId = "13BA2761-E32F-4173-A027-E047921EE288";
shapes = (
{
closed = 1;
nodes = (
(236,668,l),
(337,668,l),
(337,774,l),
(236,774,l)
);
},
{
ref = "aaMatra-deva";
},
{
pos = (254,0);
ref = "eMatra_reph-deva";
}
);
width = 250;
}
);
},
{
glyphname = "iiMatra_reph-deva.02";
lastChange = "2023-07-18 08:29:37 +0000";
layers = (
{
layerId = "26F47EE3-04F7-4A34-AF6F-5DD15DA624B5";
shapes = (
{
closed = 1;
nodes = (
(55,0,l),
(124,0,l),
(124,579,l),
(55,579,l)
);
},
{
closed = 1;
nodes = (
(-20,563,l),
(199,563,l),
(199,622,l),
(-20,622,l)
);
},
{
closed = 1;
nodes = (
(-207,813,ls),
(-260,813,o),
(-286,787,o),
(-286,734,cs),
(-286,667,l),
(-217,667,l),
(-217,723,ls),
(-217,749,o),
(-212,754,o),
(-186,754,cs),
(24,754,ls),
(50,754,o),
(55,749,o),
(55,723,cs),
(55,606,l),
(124,606,l),
(124,744,ls),
(124,770,o),
(129,774,o),
(155,774,cs),
(189,774,l),
(189,833,l),
(143,833,ls),
(104,833,o),
(90,815,o),
(90,789,cs),
(90,771,l),
(88,771,l),
(88,794,o),
(74,813,o),
(35,813,c)
);
}
);
width = 179;
},
{
layerId = "13BA2761-E32F-4173-A027-E047921EE288";
shapes = (
{
closed = 1;
nodes = (
(40,0,l),
(210,0,l),
(210,552,l),
(40,552,l)
);
},
{
closed = 1;
nodes = (
(-20,529,l),
(270,529,l),
(270,642,l),
(-20,642,l)
);
},
{
closed = 1;
nodes = (
(-311,858,ls),
(-383,858,o),
(-433,828,o),
(-433,746,cs),
(-433,676,l),
(-263,676,l),
(-263,709,ls),
(-263,739,o),
(-257,745,o),
(-227,745,cs),
(4,745,ls),
(34,745,o),
(40,739,o),
(40,709,cs),
(40,606,l),
(210,606,l),
(210,770,ls),
(210,800,o),
(216,806,o),
(246,806,cs),
(320,806,l),
(320,919,l),
(224,919,ls),
(167,919,o),
(128,896,o),
(128,831,cs),
(128,811,l),
(123,811,l),
(119,841,o),
(94,858,o),
(47,858,c)
);
}
);
width = 250;
}
);
},
{
glyphname = "iiMatra_reph_anusvara-deva.02";
lastChange = "2023-07-18 08:30:29 +0000";
layers = (
{
layerId = "26F47EE3-04F7-4A34-AF6F-5DD15DA624B5";
shapes = (
{
closed = 1;
nodes = (
(162,656,l),
(225,656,l),
(225,722,l),
(162,722,l)
);
},
{
ref = "iiMatra_reph-deva.02";
}
);
width = 179;
},
{
layerId = "13BA2761-E32F-4173-A027-E047921EE288";
shapes = (
{
closed = 1;
nodes = (
(246,668,l),
(347,668,l),
(347,774,l),
(246,774,l)
);
},
{
ref = "iiMatra_reph-deva.02";
}
);
width = 250;
}
);
},
{
glyphname = "iMatra-deva.01";
lastChange = "2023-07-19 14:47:23 +0000";
layers = (
{
anchors = (
{
name = abvm.i;
pos = (461,667);
}
);
layerId = "26F47EE3-04F7-4A34-AF6F-5DD15DA624B5";
shapes = (
{
closed = 1;
nodes = (
(134,813,ls),
(81,813,o),
(55,787,o),
(55,734,cs),
(55,622,l),
(-20,622,l),
(-20,563,l),
(55,563,l),
(55,0,l),
(124,0,l),
(124,563,l),
(199,563,l),
(199,622,l),
(124,622,l),
(124,723,ls),
(124,749,o),
(129,754,o),
(155,754,cs),
(361,754,ls),
(387,754,o),
(392,749,o),
(392,723,cs),
(392,667,l),
(461,667,l),
(461,734,ls),
(461,787,o),
(435,813,o),
(382,813,c)
);
}
);
width = 179;
},
{
anchors = (
{
name = abvm.i;
pos = (658,676);
}
);
layerId = "13BA2761-E32F-4173-A027-E047921EE288";
shapes = (
{
closed = 1;
nodes = (
(162,858,ls),
(90,858,o),
(40,828,o),
(40,746,cs),
(40,642,l),
(-20,642,l),
(-20,529,l),
(40,529,l),
(40,0,l),
(210,0,l),
(210,529,l),
(270,529,l),
(270,642,l),
(210,642,l),
(210,709,ls),
(210,739,o),
(216,745,o),
(246,745,cs),
(452,745,ls),
(482,745,o),
(488,739,o),
(488,709,cs),
(488,676,l),
(658,676,l),
(658,746,ls),
(658,828,o),
(608,858,o),
(536,858,c)
);
}
);
width = 250;
}
);
},
{
glyphname = "iMatra-deva.02";
lastChange = "2023-07-18 08:24:33 +0000";
layers = (
{
anchors = (
{
name = abvm.i;
pos = (483,667);
}
);
layerId = "26F47EE3-04F7-4A34-AF6F-5DD15DA624B5";
shapes = (
{
closed = 1;
nodes = (
(134,813,ls),
(81,813,o),
(55,787,o),
(55,734,cs),
(55,622,l),
(-20,622,l),
(-20,563,l),
(55,563,l),
(55,0,l),
(124,0,l),
(124,563,l),
(199,563,l),
(199,622,l),
(124,622,l),
(124,723,ls),
(124,749,o),
(129,754,o),
(155,754,cs),
(383,754,ls),
(409,754,o),
(414,749,o),
(414,723,cs),
(414,667,l),
(483,667,l),
(483,734,ls),
(483,787,o),
(457,813,o),
(404,813,c)
);
}
);
width = 179;
},
{
anchors = (
{
name = abvm.i;
pos = (690,676);
}
);
layerId = "13BA2761-E32F-4173-A027-E047921EE288";
shapes = (
{
closed = 1;
nodes = (
(162,858,ls),
(90,858,o),
(40,828,o),
(40,746,cs),
(40,642,l),
(-20,642,l),
(-20,529,l),
(40,529,l),
(40,0,l),
(210,0,l),
(210,529,l),
(270,529,l),
(270,642,l),
(210,642,l),
(210,709,ls),
(210,739,o),
(216,745,o),
(246,745,cs),
(484,745,ls),
(514,745,o),
(520,739,o),
(520,709,cs),
(520,676,l),
(690,676,l),
(690,746,ls),
(690,828,o),
(640,858,o),
(568,858,c)
);
}
);
width = 250;
}
);
},
{
glyphname = "iMatra-deva.03";
lastChange = "2023-07-18 08:24:33 +0000";
layers = (
{
anchors = (
{
name = abvm.i;
pos = (504,667);
}
);
layerId = "26F47EE3-04F7-4A34-AF6F-5DD15DA624B5";
shapes = (
{
closed = 1;
nodes = (
(134,813,ls),
(81,813,o),
(55,787,o),
(55,734,cs),
(55,622,l),
(-20,622,l),
(-20,563,l),
(55,563,l),
(55,0,l),
(124,0,l),
(124,563,l),
(199,563,l),
(199,622,l),
(124,622,l),
(124,723,ls),
(124,749,o),
(129,754,o),
(155,754,cs),
(404,754,ls),
(430,754,o),
(435,749,o),
(435,723,cs),
(435,667,l),
(504,667,l),
(504,734,ls),
(504,787,o),
(478,813,o),
(425,813,c)
);
}
);
width = 179;
},
{
anchors = (
{
name = abvm.i;
pos = (723,676);
}
);
layerId = "13BA2761-E32F-4173-A027-E047921EE288";
shapes = (
{
closed = 1;
nodes = (
(162,858,ls),
(90,858,o),
(40,828,o),
(40,746,cs),
(40,642,l),
(-20,642,l),
(-20,529,l),
(40,529,l),
(40,0,l),
(210,0,l),
(210,529,l),
(270,529,l),
(270,642,l),
(210,642,l),
(210,709,ls),
(210,739,o),
(216,745,o),
(246,745,cs),
(517,745,ls),
(547,745,o),
(553,739,o),
(553,709,cs),
(553,676,l),
(723,676,l),
(723,746,ls),
(723,828,o),
(673,858,o),
(601,858,c)
);
}
);
width = 250;
}
);
},
{
glyphname = "iMatra-deva.04";
lastChange = "2023-07-18 08:24:33 +0000";
layers = (
{
anchors = (
{
name = abvm.i;
pos = (526,667);
}
);
layerId = "26F47EE3-04F7-4A34-AF6F-5DD15DA624B5";
shapes = (
{
closed = 1;
nodes = (
(134,813,ls),
(81,813,o),
(55,787,o),
(55,734,cs),
(55,622,l),
(-20,622,l),
(-20,563,l),
(55,563,l),
(55,0,l),
(124,0,l),
(124,563,l),
(199,563,l),
(199,622,l),
(124,622,l),
(124,723,ls),
(124,749,o),
(129,754,o),
(155,754,cs),
(426,754,ls),
(452,754,o),
(457,749,o),
(457,723,cs),
(457,667,l),
(526,667,l),
(526,734,ls),
(526,787,o),
(500,813,o),
(447,813,c)
);
}
);
width = 179;
},
{
anchors = (
{
name = abvm.i;
pos = (755,676);
}
);
layerId = "13BA2761-E32F-4173-A027-E047921EE288";
shapes = (
{
closed = 1;
nodes = (
(162,858,ls),
(90,858,o),
(40,828,o),
(40,746,cs),
(40,642,l),
(-20,642,l),
(-20,529,l),
(40,529,l),
(40,0,l),
(210,0,l),
(210,529,l),
(270,529,l),
(270,642,l),
(210,642,l),
(210,709,ls),
(210,739,o),
(216,745,o),
(246,745,cs),
(549,745,ls),
(579,745,o),
(585,739,o),
(585,709,cs),
(585,676,l),
(755,676,l),
(755,746,ls),
(755,828,o),
(705,858,o),
(633,858,c)
);
}
);
width = 250;
}
);
},
{
glyphname = "iMatra-deva.05";
lastChange = "2023-07-18 08:24:33 +0000";
layers = (
{
anchors = (
{
name = abvm.i;
pos = (547,667);
}
);
layerId = "26F47EE3-04F7-4A34-AF6F-5DD15DA624B5";
shapes = (
{
closed = 1;
nodes = (
(134,813,ls),
(81,813,o),
(55,787,o),
(55,734,cs),
(55,622,l),
(-20,622,l),
(-20,563,l),
(55,563,l),
(55,0,l),
(124,0,l),
(124,563,l),
(199,563,l),
(199,622,l),
(124,622,l),
(124,723,ls),
(124,749,o),
(129,754,o),
(155,754,cs),
(447,754,ls),
(473,754,o),
(478,749,o),
(478,723,cs),
(478,667,l),
(547,667,l),
(547,734,ls),
(547,787,o),
(521,813,o),
(468,813,c)
);
}
);
width = 179;
},
{
anchors = (
{
name = abvm.i;
pos = (787,676);
}
);
layerId = "13BA2761-E32F-4173-A027-E047921EE288";
shapes = (
{
closed = 1;
nodes = (
(162,858,ls),
(90,858,o),
(40,828,o),
(40,746,cs),
(40,642,l),
(-20,642,l),
(-20,529,l),
(40,529,l),
(40,0,l),
(210,0,l),
(210,529,l),
(270,529,l),
(270,642,l),
(210,642,l),
(210,709,ls),
(210,739,o),
(216,745,o),
(246,745,cs),
(581,745,ls),
(611,745,o),
(617,739,o),
(617,709,cs),
(617,676,l),
(787,676,l),
(787,746,ls),
(787,828,o),
(737,858,o),
(665,858,c)
);
}
);
width = 250;
}
);
},
{
glyphname = "iMatra-deva.06";
lastChange = "2023-07-18 08:24:33 +0000";
layers = (
{
anchors = (
{
name = abvm.i;
pos = (569,667);
}
);
layerId = "26F47EE3-04F7-4A34-AF6F-5DD15DA624B5";
shapes = (
{
closed = 1;
nodes = (
(134,813,ls),
(81,813,o),
(55,787,o),
(55,734,cs),
(55,622,l),
(-20,622,l),
(-20,563,l),
(55,563,l),
(55,0,l),
(124,0,l),
(124,563,l),
(199,563,l),
(199,622,l),
(124,622,l),
(124,723,ls),
(124,749,o),
(129,754,o),
(155,754,cs),
(469,754,ls),
(495,754,o),
(500,749,o),
(500,723,cs),
(500,667,l),
(569,667,l),
(569,734,ls),
(569,787,o),
(543,813,o),
(490,813,c)
);
}
);
width = 179;
},
{
anchors = (
{
name = abvm.i;
pos = (819,676);
}
);
layerId = "13BA2761-E32F-4173-A027-E047921EE288";
shapes = (
{
closed = 1;
nodes = (
(162,858,ls),
(90,858,o),
(40,828,o),
(40,746,cs),
(40,642,l),
(-20,642,l),
(-20,529,l),
(40,529,l),
(40,0,l),
(210,0,l),
(210,529,l),
(270,529,l),
(270,642,l),
(210,642,l),
(210,709,ls),
(210,739,o),
(216,745,o),
(246,745,cs),
(613,745,ls),
(643,745,o),
(649,739,o),
(649,709,cs),
(649,676,l),
(819,676,l),
(819,746,ls),
(819,828,o),
(769,858,o),
(697,858,c)
);
}
);
width = 250;
}
);
},
{
glyphname = "iMatra-deva.07";
lastChange = "2023-07-18 08:24:33 +0000";
layers = (
{
anchors = (
{
name = abvm.i;
pos = (590,667);
}
);
layerId = "26F47EE3-04F7-4A34-AF6F-5DD15DA624B5";
shapes = (
{
closed = 1;
nodes = (
(134,813,ls),
(81,813,o),
(55,787,o),
(55,734,cs),
(55,622,l),
(-20,622,l),
(-20,563,l),
(55,563,l),
(55,0,l),
(124,0,l),
(124,563,l),
(199,563,l),
(199,622,l),
(124,622,l),
(124,723,ls),
(124,749,o),
(129,754,o),
(155,754,cs),
(490,754,ls),
(516,754,o),
(521,749,o),
(521,723,cs),
(521,667,l),
(590,667,l),
(590,734,ls),
(590,787,o),
(564,813,o),
(511,813,c)
);
}
);
width = 179;
},
{
anchors = (
{
name = abvm.i;
pos = (852,676);
}
);
layerId = "13BA2761-E32F-4173-A027-E047921EE288";
shapes = (
{
closed = 1;
nodes = (
(162,858,ls),
(90,858,o),
(40,828,o),
(40,746,cs),
(40,642,l),
(-20,642,l),
(-20,529,l),
(40,529,l),
(40,0,l),
(210,0,l),
(210,529,l),
(270,529,l),
(270,642,l),
(210,642,l),
(210,709,ls),
(210,739,o),
(216,745,o),
(246,745,cs),
(646,745,ls),
(676,745,o),
(682,739,o),
(682,709,cs),
(682,676,l),
(852,676,l),
(852,746,ls),
(852,828,o),
(802,858,o),
(730,858,c)
);
}
);
width = 250;
}
);
},
{
glyphname = "iMatra-deva.08";
lastChange = "2023-07-18 08:24:33 +0000";
layers = (
{
anchors = (
{
name = abvm.i;
pos = (612,667);
}
);
layerId = "26F47EE3-04F7-4A34-AF6F-5DD15DA624B5";
shapes = (
{
closed = 1;
nodes = (
(134,813,ls),
(81,813,o),
(55,787,o),
(55,734,cs),
(55,622,l),
(-20,622,l),
(-20,563,l),
(55,563,l),
(55,0,l),
(124,0,l),
(124,563,l),
(199,563,l),
(199,622,l),
(124,622,l),
(124,723,ls),
(124,749,o),
(129,754,o),
(155,754,cs),
(512,754,ls),
(538,754,o),
(543,749,o),
(543,723,cs),
(543,667,l),
(612,667,l),
(612,734,ls),
(612,787,o),
(586,813,o),
(533,813,c)
);
}
);
width = 179;
},
{
anchors = (
{
name = abvm.i;
pos = (884,676);
}
);
layerId = "13BA2761-E32F-4173-A027-E047921EE288";
shapes = (
{
closed = 1;
nodes = (
(162,858,ls),
(90,858,o),
(40,828,o),
(40,746,cs),
(40,642,l),
(-20,642,l),
(-20,529,l),
(40,529,l),
(40,0,l),
(210,0,l),
(210,529,l),
(270,529,l),
(270,642,l),
(210,642,l),
(210,709,ls),
(210,739,o),
(216,745,o),
(246,745,cs),
(678,745,ls),
(708,745,o),
(714,739,o),
(714,709,cs),
(714,676,l),
(884,676,l),
(884,746,ls),
(884,828,o),
(834,858,o),
(762,858,c)
);
}
);
width = 250;
}
);
},
{
glyphname = "iMatra-deva.09";
lastChange = "2023-07-18 08:24:33 +0000";
layers = (
{
anchors = (
{
name = abvm.i;
pos = (634,667);
}
);
layerId = "26F47EE3-04F7-4A34-AF6F-5DD15DA624B5";
shapes = (
{
closed = 1;
nodes = (
(134,813,ls),
(81,813,o),
(55,787,o),
(55,734,cs),
(55,622,l),
(-20,622,l),
(-20,563,l),
(55,563,l),
(55,0,l),
(124,0,l),
(124,563,l),
(199,563,l),
(199,622,l),
(124,622,l),
(124,723,ls),
(124,749,o),
(129,754,o),
(155,754,cs),
(534,754,ls),
(560,754,o),
(565,749,o),
(565,723,cs),
(565,667,l),
(634,667,l),
(634,734,ls),
(634,787,o),
(608,813,o),
(555,813,c)
);
}
);
width = 179;
},
{
anchors = (
{
name = abvm.i;
pos = (916,676);
}
);
layerId = "13BA2761-E32F-4173-A027-E047921EE288";
shapes = (
{
closed = 1;
nodes = (
(162,858,ls),
(90,858,o),
(40,828,o),
(40,746,cs),
(40,642,l),
(-20,642,l),
(-20,529,l),
(40,529,l),
(40,0,l),
(210,0,l),
(210,529,l),
(270,529,l),
(270,642,l),
(210,642,l),
(210,709,ls),
(210,739,o),
(216,745,o),
(246,745,cs),
(710,745,ls),
(740,745,o),
(746,739,o),
(746,709,cs),
(746,676,l),
(916,676,l),
(916,746,ls),
(916,828,o),
(866,858,o),
(794,858,c)
);
}
);
width = 250;
}
);
},
{
glyphname = "iMatra-deva.10";
lastChange = "2023-07-18 08:24:33 +0000";
layers = (
{
anchors = (
{
name = abvm.i;
pos = (655,667);
}
);
layerId = "26F47EE3-04F7-4A34-AF6F-5DD15DA624B5";
shapes = (
{
closed = 1;
nodes = (
(134,813,ls),
(81,813,o),
(55,787,o),
(55,734,cs),
(55,622,l),
(-20,622,l),
(-20,563,l),
(55,563,l),
(55,0,l),
(124,0,l),
(124,563,l),
(199,563,l),
(199,622,l),
(124,622,l),
(124,723,ls),
(124,749,o),
(129,754,o),
(155,754,cs),
(555,754,ls),
(581,754,o),
(586,749,o),
(586,723,cs),
(586,667,l),
(655,667,l),
(655,734,ls),
(655,787,o),
(629,813,o),
(576,813,c)
);
}
);
width = 179;
},
{
anchors = (
{
name = abvm.i;
pos = (949,676);
}
);
layerId = "13BA2761-E32F-4173-A027-E047921EE288";
shapes = (
{
closed = 1;
nodes = (
(162,858,ls),
(90,858,o),
(40,828,o),
(40,746,cs),
(40,642,l),
(-20,642,l),
(-20,529,l),
(40,529,l),
(40,0,l),
(210,0,l),
(210,529,l),
(270,529,l),
(270,642,l),
(210,642,l),
(210,709,ls),
(210,739,o),
(216,745,o),
(246,745,cs),
(743,745,ls),
(773,745,o),
(779,739,o),
(779,709,cs),
(779,676,l),
(949,676,l),
(949,746,ls),
(949,828,o),
(899,858,o),
(827,858,c)
);
}
);
width = 250;
}
);
},
{
glyphname = "iMatra-deva.11";
lastChange = "2023-07-18 08:24:33 +0000";
layers = (
{
anchors = (
{
name = abvm.i;
pos = (677,667);
}
);
layerId = "26F47EE3-04F7-4A34-AF6F-5DD15DA624B5";
shapes = (
{
closed = 1;
nodes = (
(134,813,ls),
(81,813,o),
(55,787,o),
(55,734,cs),
(55,622,l),
(-20,622,l),
(-20,563,l),
(55,563,l),
(55,0,l),
(124,0,l),
(124,563,l),
(199,563,l),
(199,622,l),
(124,622,l),
(124,723,ls),
(124,749,o),
(129,754,o),
(155,754,cs),
(577,754,ls),
(603,754,o),
(608,749,o),
(608,723,cs),
(608,667,l),
(677,667,l),
(677,734,ls),
(677,787,o),
(651,813,o),
(598,813,c)
);
}
);
width = 179;
},
{
anchors = (
{
name = abvm.i;
pos = (981,676);
}
);
layerId = "13BA2761-E32F-4173-A027-E047921EE288";
shapes = (
{
closed = 1;
nodes = (
(162,858,ls),
(90,858,o),
(40,828,o),
(40,746,cs),
(40,642,l),
(-20,642,l),
(-20,529,l),
(40,529,l),
(40,0,l),
(210,0,l),
(210,529,l),
(270,529,l),
(270,642,l),
(210,642,l),
(210,709,ls),
(210,739,o),
(216,745,o),
(246,745,cs),
(775,745,ls),
(805,745,o),
(811,739,o),
(811,709,cs),
(811,676,l),
(981,676,l),
(981,746,ls),
(981,828,o),
(931,858,o),
(859,858,c)
);
}
);
width = 250;
}
);
},
{
glyphname = "iMatra-deva.12";
lastChange = "2023-07-18 08:24:33 +0000";
layers = (
{
anchors = (
{
name = abvm.i;
pos = (698,667);
}
);
layerId = "26F47EE3-04F7-4A34-AF6F-5DD15DA624B5";
shapes = (
{
closed = 1;
nodes = (
(134,813,ls),
(81,813,o),
(55,787,o),
(55,734,cs),
(55,622,l),
(-20,622,l),
(-20,563,l),
(55,563,l),
(55,0,l),
(124,0,l),
(124,563,l),
(199,563,l),
(199,622,l),
(124,622,l),
(124,723,ls),
(124,749,o),
(129,754,o),
(155,754,cs),
(598,754,ls),
(624,754,o),
(629,749,o),
(629,723,cs),
(629,667,l),
(698,667,l),
(698,734,ls),
(698,787,o),
(672,813,o),
(619,813,c)
);
}
);
width = 179;
},
{
anchors = (
{
name = abvm.i;
pos = (1013,676);
}
);
layerId = "13BA2761-E32F-4173-A027-E047921EE288";
shapes = (
{
closed = 1;
nodes = (
(162,858,ls),
(90,858,o),
(40,828,o),
(40,746,cs),
(40,642,l),
(-20,642,l),
(-20,529,l),
(40,529,l),
(40,0,l),
(210,0,l),
(210,529,l),
(270,529,l),
(270,642,l),
(210,642,l),
(210,709,ls),
(210,739,o),
(216,745,o),
(246,745,cs),
(807,745,ls),
(837,745,o),
(843,739,o),
(843,709,cs),
(843,676,l),
(1013,676,l),
(1013,746,ls),
(1013,828,o),
(963,858,o),
(891,858,c)
);
}
);
width = 250;
}
);
},
{
glyphname = "iMatra-deva.13";
lastChange = "2023-07-18 08:24:33 +0000";
layers = (
{
anchors = (
{
name = abvm.i;
pos = (720,667);
}
);
layerId = "26F47EE3-04F7-4A34-AF6F-5DD15DA624B5";
shapes = (
{
closed = 1;
nodes = (
(134,813,ls),
(81,813,o),
(55,787,o),
(55,734,cs),
(55,622,l),
(-20,622,l),
(-20,563,l),
(55,563,l),
(55,0,l),
(124,0,l),
(124,563,l),
(199,563,l),
(199,622,l),
(124,622,l),
(124,723,ls),
(124,749,o),
(129,754,o),
(155,754,cs),
(620,754,ls),
(646,754,o),
(651,749,o),
(651,723,cs),
(651,667,l),
(720,667,l),
(720,734,ls),
(720,787,o),
(694,813,o),
(641,813,c)
);
}
);
width = 179;
},
{
anchors = (
{
name = abvm.i;
pos = (1045,676);
}
);
layerId = "13BA2761-E32F-4173-A027-E047921EE288";
shapes = (
{
closed = 1;
nodes = (
(162,858,ls),
(90,858,o),
(40,828,o),
(40,746,cs),
(40,642,l),
(-20,642,l),
(-20,529,l),
(40,529,l),
(40,0,l),
(210,0,l),
(210,529,l),
(270,529,l),
(270,642,l),
(210,642,l),
(210,709,ls),
(210,739,o),
(216,745,o),
(246,745,cs),
(839,745,ls),
(869,745,o),
(875,739,o),
(875,709,cs),
(875,676,l),
(1045,676,l),
(1045,746,ls),
(1045,828,o),
(995,858,o),
(923,858,c)
);
}
);
width = 250;
}
);
},
{
glyphname = "iMatra-deva.14";
lastChange = "2023-07-18 08:24:33 +0000";
layers = (
{
anchors = (
{
name = abvm.i;
pos = (741,667);
}
);
layerId = "26F47EE3-04F7-4A34-AF6F-5DD15DA624B5";
shapes = (
{
closed = 1;
nodes = (
(134,813,ls),
(81,813,o),
(55,787,o),
(55,734,cs),
(55,622,l),
(-20,622,l),
(-20,563,l),
(55,563,l),
(55,0,l),
(124,0,l),
(124,563,l),
(199,563,l),
(199,622,l),
(124,622,l),
(124,723,ls),
(124,749,o),
(129,754,o),
(155,754,cs),
(641,754,ls),
(667,754,o),
(672,749,o),
(672,723,cs),
(672,667,l),
(741,667,l),
(741,734,ls),
(741,787,o),
(715,813,o),
(662,813,c)
);
}
);
width = 179;
},
{
anchors = (
{
name = abvm.i;
pos = (1078,676);
}
);
layerId = "13BA2761-E32F-4173-A027-E047921EE288";
shapes = (
{
closed = 1;
nodes = (
(162,858,ls),
(90,858,o),
(40,828,o),
(40,746,cs),
(40,642,l),
(-20,642,l),
(-20,529,l),
(40,529,l),
(40,0,l),
(210,0,l),
(210,529,l),
(270,529,l),
(270,642,l),
(210,642,l),
(210,709,ls),
(210,739,o),
(216,745,o),
(246,745,cs),
(872,745,ls),
(902,745,o),
(908,739,o),
(908,709,cs),
(908,676,l),
(1078,676,l),
(1078,746,ls),
(1078,828,o),
(1028,858,o),
(956,858,c)
);
}
);
width = 250;
}
);
},
{
glyphname = "iMatra-deva.15";
lastChange = "2023-07-18 08:24:33 +0000";
layers = (
{
anchors = (
{
name = abvm.i;
pos = (763,667);
}
);
layerId = "26F47EE3-04F7-4A34-AF6F-5DD15DA624B5";
shapes = (
{
closed = 1;
nodes = (
(134,813,ls),
(81,813,o),
(55,787,o),
(55,734,cs),
(55,622,l),
(-20,622,l),
(-20,563,l),
(55,563,l),
(55,0,l),
(124,0,l),
(124,563,l),
(199,563,l),
(199,622,l),
(124,622,l),
(124,723,ls),
(124,749,o),
(129,754,o),
(155,754,cs),
(663,754,ls),
(689,754,o),
(694,749,o),
(694,723,cs),
(694,667,l),
(763,667,l),
(763,734,ls),
(763,787,o),
(737,813,o),
(684,813,c)
);
}
);
width = 179;
},
{
anchors = (
{
name = abvm.i;
pos = (1110,676);
}
);
layerId = "13BA2761-E32F-4173-A027-E047921EE288";
shapes = (
{
closed = 1;
nodes = (
(162,858,ls),
(90,858,o),
(40,828,o),
(40,746,cs),
(40,642,l),
(-20,642,l),
(-20,529,l),
(40,529,l),
(40,0,l),
(210,0,l),
(210,529,l),
(270,529,l),
(270,642,l),
(210,642,l),
(210,709,ls),
(210,739,o),
(216,745,o),
(246,745,cs),
(904,745,ls),
(934,745,o),
(940,739,o),
(940,709,cs),
(940,676,l),
(1110,676,l),
(1110,746,ls),
(1110,828,o),
(1060,858,o),
(988,858,c)
);
}
);
width = 250;
}
);
},
{
glyphname = "iMatra-deva.16";
lastChange = "2023-07-18 08:24:33 +0000";
layers = (
{
anchors = (
{
name = abvm.i;
pos = (785,667);
}
);
layerId = "26F47EE3-04F7-4A34-AF6F-5DD15DA624B5";
shapes = (
{
closed = 1;
nodes = (
(134,813,ls),
(81,813,o),
(55,787,o),
(55,734,cs),
(55,622,l),
(-20,622,l),
(-20,563,l),
(55,563,l),
(55,0,l),
(124,0,l),
(124,563,l),
(199,563,l),
(199,622,l),
(124,622,l),
(124,723,ls),
(124,749,o),
(129,754,o),
(155,754,cs),
(685,754,ls),
(711,754,o),
(716,749,o),
(716,723,cs),
(716,667,l),
(785,667,l),
(785,734,ls),
(785,787,o),
(759,813,o),
(706,813,c)
);
}
);
width = 179;
},
{
anchors = (
{
name = abvm.i;
pos = (1142,676);
}
);
layerId = "13BA2761-E32F-4173-A027-E047921EE288";
shapes = (
{
closed = 1;
nodes = (
(162,858,ls),
(90,858,o),
(40,828,o),
(40,746,cs),
(40,642,l),
(-20,642,l),
(-20,529,l),
(40,529,l),
(40,0,l),
(210,0,l),
(210,529,l),
(270,529,l),
(270,642,l),
(210,642,l),
(210,709,ls),
(210,739,o),
(216,745,o),
(246,745,cs),
(936,745,ls),
(966,745,o),
(972,739,o),
(972,709,cs),
(972,676,l),
(1142,676,l),
(1142,746,ls),
(1142,828,o),
(1092,858,o),
(1020,858,c)
);
}
);
width = 250;
}
);
},
{
glyphname = "iMatra-deva.17";
lastChange = "2023-07-18 08:24:33 +0000";
layers = (
{
anchors = (
{
name = abvm.i;
pos = (806,667);
}
);
layerId = "26F47EE3-04F7-4A34-AF6F-5DD15DA624B5";
shapes = (
{
closed = 1;
nodes = (
(134,813,ls),
(81,813,o),
(55,787,o),
(55,734,cs),
(55,622,l),
(-20,622,l),
(-20,563,l),
(55,563,l),
(55,0,l),
(124,0,l),
(124,563,l),
(199,563,l),
(199,622,l),
(124,622,l),
(124,723,ls),
(124,749,o),
(129,754,o),
(155,754,cs),
(706,754,ls),
(732,754,o),
(737,749,o),
(737,723,cs),
(737,667,l),
(806,667,l),
(806,734,ls),
(806,787,o),
(780,813,o),
(727,813,c)
);
}
);
width = 179;
},
{
anchors = (
{
name = abvm.i;
pos = (1175,676);
}
);
layerId = "13BA2761-E32F-4173-A027-E047921EE288";
shapes = (
{
closed = 1;
nodes = (
(162,858,ls),
(90,858,o),
(40,828,o),
(40,746,cs),
(40,642,l),
(-20,642,l),
(-20,529,l),
(40,529,l),
(40,0,l),
(210,0,l),
(210,529,l),
(270,529,l),
(270,642,l),
(210,642,l),
(210,709,ls),
(210,739,o),
(216,745,o),
(246,745,cs),
(969,745,ls),
(999,745,o),
(1005,739,o),
(1005,709,cs),
(1005,676,l),
(1175,676,l),
(1175,746,ls),
(1175,828,o),
(1125,858,o),
(1053,858,c)
);
}
);
width = 250;
}
);
},
{
glyphname = "iMatra-deva.18";
lastChange = "2023-07-18 08:24:33 +0000";
layers = (
{
anchors = (
{
name = abvm.i;
pos = (828,667);
}
);
layerId = "26F47EE3-04F7-4A34-AF6F-5DD15DA624B5";
shapes = (
{
closed = 1;
nodes = (
(134,813,ls),
(81,813,o),
(55,787,o),
(55,734,cs),
(55,622,l),
(-20,622,l),
(-20,563,l),
(55,563,l),
(55,0,l),
(124,0,l),
(124,563,l),
(199,563,l),
(199,622,l),
(124,622,l),
(124,723,ls),
(124,749,o),
(129,754,o),
(155,754,cs),
(728,754,ls),
(754,754,o),
(759,749,o),
(759,723,cs),
(759,667,l),
(828,667,l),
(828,734,ls),
(828,787,o),
(802,813,o),
(749,813,c)
);
}
);
width = 179;
},
{
anchors = (
{
name = abvm.i;
pos = (1207,676);
}
);
layerId = "13BA2761-E32F-4173-A027-E047921EE288";
shapes = (
{
closed = 1;
nodes = (
(162,858,ls),
(90,858,o),
(40,828,o),
(40,746,cs),
(40,642,l),
(-20,642,l),
(-20,529,l),
(40,529,l),
(40,0,l),
(210,0,l),
(210,529,l),
(270,529,l),
(270,642,l),
(210,642,l),
(210,709,ls),
(210,739,o),
(216,745,o),
(246,745,cs),
(1001,745,ls),
(1031,745,o),
(1037,739,o),
(1037,709,cs),
(1037,676,l),
(1207,676,l),
(1207,746,ls),
(1207,828,o),
(1157,858,o),
(1085,858,c)
);
}
);
width = 250;
}
);
},
{
glyphname = "iMatra-deva.19";
lastChange = "2023-07-18 08:24:33 +0000";
layers = (
{
anchors = (
{
name = abvm.i;
pos = (849,667);
}
);
layerId = "26F47EE3-04F7-4A34-AF6F-5DD15DA624B5";
shapes = (
{
closed = 1;
nodes = (
(134,813,ls),
(81,813,o),
(55,787,o),
(55,734,cs),
(55,622,l),
(-20,622,l),
(-20,563,l),
(55,563,l),
(55,0,l),
(124,0,l),
(124,563,l),
(199,563,l),
(199,622,l),
(124,622,l),
(124,723,ls),
(124,749,o),
(129,754,o),
(155,754,cs),
(749,754,ls),
(775,754,o),
(780,749,o),
(780,723,cs),
(780,667,l),
(849,667,l),
(849,734,ls),
(849,787,o),
(823,813,o),
(770,813,c)
);
}
);
width = 179;
},
{
anchors = (
{
name = abvm.i;
pos = (1239,676);
}
);
layerId = "13BA2761-E32F-4173-A027-E047921EE288";
shapes = (
{
closed = 1;
nodes = (
(162,858,ls),
(90,858,o),
(40,828,o),
(40,746,cs),
(40,642,l),
(-20,642,l),
(-20,529,l),
(40,529,l),
(40,0,l),
(210,0,l),
(210,529,l),
(270,529,l),
(270,642,l),
(210,642,l),
(210,709,ls),
(210,739,o),
(216,745,o),
(246,745,cs),
(1033,745,ls),
(1063,745,o),
(1069,739,o),
(1069,709,cs),
(1069,676,l),
(1239,676,l),
(1239,746,ls),
(1239,828,o),
(1189,858,o),
(1117,858,c)
);
}
);
width = 250;
}
);
},
{
glyphname = "iMatra-deva.20";
lastChange = "2023-07-18 08:24:33 +0000";
layers = (
{
anchors = (
{
name = abvm.i;
pos = (871,667);
}
);
layerId = "26F47EE3-04F7-4A34-AF6F-5DD15DA624B5";
shapes = (
{
closed = 1;
nodes = (
(134,813,ls),
(81,813,o),
(55,787,o),
(55,734,cs),
(55,622,l),
(-20,622,l),
(-20,563,l),
(55,563,l),
(55,0,l),
(124,0,l),
(124,563,l),
(199,563,l),
(199,622,l),
(124,622,l),
(124,723,ls),
(124,749,o),
(129,754,o),
(155,754,cs),
(771,754,ls),
(797,754,o),
(802,749,o),
(802,723,cs),
(802,667,l),
(871,667,l),
(871,734,ls),
(871,787,o),
(845,813,o),
(792,813,c)
);
}
);
width = 179;
},
{
anchors = (
{
name = abvm.i;
pos = (1272,676);
}
);
layerId = "13BA2761-E32F-4173-A027-E047921EE288";
shapes = (
{
closed = 1;
nodes = (
(162,858,ls),
(90,858,o),
(40,828,o),
(40,746,cs),
(40,642,l),
(-20,642,l),
(-20,529,l),
(40,529,l),
(40,0,l),
(210,0,l),
(210,529,l),
(270,529,l),
(270,642,l),
(210,642,l),
(210,709,ls),
(210,739,o),
(216,745,o),
(246,745,cs),
(1066,745,ls),
(1096,745,o),
(1102,739,o),
(1102,709,cs),
(1102,676,l),
(1272,676,l),
(1272,746,ls),
(1272,828,o),
(1222,858,o),
(1150,858,c)
);
}
);
width = 250;
}
);
},
{
glyphname = "iMatra-deva.21";
lastChange = "2023-07-18 08:24:33 +0000";
layers = (
{
anchors = (
{
name = abvm.i;
pos = (892,667);
}
);
layerId = "26F47EE3-04F7-4A34-AF6F-5DD15DA624B5";
shapes = (
{
closed = 1;
nodes = (
(134,813,ls),
(81,813,o),
(55,787,o),
(55,734,cs),
(55,622,l),
(-20,622,l),
(-20,563,l),
(55,563,l),
(55,0,l),
(124,0,l),
(124,563,l),
(199,563,l),
(199,622,l),
(124,622,l),
(124,723,ls),
(124,749,o),
(129,754,o),
(155,754,cs),
(792,754,ls),
(818,754,o),
(823,749,o),
(823,723,cs),
(823,667,l),
(892,667,l),
(892,734,ls),
(892,787,o),
(866,813,o),
(813,813,c)
);
}
);
width = 179;
},
{
anchors = (
{
name = abvm.i;
pos = (1303,676);
}
);
layerId = "13BA2761-E32F-4173-A027-E047921EE288";
shapes = (
{
closed = 1;
nodes = (
(162,858,ls),
(90,858,o),
(40,828,o),
(40,746,cs),
(40,642,l),
(-20,642,l),
(-20,529,l),
(40,529,l),
(40,0,l),
(210,0,l),
(210,529,l),
(270,529,l),
(270,642,l),
(210,642,l),
(210,709,ls),
(210,739,o),
(216,745,o),
(246,745,cs),
(1097,745,ls),
(1127,745,o),
(1133,739,o),
(1133,709,cs),
(1133,676,l),
(1303,676,l),
(1303,746,ls),
(1303,828,o),
(1253,858,o),
(1181,858,c)
);
}
);
width = 250;
}
);
},
{
glyphname = "iMatra-deva.22";
lastChange = "2023-07-18 08:24:33 +0000";
layers = (
{
anchors = (
{
name = abvm.i;
pos = (914,667);
}
);
layerId = "26F47EE3-04F7-4A34-AF6F-5DD15DA624B5";
shapes = (
{
closed = 1;
nodes = (
(134,813,ls),
(81,813,o),
(55,787,o),
(55,734,cs),
(55,622,l),
(-20,622,l),
(-20,563,l),
(55,563,l),
(55,0,l),
(124,0,l),
(124,563,l),
(199,563,l),
(199,622,l),
(124,622,l),
(124,723,ls),
(124,749,o),
(129,754,o),
(155,754,cs),
(814,754,ls),
(840,754,o),
(845,749,o),
(845,723,cs),
(845,667,l),
(914,667,l),
(914,734,ls),
(914,787,o),
(888,813,o),
(835,813,c)
);
}
);
width = 179;
},
{
anchors = (
{
name = abvm.i;
pos = (1336,676);
}
);
layerId = "13BA2761-E32F-4173-A027-E047921EE288";
shapes = (
{
closed = 1;
nodes = (
(162,858,ls),
(90,858,o),
(40,828,o),
(40,746,cs),
(40,642,l),
(-20,642,l),
(-20,529,l),
(40,529,l),
(40,0,l),
(210,0,l),
(210,529,l),
(270,529,l),
(270,642,l),
(210,642,l),
(210,709,ls),
(210,739,o),
(216,745,o),
(246,745,cs),
(1130,745,ls),
(1160,745,o),
(1166,739,o),
(1166,709,cs),
(1166,676,l),
(1336,676,l),
(1336,746,ls),
(1336,828,o),
(1286,858,o),
(1214,858,c)
);
}
);
width = 250;
}
);
},
{
glyphname = "iMatra-deva.23";
lastChange = "2023-07-18 08:24:33 +0000";
layers = (
{
anchors = (
{
name = abvm.i;
pos = (936,667);
}
);
layerId = "26F47EE3-04F7-4A34-AF6F-5DD15DA624B5";
shapes = (
{
closed = 1;
nodes = (
(134,813,ls),
(81,813,o),
(55,787,o),
(55,734,cs),
(55,622,l),
(-20,622,l),
(-20,563,l),
(55,563,l),
(55,0,l),
(124,0,l),
(124,563,l),
(199,563,l),
(199,622,l),
(124,622,l),
(124,723,ls),
(124,749,o),
(129,754,o),
(155,754,cs),
(836,754,ls),
(862,754,o),
(867,749,o),
(867,723,cs),
(867,667,l),
(936,667,l),
(936,734,ls),
(936,787,o),
(910,813,o),
(857,813,c)
);
}
);
width = 179;
},
{
anchors = (
{
name = abvm.i;
pos = (1368,676);
}
);
layerId = "13BA2761-E32F-4173-A027-E047921EE288";
shapes = (
{
closed = 1;
nodes = (
(162,858,ls),
(90,858,o),
(40,828,o),
(40,746,cs),
(40,642,l),
(-20,642,l),
(-20,529,l),
(40,529,l),
(40,0,l),
(210,0,l),
(210,529,l),
(270,529,l),
(270,642,l),
(210,642,l),
(210,709,ls),
(210,739,o),
(216,745,o),
(246,745,cs),
(1162,745,ls),
(1192,745,o),
(1198,739,o),
(1198,709,cs),
(1198,676,l),
(1368,676,l),
(1368,746,ls),
(1368,828,o),
(1318,858,o),
(1246,858,c)
);
}
);
width = 250;
}
);
},
{
glyphname = "iMatra-deva.24";
lastChange = "2023-07-18 08:24:33 +0000";
layers = (
{
anchors = (
{
name = abvm.i;
pos = (957,667);
}
);
layerId = "26F47EE3-04F7-4A34-AF6F-5DD15DA624B5";
shapes = (
{
closed = 1;
nodes = (
(134,813,ls),
(81,813,o),
(55,787,o),
(55,734,cs),
(55,622,l),
(-20,622,l),
(-20,563,l),
(55,563,l),
(55,0,l),
(124,0,l),
(124,563,l),
(199,563,l),
(199,622,l),
(124,622,l),
(124,723,ls),
(124,749,o),
(129,754,o),
(155,754,cs),
(857,754,ls),
(883,754,o),
(888,749,o),
(888,723,cs),
(888,667,l),
(957,667,l),
(957,734,ls),
(957,787,o),
(931,813,o),
(878,813,c)
);
}
);
width = 179;
},
{
anchors = (
{
name = abvm.i;
pos = (1400,676);
}
);
layerId = "13BA2761-E32F-4173-A027-E047921EE288";
shapes = (
{
closed = 1;
nodes = (
(162,858,ls),
(90,858,o),
(40,828,o),
(40,746,cs),
(40,642,l),
(-20,642,l),
(-20,529,l),
(40,529,l),
(40,0,l),
(210,0,l),
(210,529,l),
(270,529,l),
(270,642,l),
(210,642,l),
(210,709,ls),
(210,739,o),
(216,745,o),
(246,745,cs),
(1194,745,ls),
(1224,745,o),
(1230,739,o),
(1230,709,cs),
(1230,676,l),
(1400,676,l),
(1400,746,ls),
(1400,828,o),
(1350,858,o),
(1278,858,c)
);
}
);
width = 250;
}
);
},
{
glyphname = "iMatra-deva.25";
lastChange = "2023-07-18 08:24:33 +0000";
layers = (
{
anchors = (
{
name = abvm.i;
pos = (979,667);
}
);
layerId = "26F47EE3-04F7-4A34-AF6F-5DD15DA624B5";
shapes = (
{
closed = 1;
nodes = (
(134,813,ls),
(81,813,o),
(55,787,o),
(55,734,cs),
(55,622,l),
(-20,622,l),
(-20,563,l),
(55,563,l),
(55,0,l),
(124,0,l),
(124,563,l),
(199,563,l),
(199,622,l),
(124,622,l),
(124,723,ls),
(124,749,o),
(129,754,o),
(155,754,cs),
(879,754,ls),
(905,754,o),
(910,749,o),
(910,723,cs),
(910,667,l),
(979,667,l),
(979,734,ls),
(979,787,o),
(953,813,o),
(900,813,c)
);
}
);
width = 179;
},
{
anchors = (
{
name = abvm.i;
pos = (1433,676);
}
);
layerId = "13BA2761-E32F-4173-A027-E047921EE288";
shapes = (
{
closed = 1;
nodes = (
(162,858,ls),
(90,858,o),
(40,828,o),
(40,746,cs),
(40,642,l),
(-20,642,l),
(-20,529,l),
(40,529,l),
(40,0,l),
(210,0,l),
(210,529,l),
(270,529,l),
(270,642,l),
(210,642,l),
(210,709,ls),
(210,739,o),
(216,745,o),
(246,745,cs),
(1227,745,ls),
(1257,745,o),
(1263,739,o),
(1263,709,cs),
(1263,676,l),
(1433,676,l),
(1433,746,ls),
(1433,828,o),
(1383,858,o),
(1311,858,c)
);
}
);
width = 250;
}
);
},
{
glyphname = "iMatra-deva.26";
lastChange = "2023-07-18 08:24:33 +0000";
layers = (
{
anchors = (
{
name = abvm.i;
pos = (1000,667);
}
);
layerId = "26F47EE3-04F7-4A34-AF6F-5DD15DA624B5";
shapes = (
{
closed = 1;
nodes = (
(134,813,ls),
(81,813,o),
(55,787,o),
(55,734,cs),
(55,622,l),
(-20,622,l),
(-20,563,l),
(55,563,l),
(55,0,l),
(124,0,l),
(124,563,l),
(199,563,l),
(199,622,l),
(124,622,l),
(124,723,ls),
(124,749,o),
(129,754,o),
(155,754,cs),
(900,754,ls),
(926,754,o),
(931,749,o),
(931,723,cs),
(931,667,l),
(1000,667,l),
(1000,734,ls),
(1000,787,o),
(974,813,o),
(921,813,c)
);
}
);
width = 179;
},
{
anchors = (
{
name = abvm.i;
pos = (1465,676);
}
);
layerId = "13BA2761-E32F-4173-A027-E047921EE288";
shapes = (
{
closed = 1;
nodes = (
(162,858,ls),
(90,858,o),
(40,828,o),
(40,746,cs),
(40,642,l),
(-20,642,l),
(-20,529,l),
(40,529,l),
(40,0,l),
(210,0,l),
(210,529,l),
(270,529,l),
(270,642,l),
(210,642,l),
(210,709,ls),
(210,739,o),
(216,745,o),
(246,745,cs),
(1259,745,ls),
(1289,745,o),
(1295,739,o),
(1295,709,cs),
(1295,676,l),
(1465,676,l),
(1465,746,ls),
(1465,828,o),
(1415,858,o),
(1343,858,c)
);
}
);
width = 250;
}
);
},
{
glyphname = "iMatra-deva.27";
lastChange = "2023-07-18 08:24:33 +0000";
layers = (
{
anchors = (
{
name = abvm.i;
pos = (1022,667);
}
);
layerId = "26F47EE3-04F7-4A34-AF6F-5DD15DA624B5";
shapes = (
{
closed = 1;
nodes = (
(134,813,ls),
(81,813,o),
(55,787,o),
(55,734,cs),
(55,622,l),
(-20,622,l),
(-20,563,l),
(55,563,l),
(55,0,l),
(124,0,l),
(124,563,l),
(199,563,l),
(199,622,l),
(124,622,l),
(124,723,ls),
(124,749,o),
(129,754,o),
(155,754,cs),
(922,754,ls),
(948,754,o),
(953,749,o),
(953,723,cs),
(953,667,l),
(1022,667,l),
(1022,734,ls),
(1022,787,o),
(996,813,o),
(943,813,c)
);
}
);
width = 179;
},
{
anchors = (
{
name = abvm.i;
pos = (1497,676);
}
);
layerId = "13BA2761-E32F-4173-A027-E047921EE288";
shapes = (
{
closed = 1;
nodes = (
(162,858,ls),
(90,858,o),
(40,828,o),
(40,746,cs),
(40,642,l),
(-20,642,l),
(-20,529,l),
(40,529,l),
(40,0,l),
(210,0,l),
(210,529,l),
(270,529,l),
(270,642,l),
(210,642,l),
(210,709,ls),
(210,739,o),
(216,745,o),
(246,745,cs),
(1291,745,ls),
(1321,745,o),
(1327,739,o),
(1327,709,cs),
(1327,676,l),
(1497,676,l),
(1497,746,ls),
(1497,828,o),
(1447,858,o),
(1375,858,c)
);
}
);
width = 250;
}
);
},
{
glyphname = "iMatra-deva.28";
lastChange = "2023-07-18 08:24:33 +0000";
layers = (
{
anchors = (
{
name = abvm.i;
pos = (1043,667);
}
);
layerId = "26F47EE3-04F7-4A34-AF6F-5DD15DA624B5";
shapes = (
{
closed = 1;
nodes = (
(134,813,ls),
(81,813,o),
(55,787,o),
(55,734,cs),
(55,622,l),
(-20,622,l),
(-20,563,l),
(55,563,l),
(55,0,l),
(124,0,l),
(124,563,l),
(199,563,l),
(199,622,l),
(124,622,l),
(124,723,ls),
(124,749,o),
(129,754,o),
(155,754,cs),
(943,754,ls),
(969,754,o),
(974,749,o),
(974,723,cs),
(974,667,l),
(1043,667,l),
(1043,734,ls),
(1043,787,o),
(1017,813,o),
(964,813,c)
);
}
);
width = 179;
},
{
anchors = (
{
name = abvm.i;
pos = (1530,676);
}
);
layerId = "13BA2761-E32F-4173-A027-E047921EE288";
shapes = (
{
closed = 1;
nodes = (
(162,858,ls),
(90,858,o),
(40,828,o),
(40,746,cs),
(40,642,l),
(-20,642,l),
(-20,529,l),
(40,529,l),
(40,0,l),
(210,0,l),
(210,529,l),
(270,529,l),
(270,642,l),
(210,642,l),
(210,709,ls),
(210,739,o),
(216,745,o),
(246,745,cs),
(1324,745,ls),
(1354,745,o),
(1360,739,o),
(1360,709,cs),
(1360,676,l),
(1530,676,l),
(1530,746,ls),
(1530,828,o),
(1480,858,o),
(1408,858,c)
);
}
);
width = 250;
}
);
},
{
glyphname = "iMatra-deva.29";
lastChange = "2023-07-18 08:24:33 +0000";
layers = (
{
anchors = (
{
name = abvm.i;
pos = (1065,667);
}
);
layerId = "26F47EE3-04F7-4A34-AF6F-5DD15DA624B5";
shapes = (
{
closed = 1;
nodes = (
(134,813,ls),
(81,813,o),
(55,787,o),
(55,734,cs),
(55,622,l),
(-20,622,l),
(-20,563,l),
(55,563,l),
(55,0,l),
(124,0,l),
(124,563,l),
(199,563,l),
(199,622,l),
(124,622,l),
(124,723,ls),
(124,749,o),
(129,754,o),
(155,754,cs),
(965,754,ls),
(991,754,o),
(996,749,o),
(996,723,cs),
(996,667,l),
(1065,667,l),
(1065,734,ls),
(1065,787,o),
(1039,813,o),
(986,813,c)
);
}
);
width = 179;
},
{
anchors = (
{
name = abvm.i;
pos = (1562,676);
}
);
layerId = "13BA2761-E32F-4173-A027-E047921EE288";
shapes = (
{
closed = 1;
nodes = (
(162,858,ls),
(90,858,o),
(40,828,o),
(40,746,cs),
(40,642,l),
(-20,642,l),
(-20,529,l),
(40,529,l),
(40,0,l),
(210,0,l),
(210,529,l),
(270,529,l),
(270,642,l),
(210,642,l),
(210,709,ls),
(210,739,o),
(216,745,o),
(246,745,cs),
(1356,745,ls),
(1386,745,o),
(1392,739,o),
(1392,709,cs),
(1392,676,l),
(1562,676,l),
(1562,746,ls),
(1562,828,o),
(1512,858,o),
(1440,858,c)
);
}
);
width = 250;
}
);
},
{
glyphname = "iMatra-deva.30";
lastChange = "2023-07-18 08:24:33 +0000";
layers = (
{
anchors = (
{
name = abvm.i;
pos = (1087,667);
}
);
layerId = "26F47EE3-04F7-4A34-AF6F-5DD15DA624B5";
shapes = (
{
closed = 1;
nodes = (
(134,813,ls),
(81,813,o),
(55,787,o),
(55,734,cs),
(55,622,l),
(-20,622,l),
(-20,563,l),
(55,563,l),
(55,0,l),
(124,0,l),
(124,563,l),
(199,563,l),
(199,622,l),
(124,622,l),
(124,723,ls),
(124,749,o),
(129,754,o),
(155,754,cs),
(987,754,ls),
(1013,754,o),
(1018,749,o),
(1018,723,cs),
(1018,667,l),
(1087,667,l),
(1087,734,ls),
(1087,787,o),
(1061,813,o),
(1008,813,c)
);
}
);
width = 179;
},
{
anchors = (
{
name = abvm.i;
pos = (1595,676);
}
);
layerId = "13BA2761-E32F-4173-A027-E047921EE288";
shapes = (
{
closed = 1;
nodes = (
(162,858,ls),
(90,858,o),
(40,828,o),
(40,746,cs),
(40,642,l),
(-20,642,l),
(-20,529,l),
(40,529,l),
(40,0,l),
(210,0,l),
(210,529,l),
(270,529,l),
(270,642,l),
(210,642,l),
(210,709,ls),
(210,739,o),
(216,745,o),
(246,745,cs),
(1389,745,ls),
(1419,745,o),
(1425,739,o),
(1425,709,cs),
(1425,676,l),
(1595,676,l),
(1595,746,ls),
(1595,828,o),
(1545,858,o),
(1473,858,c)
);
}
);
width = 250;
}
);
},
{
glyphname = "iMatra-deva.31";
lastChange = "2023-07-18 08:24:33 +0000";
layers = (
{
anchors = (
{
name = abvm.i;
pos = (1108,667);
}
);
layerId = "26F47EE3-04F7-4A34-AF6F-5DD15DA624B5";
shapes = (
{
closed = 1;
nodes = (
(134,813,ls),
(81,813,o),
(55,787,o),
(55,734,cs),
(55,622,l),
(-20,622,l),
(-20,563,l),
(55,563,l),
(55,0,l),
(124,0,l),
(124,563,l),
(199,563,l),
(199,622,l),
(124,622,l),
(124,723,ls),
(124,749,o),
(129,754,o),
(155,754,cs),
(1008,754,ls),
(1034,754,o),
(1039,749,o),
(1039,723,cs),
(1039,667,l),
(1108,667,l),
(1108,734,ls),
(1108,787,o),
(1082,813,o),
(1029,813,c)
);
}
);
width = 179;
},
{
anchors = (
{
name = abvm.i;
pos = (1627,676);
}
);
layerId = "13BA2761-E32F-4173-A027-E047921EE288";
shapes = (
{
closed = 1;
nodes = (
(162,858,ls),
(90,858,o),
(40,828,o),
(40,746,cs),
(40,642,l),
(-20,642,l),
(-20,529,l),
(40,529,l),
(40,0,l),
(210,0,l),
(210,529,l),
(270,529,l),
(270,642,l),
(210,642,l),
(210,709,ls),
(210,739,o),
(216,745,o),
(246,745,cs),
(1421,745,ls),
(1451,745,o),
(1457,739,o),
(1457,709,cs),
(1457,676,l),
(1627,676,l),
(1627,746,ls),
(1627,828,o),
(1577,858,o),
(1505,858,c)
);
}
);
width = 250;
}
);
},
{
glyphname = "iMatra-deva.32";
lastChange = "2023-07-18 08:24:33 +0000";
layers = (
{
anchors = (
{
name = abvm.i;
pos = (1130,667);
}
);
layerId = "26F47EE3-04F7-4A34-AF6F-5DD15DA624B5";
shapes = (
{
closed = 1;
nodes = (
(134,813,ls),
(81,813,o),
(55,787,o),
(55,734,cs),
(55,622,l),
(-20,622,l),
(-20,563,l),
(55,563,l),
(55,0,l),
(124,0,l),
(124,563,l),
(199,563,l),
(199,622,l),
(124,622,l),
(124,723,ls),
(124,749,o),
(129,754,o),
(155,754,cs),
(1030,754,ls),
(1056,754,o),
(1061,749,o),
(1061,723,cs),
(1061,667,l),
(1130,667,l),
(1130,734,ls),
(1130,787,o),
(1104,813,o),
(1051,813,c)
);
}
);
width = 179;
},
{
anchors = (
{
name = abvm.i;
pos = (1658,676);
}
);
layerId = "13BA2761-E32F-4173-A027-E047921EE288";
shapes = (
{
closed = 1;
nodes = (
(162,858,ls),
(90,858,o),
(40,828,o),
(40,746,cs),
(40,642,l),
(-20,642,l),
(-20,529,l),
(40,529,l),
(40,0,l),
(210,0,l),
(210,529,l),
(270,529,l),
(270,642,l),
(210,642,l),
(210,709,ls),
(210,739,o),
(216,745,o),
(246,745,cs),
(1452,745,ls),
(1482,745,o),
(1488,739,o),
(1488,709,cs),
(1488,676,l),
(1658,676,l),
(1658,746,ls),
(1658,828,o),
(1608,858,o),
(1536,858,c)
);
}
);
width = 250;
}
);
},
{
glyphname = "iMatra-deva.33";
lastChange = "2023-07-18 08:24:33 +0000";
layers = (
{
anchors = (
{
name = abvm.i;
pos = (1151,667);
}
);
layerId = "26F47EE3-04F7-4A34-AF6F-5DD15DA624B5";
shapes = (
{
closed = 1;
nodes = (
(134,813,ls),
(81,813,o),
(55,787,o),
(55,734,cs),
(55,622,l),
(-20,622,l),
(-20,563,l),
(55,563,l),
(55,0,l),
(124,0,l),
(124,563,l),
(199,563,l),
(199,622,l),
(124,622,l),
(124,723,ls),
(124,749,o),
(129,754,o),
(155,754,cs),
(1051,754,ls),
(1077,754,o),
(1082,749,o),
(1082,723,cs),
(1082,667,l),
(1151,667,l),
(1151,734,ls),
(1151,787,o),
(1125,813,o),
(1072,813,c)
);
}
);
width = 179;
},
{
anchors = (
{
name = abvm.i;
pos = (1691,676);
}
);
layerId = "13BA2761-E32F-4173-A027-E047921EE288";
shapes = (
{
closed = 1;
nodes = (
(162,858,ls),
(90,858,o),
(40,828,o),
(40,746,cs),
(40,642,l),
(-20,642,l),
(-20,529,l),
(40,529,l),
(40,0,l),
(210,0,l),
(210,529,l),
(270,529,l),
(270,642,l),
(210,642,l),
(210,709,ls),
(210,739,o),
(216,745,o),
(246,745,cs),
(1485,745,ls),
(1515,745,o),
(1521,739,o),
(1521,709,cs),
(1521,676,l),
(1691,676,l),
(1691,746,ls),
(1691,828,o),
(1641,858,o),
(1569,858,c)
);
}
);
width = 250;
}
);
},
{
glyphname = "iMatra-deva.34";
lastChange = "2023-07-18 08:24:33 +0000";
layers = (
{
anchors = (
{
name = abvm.i;
pos = (1173,667);
}
);
layerId = "26F47EE3-04F7-4A34-AF6F-5DD15DA624B5";
shapes = (
{
closed = 1;
nodes = (
(134,813,ls),
(81,813,o),
(55,787,o),
(55,734,cs),
(55,622,l),
(-20,622,l),
(-20,563,l),
(55,563,l),
(55,0,l),
(124,0,l),
(124,563,l),
(199,563,l),
(199,622,l),
(124,622,l),
(124,723,ls),
(124,749,o),
(129,754,o),
(155,754,cs),
(1073,754,ls),
(1099,754,o),
(1104,749,o),
(1104,723,cs),
(1104,667,l),
(1173,667,l),
(1173,734,ls),
(1173,787,o),
(1147,813,o),
(1094,813,c)
);
}
);
width = 179;
},
{
anchors = (
{
name = abvm.i;
pos = (1723,676);
}
);
layerId = "13BA2761-E32F-4173-A027-E047921EE288";
shapes = (
{
closed = 1;
nodes = (
(162,858,ls),
(90,858,o),
(40,828,o),
(40,746,cs),
(40,642,l),
(-20,642,l),
(-20,529,l),
(40,529,l),
(40,0,l),
(210,0,l),
(210,529,l),
(270,529,l),
(270,642,l),
(210,642,l),
(210,709,ls),
(210,739,o),
(216,745,o),
(246,745,cs),
(1517,745,ls),
(1547,745,o),
(1553,739,o),
(1553,709,cs),
(1553,676,l),
(1723,676,l),
(1723,746,ls),
(1723,828,o),
(1673,858,o),
(1601,858,c)
);
}
);
width = 250;
}
);
},
{
glyphname = "iMatra-deva.35";
lastChange = "2023-07-18 08:24:33 +0000";
layers = (
{
anchors = (
{
name = abvm.i;
pos = (1194,667);
}
);
layerId = "26F47EE3-04F7-4A34-AF6F-5DD15DA624B5";
shapes = (
{
closed = 1;
nodes = (
(134,813,l),
(81,813,o),
(55,787,o),
(55,734,c),
(55,622,l),
(-20,622,l),
(-20,563,l),
(55,563,l),
(55,0,l),
(124,0,l),
(124,563,l),
(199,563,l),
(199,622,l),
(124,622,l),
(124,723,l),
(124,749,o),
(129,754,o),
(155,754,c),
(1094,754,l),
(1120,754,o),
(1125,749,o),
(1125,723,c),
(1125,667,l),
(1194,667,l),
(1194,734,l),
(1194,787,o),
(1168,813,o),
(1115,813,c)
);
}
);
width = 179;
},
{
anchors = (
{
name = abvm.i;
pos = (1756,676);
}
);
layerId = "13BA2761-E32F-4173-A027-E047921EE288";
shapes = (
{
closed = 1;
nodes = (
(162,858,ls),
(90,858,o),
(40,828,o),
(40,746,cs),
(40,642,l),
(-20,642,l),
(-20,529,l),
(40,529,l),
(40,0,l),
(210,0,l),
(210,529,l),
(270,529,l),
(270,642,l),
(210,642,l),
(210,709,ls),
(210,739,o),
(216,745,o),
(246,745,cs),
(1550,745,ls),
(1580,745,o),
(1586,739,o),
(1586,709,cs),
(1586,676,l),
(1756,676,l),
(1756,746,ls),
(1756,828,o),
(1706,858,o),
(1634,858,c)
);
}
);
width = 250;
}
);
},
{
glyphname = "iMatra-deva.36";
lastChange = "2023-07-18 08:24:33 +0000";
layers = (
{
anchors = (
{
name = abvm.i;
pos = (1216,667);
}
);
layerId = "26F47EE3-04F7-4A34-AF6F-5DD15DA624B5";
shapes = (
{
closed = 1;
nodes = (
(134,813,ls),
(81,813,o),
(55,787,o),
(55,734,cs),
(55,622,l),
(-20,622,l),
(-20,563,l),
(55,563,l),
(55,0,l),
(124,0,l),
(124,563,l),
(199,563,l),
(199,622,l),
(124,622,l),
(124,723,ls),
(124,749,o),
(129,754,o),
(155,754,cs),
(1116,754,ls),
(1142,754,o),
(1147,749,o),
(1147,723,cs),
(1147,667,l),
(1216,667,l),
(1216,734,ls),
(1216,787,o),
(1190,813,o),
(1137,813,c)
);
}
);
width = 179;
},
{
anchors = (
{
name = abvm.i;
pos = (1788,676);
}
);
layerId = "13BA2761-E32F-4173-A027-E047921EE288";
shapes = (
{
closed = 1;
nodes = (
(162,858,ls),
(90,858,o),
(40,828,o),
(40,746,cs),
(40,642,l),
(-20,642,l),
(-20,529,l),
(40,529,l),
(40,0,l),
(210,0,l),
(210,529,l),
(270,529,l),
(270,642,l),
(210,642,l),
(210,709,ls),
(210,739,o),
(216,745,o),
(246,745,cs),
(1582,745,ls),
(1612,745,o),
(1618,739,o),
(1618,709,cs),
(1618,676,l),
(1788,676,l),
(1788,746,ls),
(1788,828,o),
(1738,858,o),
(1666,858,c)
);
}
);
width = 250;
}
);
},
{
glyphname = "iMatra-deva.37";
lastChange = "2023-07-18 08:24:33 +0000";
layers = (
{
anchors = (
{
name = abvm.i;
pos = (1238,667);
}
);
layerId = "26F47EE3-04F7-4A34-AF6F-5DD15DA624B5";
shapes = (
{
closed = 1;
nodes = (
(134,813,ls),
(81,813,o),
(55,787,o),
(55,734,cs),
(55,622,l),
(-20,622,l),
(-20,563,l),
(55,563,l),
(55,0,l),
(124,0,l),
(124,563,l),
(199,563,l),
(199,622,l),
(124,622,l),
(124,723,ls),
(124,749,o),
(129,754,o),
(155,754,cs),
(1138,754,ls),
(1164,754,o),
(1169,749,o),
(1169,723,cs),
(1169,667,l),
(1238,667,l),
(1238,734,ls),
(1238,787,o),
(1212,813,o),
(1159,813,c)
);
}
);
width = 179;
},
{
anchors = (
{
name = abvm.i;
pos = (1820,676);
}
);
layerId = "13BA2761-E32F-4173-A027-E047921EE288";
shapes = (
{
closed = 1;
nodes = (
(162,858,ls),
(90,858,o),
(40,828,o),
(40,746,cs),
(40,642,l),
(-20,642,l),
(-20,529,l),
(40,529,l),
(40,0,l),
(210,0,l),
(210,529,l),
(270,529,l),
(270,642,l),
(210,642,l),
(210,709,ls),
(210,739,o),
(216,745,o),
(246,745,cs),
(1614,745,ls),
(1644,745,o),
(1650,739,o),
(1650,709,cs),
(1650,676,l),
(1820,676,l),
(1820,746,ls),
(1820,828,o),
(1770,858,o),
(1698,858,c)
);
}
);
width = 250;
}
);
},
{
glyphname = "iMatra-deva.38";
lastChange = "2023-07-18 08:24:33 +0000";
layers = (
{
anchors = (
{
name = abvm.i;
pos = (1259,667);
}
);
layerId = "26F47EE3-04F7-4A34-AF6F-5DD15DA624B5";
shapes = (
{
closed = 1;
nodes = (
(134,813,ls),
(81,813,o),
(55,787,o),
(55,734,cs),
(55,622,l),
(-20,622,l),
(-20,563,l),
(55,563,l),
(55,0,l),
(124,0,l),
(124,563,l),
(199,563,l),
(199,622,l),
(124,622,l),
(124,723,ls),
(124,749,o),
(129,754,o),
(155,754,cs),
(1159,754,ls),
(1185,754,o),
(1190,749,o),
(1190,723,cs),
(1190,667,l),
(1259,667,l),
(1259,734,ls),
(1259,787,o),
(1233,813,o),
(1180,813,c)
);
}
);
width = 179;
},
{
anchors = (
{
name = abvm.i;
pos = (1853,676);
}
);
layerId = "13BA2761-E32F-4173-A027-E047921EE288";
shapes = (
{
closed = 1;
nodes = (
(162,858,ls),
(90,858,o),
(40,828,o),
(40,746,cs),
(40,642,l),
(-20,642,l),
(-20,529,l),
(40,529,l),
(40,0,l),
(210,0,l),
(210,529,l),
(270,529,l),
(270,642,l),
(210,642,l),
(210,709,ls),
(210,739,o),
(216,745,o),
(246,745,cs),
(1647,745,ls),
(1677,745,o),
(1683,739,o),
(1683,709,cs),
(1683,676,l),
(1853,676,l),
(1853,746,ls),
(1853,828,o),
(1803,858,o),
(1731,858,c)
);
}
);
width = 250;
}
);
},
{
glyphname = "iMatra-deva.39";
lastChange = "2023-07-18 08:24:33 +0000";
layers = (
{
anchors = (
{
name = abvm.i;
pos = (1281,667);
}
);
layerId = "26F47EE3-04F7-4A34-AF6F-5DD15DA624B5";
shapes = (
{
closed = 1;
nodes = (
(134,813,ls),
(81,813,o),
(55,787,o),
(55,734,cs),
(55,622,l),
(-20,622,l),
(-20,563,l),
(55,563,l),
(55,0,l),
(124,0,l),
(124,563,l),
(199,563,l),
(199,622,l),
(124,622,l),
(124,723,ls),
(124,749,o),
(129,754,o),
(155,754,cs),
(1181,754,ls),
(1207,754,o),
(1212,749,o),
(1212,723,cs),
(1212,667,l),
(1281,667,l),
(1281,734,ls),
(1281,787,o),
(1255,813,o),
(1202,813,c)
);
}
);
width = 179;
},
{
anchors = (
{
name = abvm.i;
pos = (1885,676);
}
);
layerId = "13BA2761-E32F-4173-A027-E047921EE288";
shapes = (
{
closed = 1;
nodes = (
(162,858,ls),
(90,858,o),
(40,828,o),
(40,746,cs),
(40,642,l),
(-20,642,l),
(-20,529,l),
(40,529,l),
(40,0,l),
(210,0,l),
(210,529,l),
(270,529,l),
(270,642,l),
(210,642,l),
(210,709,ls),
(210,739,o),
(216,745,o),
(246,745,cs),
(1679,745,ls),
(1709,745,o),
(1715,739,o),
(1715,709,cs),
(1715,676,l),
(1885,676,l),
(1885,746,ls),
(1885,828,o),
(1835,858,o),
(1763,858,c)
);
}
);
width = 250;
}
);
},
{
glyphname = "iMatra-deva.40";
lastChange = "2023-07-18 08:24:34 +0000";
layers = (
{
anchors = (
{
name = abvm.i;
pos = (1302,667);
}
);
layerId = "26F47EE3-04F7-4A34-AF6F-5DD15DA624B5";
shapes = (
{
closed = 1;
nodes = (
(134,813,ls),
(81,813,o),
(55,787,o),
(55,734,cs),
(55,622,l),
(-20,622,l),
(-20,563,l),
(55,563,l),
(55,0,l),
(124,0,l),
(124,563,l),
(199,563,l),
(199,622,l),
(124,622,l),
(124,723,ls),
(124,749,o),
(129,754,o),
(155,754,cs),
(1202,754,ls),
(1228,754,o),
(1233,749,o),
(1233,723,cs),
(1233,667,l),
(1302,667,l),
(1302,734,ls),
(1302,787,o),
(1276,813,o),
(1223,813,c)
);
}
);
width = 179;
},
{
anchors = (
{
name = abvm.i;
pos = (1917,676);
}
);
layerId = "13BA2761-E32F-4173-A027-E047921EE288";
shapes = (
{
closed = 1;
nodes = (
(162,858,ls),
(90,858,o),
(40,828,o),
(40,746,cs),
(40,642,l),
(-20,642,l),
(-20,529,l),
(40,529,l),
(40,0,l),
(210,0,l),
(210,529,l),
(270,529,l),
(270,642,l),
(210,642,l),
(210,709,ls),
(210,739,o),
(216,745,o),
(246,745,cs),
(1711,745,ls),
(1741,745,o),
(1747,739,o),
(1747,709,cs),
(1747,676,l),
(1917,676,l),
(1917,746,ls),
(1917,828,o),
(1867,858,o),
(1795,858,c)
);
}
);
width = 250;
}
);
},
{
glyphname = "iMatra-deva.41";
lastChange = "2023-07-18 08:24:34 +0000";
layers = (
{
anchors = (
{
name = abvm.i;
pos = (1324,667);
}
);
layerId = "26F47EE3-04F7-4A34-AF6F-5DD15DA624B5";
shapes = (
{
closed = 1;
nodes = (
(134,813,ls),
(81,813,o),
(55,787,o),
(55,734,cs),
(55,622,l),
(-20,622,l),
(-20,563,l),
(55,563,l),
(55,0,l),
(124,0,l),
(124,563,l),
(199,563,l),
(199,622,l),
(124,622,l),
(124,723,ls),
(124,749,o),
(129,754,o),
(155,754,cs),
(1224,754,ls),
(1250,754,o),
(1255,749,o),
(1255,723,cs),
(1255,667,l),
(1324,667,l),
(1324,734,ls),
(1324,787,o),
(1298,813,o),
(1245,813,c)
);
}
);
width = 179;
},
{
anchors = (
{
name = abvm.i;
pos = (1949,676);
}
);
layerId = "13BA2761-E32F-4173-A027-E047921EE288";
shapes = (
{
closed = 1;
nodes = (
(162,858,ls),
(90,858,o),
(40,828,o),
(40,746,cs),
(40,642,l),
(-20,642,l),
(-20,529,l),
(40,529,l),
(40,0,l),
(210,0,l),
(210,529,l),
(270,529,l),
(270,642,l),
(210,642,l),
(210,709,ls),
(210,739,o),
(216,745,o),
(246,745,cs),
(1743,745,ls),
(1773,745,o),
(1779,739,o),
(1779,709,cs),
(1779,676,l),
(1949,676,l),
(1949,746,ls),
(1949,828,o),
(1899,858,o),
(1827,858,c)
);
}
);
width = 250;
}
);
},
{
glyphname = "iMatra-deva.42";
lastChange = "2023-07-18 08:24:34 +0000";
layers = (
{
anchors = (
{
name = abvm.i;
pos = (1345,667);
}
);
layerId = "26F47EE3-04F7-4A34-AF6F-5DD15DA624B5";
shapes = (
{
closed = 1;
nodes = (
(134,813,ls),
(81,813,o),
(55,787,o),
(55,734,cs),
(55,622,l),
(-20,622,l),
(-20,563,l),
(55,563,l),
(55,0,l),
(124,0,l),
(124,563,l),
(199,563,l),
(199,622,l),
(124,622,l),
(124,723,ls),
(124,749,o),
(129,754,o),
(155,754,cs),
(1245,754,ls),
(1271,754,o),
(1276,749,o),
(1276,723,cs),
(1276,667,l),
(1345,667,l),
(1345,734,ls),
(1345,787,o),
(1319,813,o),
(1266,813,c)
);
}
);
width = 179;
},
{
anchors = (
{
name = abvm.i;
pos = (1982,676);
}
);
layerId = "13BA2761-E32F-4173-A027-E047921EE288";
shapes = (
{
closed = 1;
nodes = (
(162,858,ls),
(90,858,o),
(40,828,o),
(40,746,cs),
(40,642,l),
(-20,642,l),
(-20,529,l),
(40,529,l),
(40,0,l),
(210,0,l),
(210,529,l),
(270,529,l),
(270,642,l),
(210,642,l),
(210,709,ls),
(210,739,o),
(216,745,o),
(246,745,cs),
(1776,745,ls),
(1806,745,o),
(1812,739,o),
(1812,709,cs),
(1812,676,l),
(1982,676,l),
(1982,746,ls),
(1982,828,o),
(1932,858,o),
(1860,858,c)
);
}
);
width = 250;
}
);
},
{
glyphname = "iMatra-deva.43";
lastChange = "2023-07-18 08:24:34 +0000";
layers = (
{
anchors = (
{
name = abvm.i;
pos = (1367,667);
}
);
layerId = "26F47EE3-04F7-4A34-AF6F-5DD15DA624B5";
shapes = (
{
closed = 1;
nodes = (
(134,813,ls),
(81,813,o),
(55,787,o),
(55,734,cs),
(55,622,l),
(-20,622,l),
(-20,563,l),
(55,563,l),
(55,0,l),
(124,0,l),
(124,563,l),
(199,563,l),
(199,622,l),
(124,622,l),
(124,723,ls),
(124,749,o),
(129,754,o),
(155,754,cs),
(1267,754,ls),
(1293,754,o),
(1298,749,o),
(1298,723,cs),
(1298,667,l),
(1367,667,l),
(1367,734,ls),
(1367,787,o),
(1341,813,o),
(1288,813,c)
);
}
);
width = 179;
},
{
anchors = (
{
name = abvm.i;
pos = (2014,676);
}
);
layerId = "13BA2761-E32F-4173-A027-E047921EE288";
shapes = (
{
closed = 1;
nodes = (
(162,858,ls),
(90,858,o),
(40,828,o),
(40,746,cs),
(40,642,l),
(-20,642,l),
(-20,529,l),
(40,529,l),
(40,0,l),
(210,0,l),
(210,529,l),
(270,529,l),
(270,642,l),
(210,642,l),
(210,709,ls),
(210,739,o),
(216,745,o),
(246,745,cs),
(1808,745,ls),
(1838,745,o),
(1844,739,o),
(1844,709,cs),
(1844,676,l),
(2014,676,l),
(2014,746,ls),
(2014,828,o),
(1964,858,o),
(1892,858,c)
);
}
);
width = 250;
}
);
},
{
glyphname = "iMatra-deva.44";
lastChange = "2023-07-18 08:24:34 +0000";
layers = (
{
anchors = (
{
name = abvm.i;
pos = (1389,667);
}
);
layerId = "26F47EE3-04F7-4A34-AF6F-5DD15DA624B5";
shapes = (
{
closed = 1;
nodes = (
(134,813,ls),
(81,813,o),
(55,787,o),
(55,734,cs),
(55,622,l),
(-20,622,l),
(-20,563,l),
(55,563,l),
(55,0,l),
(124,0,l),
(124,563,l),
(199,563,l),
(199,622,l),
(124,622,l),
(124,723,ls),
(124,749,o),
(129,754,o),
(155,754,cs),
(1289,754,ls),
(1315,754,o),
(1320,749,o),
(1320,723,cs),
(1320,667,l),
(1389,667,l),
(1389,734,ls),
(1389,787,o),
(1363,813,o),
(1310,813,c)
);
}
);
width = 179;
},
{
anchors = (
{
name = abvm.i;
pos = (2046,676);
}
);
layerId = "13BA2761-E32F-4173-A027-E047921EE288";
shapes = (
{
closed = 1;
nodes = (
(162,858,ls),
(90,858,o),
(40,828,o),
(40,746,cs),
(40,642,l),
(-20,642,l),
(-20,529,l),
(40,529,l),
(40,0,l),
(210,0,l),
(210,529,l),
(270,529,l),
(270,642,l),
(210,642,l),
(210,709,ls),
(210,739,o),
(216,745,o),
(246,745,cs),
(1840,745,ls),
(1870,745,o),
(1876,739,o),
(1876,709,cs),
(1876,676,l),
(2046,676,l),
(2046,746,ls),
(2046,828,o),
(1996,858,o),
(1924,858,c)
);
}
);
width = 250;
}
);
},
{
glyphname = "iMatra-deva.45";
lastChange = "2023-07-18 08:24:34 +0000";
layers = (
{
anchors = (
{
name = abvm.i;
pos = (1410,667);
}
);
layerId = "26F47EE3-04F7-4A34-AF6F-5DD15DA624B5";
shapes = (
{
closed = 1;
nodes = (
(134,813,ls),
(81,813,o),
(55,787,o),
(55,734,cs),
(55,622,l),
(-20,622,l),
(-20,563,l),
(55,563,l),
(55,0,l),
(124,0,l),
(124,563,l),
(199,563,l),
(199,622,l),
(124,622,l),
(124,723,ls),
(124,749,o),
(129,754,o),
(155,754,cs),
(1310,754,ls),
(1336,754,o),
(1341,749,o),
(1341,723,cs),
(1341,667,l),
(1410,667,l),
(1410,734,ls),
(1410,787,o),
(1384,813,o),
(1331,813,c)
);
}
);
width = 179;
},
{
anchors = (
{
name = abvm.i;
pos = (2079,676);
}
);
layerId = "13BA2761-E32F-4173-A027-E047921EE288";
shapes = (
{
closed = 1;
nodes = (
(162,858,ls),
(90,858,o),
(40,828,o),
(40,746,cs),
(40,642,l),
(-20,642,l),
(-20,529,l),
(40,529,l),
(40,0,l),
(210,0,l),
(210,529,l),
(270,529,l),
(270,642,l),
(210,642,l),
(210,709,ls),
(210,739,o),
(216,745,o),
(246,745,cs),
(1873,745,ls),
(1903,745,o),
(1909,739,o),
(1909,709,cs),
(1909,676,l),
(2079,676,l),
(2079,746,ls),
(2079,828,o),
(2029,858,o),
(1957,858,c)
);
}
);
width = 250;
}
);
},
{
glyphname = "iMatra-deva.46";
lastChange = "2023-07-18 08:24:34 +0000";
layers = (
{
anchors = (
{
name = abvm.i;
pos = (1432,667);
}
);
layerId = "26F47EE3-04F7-4A34-AF6F-5DD15DA624B5";
shapes = (
{
closed = 1;
nodes = (
(134,813,l),
(81,813,o),
(55,787,o),
(55,734,c),
(55,622,l),
(-20,622,l),
(-20,563,l),
(55,563,l),
(55,0,l),
(124,0,l),
(124,563,l),
(199,563,l),
(199,622,l),
(124,622,l),
(124,723,l),
(124,749,o),
(129,754,o),
(155,754,c),
(1332,754,l),
(1358,754,o),
(1363,749,o),
(1363,723,c),
(1363,667,l),
(1432,667,l),
(1432,734,l),
(1432,787,o),
(1406,813,o),
(1353,813,c)
);
}
);
width = 179;
},
{
anchors = (
{
name = abvm.i;
pos = (2111,676);
}
);
layerId = "13BA2761-E32F-4173-A027-E047921EE288";
shapes = (
{
closed = 1;
nodes = (
(162,858,ls),
(90,858,o),
(40,828,o),
(40,746,cs),
(40,642,l),
(-20,642,l),
(-20,529,l),
(40,529,l),
(40,0,l),
(210,0,l),
(210,529,l),
(270,529,l),
(270,642,l),
(210,642,l),
(210,709,ls),
(210,739,o),
(216,745,o),
(246,745,cs),
(1905,745,ls),
(1935,745,o),
(1941,739,o),
(1941,709,cs),
(1941,676,l),
(2111,676,l),
(2111,746,ls),
(2111,828,o),
(2061,858,o),
(1989,858,c)
);
}
);
width = 250;
}
);
},
{
glyphname = "iMatra-deva.47";
lastChange = "2023-07-18 08:24:34 +0000";
layers = (
{
anchors = (
{
name = abvm.i;
pos = (1453,667);
}
);
layerId = "26F47EE3-04F7-4A34-AF6F-5DD15DA624B5";
shapes = (
{
closed = 1;
nodes = (
(134,813,ls),
(81,813,o),
(55,787,o),
(55,734,cs),
(55,622,l),
(-20,622,l),
(-20,563,l),
(55,563,l),
(55,0,l),
(124,0,l),
(124,563,l),
(199,563,l),
(199,622,l),
(124,622,l),
(124,723,ls),
(124,749,o),
(129,754,o),
(155,754,cs),
(1353,754,ls),
(1379,754,o),
(1384,749,o),
(1384,723,cs),
(1384,667,l),
(1453,667,l),
(1453,734,ls),
(1453,787,o),
(1427,813,o),
(1374,813,c)
);
}
);
width = 179;
},
{
anchors = (
{
name = abvm.i;
pos = (2143,676);
}
);
layerId = "13BA2761-E32F-4173-A027-E047921EE288";
shapes = (
{
closed = 1;
nodes = (
(162,858,ls),
(90,858,o),
(40,828,o),
(40,746,cs),
(40,642,l),
(-20,642,l),
(-20,529,l),
(40,529,l),
(40,0,l),
(210,0,l),
(210,529,l),
(270,529,l),
(270,642,l),
(210,642,l),
(210,709,ls),
(210,739,o),
(216,745,o),
(246,745,cs),
(1937,745,ls),
(1967,745,o),
(1973,739,o),
(1973,709,cs),
(1973,676,l),
(2143,676,l),
(2143,746,ls),
(2143,828,o),
(2093,858,o),
(2021,858,c)
);
}
);
width = 250;
}
);
},
{
glyphname = "iMatra-deva.48";
lastChange = "2023-07-18 08:24:34 +0000";
layers = (
{
anchors = (
{
name = abvm.i;
pos = (1475,667);
}
);
layerId = "26F47EE3-04F7-4A34-AF6F-5DD15DA624B5";
shapes = (
{
closed = 1;
nodes = (
(134,813,ls),
(81,813,o),
(55,787,o),
(55,734,cs),
(55,622,l),
(-20,622,l),
(-20,563,l),
(55,563,l),
(55,0,l),
(124,0,l),
(124,563,l),
(199,563,l),
(199,622,l),
(124,622,l),
(124,723,ls),
(124,749,o),
(129,754,o),
(155,754,cs),
(1375,754,ls),
(1401,754,o),
(1406,749,o),
(1406,723,cs),
(1406,667,l),
(1475,667,l),
(1475,734,ls),
(1475,787,o),
(1449,813,o),
(1396,813,c)
);
}
);
width = 179;
},
{
anchors = (
{
name = abvm.i;
pos = (2175,676);
}
);
layerId = "13BA2761-E32F-4173-A027-E047921EE288";
shapes = (
{
closed = 1;
nodes = (
(162,858,ls),
(90,858,o),
(40,828,o),
(40,746,cs),
(40,642,l),
(-20,642,l),
(-20,529,l),
(40,529,l),
(40,0,l),
(210,0,l),
(210,529,l),
(270,529,l),
(270,642,l),
(210,642,l),
(210,709,ls),
(210,739,o),
(216,745,o),
(246,745,cs),
(1969,745,ls),
(1999,745,o),
(2005,739,o),
(2005,709,cs),
(2005,676,l),
(2175,676,l),
(2175,746,ls),
(2175,828,o),
(2125,858,o),
(2053,858,c)
);
}
);
width = 250;
}
);
},
{
glyphname = "iMatra-deva.49";
lastChange = "2023-07-18 08:24:34 +0000";
layers = (
{
anchors = (
{
name = abvm.i;
pos = (1496,667);
}
);
layerId = "26F47EE3-04F7-4A34-AF6F-5DD15DA624B5";
shapes = (
{
closed = 1;
nodes = (
(134,813,ls),
(81,813,o),
(55,787,o),
(55,734,cs),
(55,622,l),
(-20,622,l),
(-20,563,l),
(55,563,l),
(55,0,l),
(124,0,l),
(124,563,l),
(199,563,l),
(199,622,l),
(124,622,l),
(124,723,ls),
(124,749,o),
(129,754,o),
(155,754,cs),
(1396,754,ls),
(1422,754,o),
(1427,749,o),
(1427,723,cs),
(1427,667,l),
(1496,667,l),
(1496,734,ls),
(1496,787,o),
(1470,813,o),
(1417,813,c)
);
}
);
width = 179;
},
{
anchors = (
{
name = abvm.i;
pos = (2208,676);
}
);
layerId = "13BA2761-E32F-4173-A027-E047921EE288";
shapes = (
{
closed = 1;
nodes = (
(162,858,ls),
(90,858,o),
(40,828,o),
(40,746,cs),
(40,642,l),
(-20,642,l),
(-20,529,l),
(40,529,l),
(40,0,l),
(210,0,l),
(210,529,l),
(270,529,l),
(270,642,l),
(210,642,l),
(210,709,ls),
(210,739,o),
(216,745,o),
(246,745,cs),
(2002,745,ls),
(2032,745,o),
(2038,739,o),
(2038,709,cs),
(2038,676,l),
(2208,676,l),
(2208,746,ls),
(2208,828,o),
(2158,858,o),
(2086,858,c)
);
}
);
width = 250;
}
);
},
{
glyphname = "iMatra-deva.50";
lastChange = "2023-07-18 08:24:34 +0000";
layers = (
{
anchors = (
{
name = abvm.i;
pos = (1518,667);
}
);
layerId = "26F47EE3-04F7-4A34-AF6F-5DD15DA624B5";
shapes = (
{
closed = 1;
nodes = (
(134,813,ls),
(81,813,o),
(55,787,o),
(55,734,cs),
(55,622,l),
(-20,622,l),
(-20,563,l),
(55,563,l),
(55,0,l),
(124,0,l),
(124,563,l),
(199,563,l),
(199,622,l),
(124,622,l),
(124,723,ls),
(124,749,o),
(129,754,o),
(155,754,cs),
(1418,754,ls),
(1444,754,o),
(1449,749,o),
(1449,723,cs),
(1449,667,l),
(1518,667,l),
(1518,734,ls),
(1518,787,o),
(1492,813,o),
(1439,813,c)
);
}
);
width = 179;
},
{
anchors = (
{
name = abvm.i;
pos = (2240,676);
}
);
layerId = "13BA2761-E32F-4173-A027-E047921EE288";
shapes = (
{
closed = 1;
nodes = (
(162,858,ls),
(90,858,o),
(40,828,o),
(40,746,cs),
(40,642,l),
(-20,642,l),
(-20,529,l),
(40,529,l),
(40,0,l),
(210,0,l),
(210,529,l),
(270,529,l),
(270,642,l),
(210,642,l),
(210,709,ls),
(210,739,o),
(216,745,o),
(246,745,cs),
(2034,745,ls),
(2064,745,o),
(2070,739,o),
(2070,709,cs),
(2070,676,l),
(2240,676,l),
(2240,746,ls),
(2240,828,o),
(2190,858,o),
(2118,858,c)
);
}
);
width = 250;
}
);
},
{
glyphname = "iiMatra-deva.02";
lastChange = "2023-07-18 08:27:39 +0000";
layers = (
{
layerId = "26F47EE3-04F7-4A34-AF6F-5DD15DA624B5";
shapes = (
{
closed = 1;
nodes = (
(55,0,l),
(124,0,l),
(124,593,l),
(55,593,l)
);
},
{
closed = 1;
nodes = (
(-20,563,l),
(199,563,l),
(199,622,l),
(-20,622,l)
);
},
{
closed = 1;
nodes = (
(-207,813,ls),
(-260,813,o),
(-286,787,o),
(-286,734,cs),
(-286,667,l),
(-217,667,l),
(-217,723,ls),
(-217,749,o),
(-214,754,o),
(-186,754,cs),
(24,754,ls),
(50,754,o),
(55,749,o),
(55,723,cs),
(55,610,l),
(124,610,l),
(124,734,ls),
(124,787,o),
(98,813,o),
(45,813,c)
);
}
);
width = 179;
},
{
layerId = "13BA2761-E32F-4173-A027-E047921EE288";
shapes = (
{
closed = 1;
nodes = (
(40,0,l),
(210,0,l),
(210,552,l),
(40,552,l)
);
},
{
closed = 1;
nodes = (
(-20,529,l),
(270,529,l),
(270,642,l),
(-20,642,l)
);
},
{
closed = 1;
nodes = (
(-312,858,ls),
(-384,858,o),
(-434,828,o),
(-434,746,cs),
(-434,676,l),
(-264,676,l),
(-264,709,ls),
(-264,739,o),
(-258,745,o),
(-228,745,cs),
(4,745,ls),
(34,745,o),
(40,739,o),
(40,709,cs),
(40,636,l),
(210,636,l),
(210,746,ls),
(210,828,o),
(160,858,o),
(88,858,c)
);
}
);
width = 250;
}
);
},
